<svg xmlns="http://www.w3.org/2000/svg" width="19" height="19" viewBox="0 0 19 19"><g><g><g><g><path fill="none" stroke="#fff" stroke-linejoin="round" stroke-miterlimit="20" d="M1.864 4a3 3 0 0 1 3-3h11.272a3 3 0 0 1 3 3v12.136a3 3 0 0 1-3 3H4.864a3 3 0 0 1-3-3z"/></g></g><g><path fill="#0bd600" d="M14.461 7.91a.432.432 0 0 1 .078.856l-.078.007H6.545a.432.432 0 0 1-.078-.857l.078-.007z"/></g><g><path fill="#0bd600" d="M9.207 10.5a.432.432 0 0 1 .078.857l-.078.007H6.545a.432.432 0 0 1-.078-.857l.078-.007z"/></g><g><path fill="#0f0f0f" d="M16.977 20a4.75 4.75 0 1 0 0-9.5 4.75 4.75 0 0 0 0 9.5z"/></g><g><path fill="#fff" d="M16.977 10.932a4.318 4.318 0 1 1 0 8.636 4.318 4.318 0 0 1 0-8.636zm0-.864a5.182 5.182 0 1 0 0 10.364 5.182 5.182 0 0 0 0-10.364z"/></g><g><path fill="#0bd600" d="M14.461 5.318a.432.432 0 0 1 .078.857l-.078.007H6.545a.432.432 0 0 1-.078-.857l.078-.007z"/></g><g><path fill="#0bd600" d="M18.605 14.155a.432.432 0 0 1 .653.56l-.05.058-1.862 1.813a.432.432 0 0 1-.5.074l-.067-.043-1.363-1.064a.432.432 0 0 1 .466-.723l.066.042 1.065.832z"/></g></g></g></svg>