<svg xmlns="http://www.w3.org/2000/svg" width="19" height="19" viewBox="0 0 19 19"><g><g><g><g><path fill="#fff" d="M5.981 2.16h11.801l.803 12.216a2.16 2.16 0 0 1-2.013 2.296l-.142.004H6.934zm12.61-.865H5.06L6.126 17.54H16.43a3.021 3.021 0 0 0 3.016-3.22z"/></g><g><path fill="#fff" d="M5.124 2.16l.946 14.516H3.764a2.16 2.16 0 0 1-2.16-2.159l.005-.14.797-12.218zm.809-.865H1.597L.747 14.32a3.023 3.023 0 0 0 3.016 3.22h3.23z"/></g><g><g><path fill="#0bd600" d="M14.56 5.06c.212 0 .388.154.425.355l.007.078V7.34a2.587 2.587 0 0 1-5.17.152l-.004-.152V5.493a.432.432 0 0 1 .856-.078l.007.078V7.34a1.723 1.723 0 0 0 3.442.129l.005-.13V5.494c0-.239.193-.432.432-.432z"/></g><g><path fill="#0bd600" d="M10.563 5.06a.432.432 0 0 1 .078.858l-.078.007h-.616a.432.432 0 0 1-.077-.857l.077-.007z"/></g><g><path fill="#0bd600" d="M14.873 5.06a.432.432 0 0 1 .077.858l-.077.007h-.616a.432.432 0 0 1-.078-.857l.078-.007z"/></g></g></g></g></g></svg>