<svg xmlns="http://www.w3.org/2000/svg" width="19" height="19" viewBox="0 0 19 19"><g><g><g><g><path fill="#fff" d="M3.455 1.432h8.426a2.16 2.16 0 0 1 1.527.632l3.664 3.664c.405.405.633.954.633 1.527v9.29a2.16 2.16 0 0 1-2.16 2.16H3.455a2.16 2.16 0 0 1-2.16-2.16V3.591a2.16 2.16 0 0 1 2.16-2.16zM11.88.568H3.455A3.023 3.023 0 0 0 .432 3.591v12.954a3.023 3.023 0 0 0 3.023 3.023h12.09a3.023 3.023 0 0 0 3.023-3.023v-9.29c0-.802-.318-1.57-.885-2.137l-3.664-3.664A3.023 3.023 0 0 0 11.88.568z"/></g></g><g><path fill="#0bd600" d="M13.461 7.91a.432.432 0 0 1 .078.856l-.078.007H5.545a.432.432 0 0 1-.078-.857l.078-.007z"/></g><g><path fill="#0bd600" d="M13.461 10.5a.432.432 0 0 1 .078.857l-.078.007H5.545a.432.432 0 0 1-.078-.857l.078-.007z"/></g><g><path fill="#0bd600" d="M9.068 13.09a.432.432 0 0 1 .078.858l-.078.007H5.614a.432.432 0 0 1-.078-.857l.078-.007z"/></g><g><path fill="#fff" d="M12.523 1h.863v4.75h4.75v.864h-4.75a.864.864 0 0 1-.857-.763l-.006-.101z"/></g></g></g></svg>