<svg xmlns="http://www.w3.org/2000/svg" width="19" height="19" viewBox="0 0 19 19"><g><g><g><g><path fill="#0bd600" d="M9.49 9.89a3.616 3.616 0 1 1 0 7.233 3.616 3.616 0 0 1 0-7.233zm0-.864a4.48 4.48 0 1 0 0 8.96 4.48 4.48 0 0 0 0-8.96z"/></g><g transform="rotate(114 16 13.5)"><path fill="none" stroke="#fff" stroke-miterlimit="20" d="M12.557 17.28v0l2.95-1.313v0s.952-.416 1.266-.563a2.43 2.43 0 0 0-.788-4.616"/></g><g transform="rotate(-55 9.5 13.5)"><path fill="#fff" d="M9.304 4.268a9.338 9.338 0 0 1 9.338 9.338c0 4.088-2.729 8.092-6.111 8.823l-.092.015-.3.022-.269-.821a.973.973 0 0 1 .22-.042l.258-.018c2.954-.638 5.43-4.272 5.43-7.98a8.474 8.474 0 1 0-11.975 7.72l.232.102-.333.797A9.338 9.338 0 0 1 9.304 4.268z"/></g></g></g></g></svg>