<svg xmlns="http://www.w3.org/2000/svg" width="28" height="28" viewBox="0 0 28 28"><g><g><g><g><path fill="#7d9ef9" d="M12.72 11.384c0-3.382 1.974-4.916 5.653-4.453a.5.5 0 0 1-.125.992c-3.025-.38-4.45.653-4.525 3.241l-.003.22v9.28a.5.5 0 0 1-.992.09l-.008-.09z"/></g><g><path fill="#7d9ef9" d="M17.28 13.09a.5.5 0 0 1 .09.992l-.09.008H9.27a.5.5 0 0 1-.09-.992l.09-.008z"/></g></g><g><path fill="#fff" d="M10 1.25h8A8.75 8.75 0 0 1 26.75 10v8A8.75 8.75 0 0 1 18 26.75h-8A8.75 8.75 0 0 1 1.25 18v-8A8.75 8.75 0 0 1 10 1.25zm8-.5h-8A9.25 9.25 0 0 0 .75 10v8A9.25 9.25 0 0 0 10 27.25h8A9.25 9.25 0 0 0 27.25 18v-8A9.25 9.25 0 0 0 18 .75z"/></g></g></g></svg>