<svg xmlns="http://www.w3.org/2000/svg" width="28" height="28" viewBox="0 0 28 28"><defs><linearGradient id="pfkha" x1="19.43" x2="8.3" y1="8.49" y2="20.41" gradientUnits="userSpaceOnUse"><stop offset="0" stop-color="#e7cc00"/><stop offset=".17" stop-color="#fc9003"/><stop offset=".43" stop-color="#ff423a"/><stop offset=".7" stop-color="#f72594"/><stop offset="1" stop-color="#a948fc"/></linearGradient></defs><g><g><g><path fill="#fff" d="M10 1.25h8A8.75 8.75 0 0 1 26.75 10v8A8.75 8.75 0 0 1 18 26.75h-8A8.75 8.75 0 0 1 1.25 18v-8A8.75 8.75 0 0 1 10 1.25zm8-.5h-8A9.25 9.25 0 0 0 .75 10v8A9.25 9.25 0 0 0 10 27.25h8A9.25 9.25 0 0 0 27.25 18v-8A9.25 9.25 0 0 0 18 .75z"/></g><g><path fill="url(#pfkha)" d="M14 8.59a5.41 5.41 0 1 1 0 10.818A5.41 5.41 0 0 1 14 8.59zm0-1a6.41 6.41 0 1 0 0 12.818A6.41 6.41 0 0 0 14 7.59z"/></g><g><path fill="#e2d70e" d="M22.104 7.042a1.182 1.182 0 1 1-2.364 0 1.182 1.182 0 0 1 2.364 0z"/></g></g></g></svg>