<svg xmlns="http://www.w3.org/2000/svg" width="60" height="61" viewBox="0 0 60 61"><g><g><g><path fill="#fff" d="M30.664 54.633c0-.387.022-.754 0-1.163 0-.13-.107-.13-.107-.13h-1.136v1.293zm0 4.119c0-.065-.128-.195-.128-.195H29.4v1.3h1.264v-1.105zM50.1 51.035a1.574 1.574 0 0 1-.321 0 .49.49 0 0 0-.622.41c-.116.597-.6 1.05-1.2 1.123-.257.13-.493.108-.771.13-.279.022-.279-.216-.279.324s0 .54.514.54h1.565v6.328H50.1zm-24.729 0a2.855 2.855 0 0 1-.428.065c-.3-.044-.514.064-.514.388a1.418 1.418 0 0 1-1.222 1.143l-1.071.194c.01.166.01.331 0 .497 0 .302-.193.302.278.302h1.415c.428 0 .428 0 .428.41v5.846h1.114zm33.536 7.305a2.88 2.88 0 0 0 .13-2.464 2.856 2.856 0 0 0-1.823-1.652 2.944 2.944 0 0 0-2.614.453v-.388c.107-.604.257-1.466.279-1.81.021-.345.128-.345.385-.345h2.957c.708-.022.708.172.708-.776 0-.258-.086-.258-.258-.258h-4.114c-.236 0-.236.086-.236.237-.15 1.142-.321 2.262-.492 3.404a4.542 4.542 0 0 0-.129 1.1h.621a.577.577 0 0 0 .472-.173 2.134 2.134 0 0 1 2.421-.474 2.16 2.16 0 0 1-.685 3.857 1.728 1.728 0 0 1-1.391-.242 1.747 1.747 0 0 1-.752-1.202h-1.093c-.014.748.36 1.45.986 1.853a3.35 3.35 0 0 0 2.142.517 2.678 2.678 0 0 0 2.486-1.659zm-25.759.517c.082-.494.331-.943.706-1.271.385-.28.62-.388 1.24-.798.621-.41 1.284-.754 1.883-1.206.84-.613 1.195-1.7.878-2.694a2.339 2.339 0 0 0-2.011-1.896 6.013 6.013 0 0 0-1.07 0 2.536 2.536 0 0 0-1.84.705 2.573 2.573 0 0 0-.791 1.816c0 .517-.043.539.492.517.534-.021.534.086.534-.496a1.77 1.77 0 0 1 .753-1.392 1.744 1.744 0 0 1 1.558-.224c.579.139 1.038.581 1.202 1.157a1.668 1.668 0 0 1-.41 1.623c-.286.28-.602.525-.942.733l-1.604.948a3.555 3.555 0 0 0-1.797 2.586v.818h6.075v-1.012h-4.813zm-14.153-1.242a1.68 1.68 0 0 1-1.418 1.424 1.394 1.394 0 0 1-1.59-.69c-.231-.485-.39-1.001-.472-1.532a8.473 8.473 0 0 1 .15-3.367c.065-.25.166-.49.3-.712a1.524 1.524 0 0 1 1.612-.863c.602.06 1.11.477 1.289 1.058.292.957.436 1.954.43 2.956-.084.61-.2 1.214-.344 1.812zm-.695-6.472a2.662 2.662 0 0 0-2.111.071 2.69 2.69 0 0 0-1.403 1.59 6.705 6.705 0 0 0-.45 2.33 7.076 7.076 0 0 0 .428 3.214c.27.796.91 1.409 1.715 1.64a2.738 2.738 0 0 0 3.364-1.64c.354-.946.55-1.945.578-2.956 0-.69-.15-1.38-.3-2.157a2.755 2.755 0 0 0-1.864-2.092zm-6.429 6.601a1.699 1.699 0 0 1-1.392 1.381 1.39 1.39 0 0 1-1.565-.776 6.246 6.246 0 0 1-.493-1.597 8.342 8.342 0 0 1 .15-3.215c.05-.232.13-.457.236-.67a1.52 1.52 0 0 1 1.629-.992 1.46 1.46 0 0 1 1.35 1.1 9.47 9.47 0 0 1 .364 2.806c-.064.41-.107 1.251-.279 1.963zm-.692-6.623a2.673 2.673 0 0 0-2.11.089 2.713 2.713 0 0 0-1.398 1.596 7.774 7.774 0 0 0-.471 2.786 7.317 7.317 0 0 0 .47 2.764 2.72 2.72 0 0 0 2.59 1.91 2.72 2.72 0 0 0 2.588-1.91 7.995 7.995 0 0 0 0-5.55 2.472 2.472 0 0 0-1.669-1.685zm32.428 6.615a1.72 1.72 0 0 1-1.371 1.38 1.455 1.455 0 0 1-1.522-.776 4.004 4.004 0 0 1-.493-1.875v-.84c-.062-.831.04-1.666.3-2.457a1.68 1.68 0 0 1 .822-1.047c.405-.22.884-.263 1.321-.116.472.112.843.476.965.948.174.569.296 1.153.364 1.745a8.08 8.08 0 0 1-.322 3.038zm-2.833-6.497a2.691 2.691 0 0 0-1.367 1.586 6.988 6.988 0 0 0-.45 2.826 6.62 6.62 0 0 0 .343 2.395 2.818 2.818 0 0 0 1.843 1.984 2.662 2.662 0 0 0 2.077-.11 2.69 2.69 0 0 0 1.373-1.572 8.031 8.031 0 0 0 .128-5.436 2.536 2.536 0 0 0-1.864-1.79 2.662 2.662 0 0 0-2.083.117zM4.886 54.035c.14.93-.492 1.8-1.415 1.944a1.64 1.64 0 0 1-1.52-.28 1.669 1.669 0 0 1-.622-1.426 2.57 2.57 0 0 1 0-.907c.05-.481.3-.918.688-1.202a1.682 1.682 0 0 1 1.347-.289 1.723 1.723 0 0 1 1.522 1.707zM.193 54.03A2.652 2.652 0 0 0 1.8 56.616a2.754 2.754 0 0 0 3.171-.754 6.495 6.495 0 0 1-.535 2.478 2.45 2.45 0 0 1-.665.668c-.417.304-.96.372-1.438.18a1.506 1.506 0 0 1-.919-1.128v-.237H.3a2.155 2.155 0 0 0 1.436 2.154c.6.237 1.259.282 1.885.13a2.813 2.813 0 0 0 1.972-1.832 7.884 7.884 0 0 0 .343-4.87 2.908 2.908 0 0 0-1.52-2.143A2.89 2.89 0 0 0 .193 54.03zm42.781-9.392a24.46 24.46 0 0 1-6.994 3.498.427.427 0 0 1-.45 0 9.625 9.625 0 0 0-.966-.82l.3-.216a30.305 30.305 0 0 0 5.192-4.189h.28l2.81 1.641v.151zm-19.853 3.689l.046.012-.088.074zM27.6 46.51a9.3 9.3 0 0 1 7.243 1.882c-3.835.97-7.85.953-11.676-.053A8.103 8.103 0 0 1 27.6 46.51zm-5.507 1.616A23.18 23.18 0 0 1 15 44.506l-.15-.151c.879-.539 1.714-1.056 2.571-1.551a.298.298 0 0 1 .236 0 34.16 34.16 0 0 0 5.55 4.31l-.9.775s-.107.172-.171.15zm0-7.09a.32.32 0 0 1 .278.109 37.935 37.935 0 0 0 3.215 4.986 6.938 6.938 0 0 0-.922.388 1.108 1.108 0 0 1-1.435-.107 34.753 34.753 0 0 1-4.758-3.756 1.29 1.29 0 0 1-.171-.173v-.108a22.399 22.399 0 0 1 3.771-1.425zm6.428 4.362c0 .26 0 .346-.342.367l-1.629.216a.362.362 0 0 1-.3 0 37.844 37.844 0 0 1-3.236-4.964v-.13a25.011 25.011 0 0 1 5.507-.863v5.374zm.686-5.116V40.37zm.236-.194c1.744.027 3.481.23 5.186.604h.107c-.3.539-.557 1.077-.9 1.573-.75 1.142-1.543 2.155-2.315 3.383a.363.363 0 0 1-.45.172l-1.585-.172c-.193 0-.279 0-.279-.28.021-1.68 0-3.337 0-5.016 0-.144.009-.264.236-.264zm5.893 1.014c0-.13.128-.216.3-.173 1.306.346 2.582.801 3.814 1.36l.171.15-.685.562a33.965 33.965 0 0 1-4.886 3.713.383.383 0 0 1-.257 0L32.143 46c.078-.088.15-.182.214-.28a34.89 34.89 0 0 0 2.979-4.62zm13.169-2.155a22.95 22.95 0 0 1-4.52 4.83.299.299 0 0 1-.43 0c-.642-.452-1.327-.883-1.992-1.315l-.857-.41c.943-1.186 1.886-2.35 2.807-3.536a.766.766 0 0 0-.343 0 .727.727 0 0 0-.792.388c-.686.884-1.436 1.747-2.143 2.631a.384.384 0 0 1-.557 0l-2.035-.82c-.621-.237-1.264-.41-1.928-.625.235-.56.471-1.1.707-1.682h-.364c-.3 0-.45 0-.536.366-.086.367-.278.626-.407.928-.129.302-.171.237-.364.194a26.12 26.12 0 0 0-5.335-.626c-.192 0-.278 0-.257-.237v-.604h-.642c-.011.18-.011.36 0 .54 0 .172 0 .237-.257.237-1.82.043-3.63.281-5.4.711a.234.234 0 0 1-.32-.172 19.89 19.89 0 0 0-.536-1.186.408.408 0 0 0-.214-.216h-.6c.257.625.514 1.186.75 1.769l-.343.129-3.578 1.38a.34.34 0 0 1-.493-.13l-2.399-2.868-.129-.172a4.042 4.042 0 0 0-.728 0l2.87 3.731-1.927 1.208c-.279.172-.579.496-.857.474-.279-.021-.536-.366-.793-.604a23.797 23.797 0 0 1-4.113-4.572.6.6 0 0 0-.279-.237 3.596 3.596 0 0 0-.685 0c7.23 11.282 22.074 14.707 33.463 7.72a24.82 24.82 0 0 0 7.862-7.677 1.025 1.025 0 0 0-1.306.453zM16.265 4.583A24.084 24.084 0 0 1 22.22 1.84a.426.426 0 0 1 .45 0c.176.17.362.328.558.475-.9.647-1.8 1.23-2.636 1.9-.836.67-1.907 1.64-2.85 2.461 0 0-.257.13-.322 0L15.15 5.511zm7.07-3.02a23.546 23.546 0 0 1 11.444 0 9.866 9.866 0 0 1-11.443 0zm12.472.278a23.499 23.499 0 0 1 7.05 3.454l.15.13c-.132.12-.276.23-.428.323l-2.143 1.295c-.129 0-.215.108-.343 0a28.459 28.459 0 0 0-5.25-4.317l-.193-.151.9-.713a.404.404 0 0 1 .257-.021zm1.136 6.58c-.407.152-.857.26-1.264.39-.408.129-.258 0-.343 0a36.273 36.273 0 0 0-3.193-4.987v-.108l1.65-.669a.32.32 0 0 1 .236 0 31.209 31.209 0 0 1 5.335 4.166l.215.26zm-3.986.95l-3.493.28c-.193 0-.278 0-.278-.26V4.277a.74.74 0 0 1 0-.216l2.014-.237a.428.428 0 0 1 .193.108 33.245 33.245 0 0 1 3.193 4.921v.195a7.021 7.021 0 0 1-1.607.388zm-4.446.009c0 .238 0 .324-.32.324a26.233 26.233 0 0 1-5.027-.649h-.257c.6-.973 1.155-1.924 1.754-2.832.6-.908 1.027-1.449 1.54-2.163a.298.298 0 0 1 .364-.13l1.626.217c.235 0 .32.108.32.346 0 1.614.008 3.25.022 4.908zm-6.14-.785c0 .13-.128.237-.3.172l-3.685-1.36h-.15l.814-.777a36.446 36.446 0 0 1 4.757-3.54.404.404 0 0 1 .279 0l1.521.691c-.283.353-.548.72-.793 1.1zM9.514 10.943a25.143 25.143 0 0 1 4.586-4.83c.236-.195.407-.238.664 0 .257.237 1.093.733 1.65 1.078l.643.366-1.586 1.92c-.514.647-.985 1.315-1.542 2.027h.364c.336.053.67-.11.836-.41.771-1.013 1.585-1.962 2.378-2.954A.363.363 0 0 1 18 8.01l3.621 1.402h.322c-.279.669-.557 1.294-.836 1.984h.322a.426.426 0 0 0 .535-.366c.15-.41.365-.82.536-1.23.171-.41.129-.215.343-.172 1.772.412 3.581.643 5.4.69.193 0 .257 0 .236.259v.798h.685v-.755c0-.237 0-.28.3-.302.65.042 1.301.042 1.95 0 1.115-.13 2.143-.324 3.365-.496.171 0 .278 0 .342.194.065.194.365.863.579 1.272.037.1.115.179.214.216h.6c-.257-.647-.514-1.25-.771-1.876h.214l3.857-1.402a.277.277 0 0 1 .386.108l2.443 3.019a.622.622 0 0 0 .3.237h.771l-3-3.882 2.893-1.79.257.194a24.954 24.954 0 0 1 4.757 5.112.536.536 0 0 0 .3.237h.665C44.773 3.917 36.276-.41 27.386.16a24.123 24.123 0 0 0-13.372 5.133 24.849 24.849 0 0 0-5.657 6.146c.772.087.772.087 1.157-.496zm4.265 24.791v-4.659c0-.323-.065-.323-.3-.323H11.12c-.407 0-.407 0-.407-.41V19.213h2.743c.322 0 .322-.086.322-.345v-4.615c0-.324-.065-.324-.322-.324H.321c-.321 0-.321.065-.321.324v4.637c0 .237 0 .323.321.323h2.486c.364-.021.364-.043.364.345v10.633c0 .453 0 .453-.428.453H.32c-.321 0-.321.065-.321.324v4.658c0 .324.064.324.321.324h13.115c.257 0 .343-.065.343-.216zm15.107-5.744c.3.172.3.344.043.625a3.486 3.486 0 0 1-.965.517c-1.02.28-2.09.324-3.128.13a7.3 7.3 0 0 1-5.122-3.083.471.471 0 0 0-.514-.302h-3.943c-.007.1-.007.201 0 .302v7.394c0 .323.064.323.322.323h4.371V34.28h.214a12.477 12.477 0 0 0 8.143 1.961 10.668 10.668 0 0 0 4.286-1.336 6.493 6.493 0 0 0 1.329-9.809 10.166 10.166 0 0 0-4.286-2.544c-2.143-.69-4.286-1.293-6.429-1.962a4.745 4.745 0 0 1-1.243-.603.56.56 0 0 1 0-1.035c.325-.185.681-.31 1.05-.366a7.948 7.948 0 0 1 3.75.41 7.69 7.69 0 0 1 3.836 2.586c.09.09.216.137.343.13h3.986v-7.373h-4.543v1.315l-.279-.151a12.918 12.918 0 0 0-10.157-1.294 6.433 6.433 0 0 0-4.036 3.058 6.502 6.502 0 0 0-.593 5.048 6.46 6.46 0 0 0 3.129 3.945c1.13.648 2.34 1.14 3.6 1.466 1.886.582 3.771 1.143 5.657 1.746.414.158.809.36 1.179.604zm22.445-1.314c-.03.17-.08.337-.15.496a2.363 2.363 0 0 1-2.146 1.79c-.714.071-1.432.071-2.146 0a2.148 2.148 0 0 1-1.76-1.402 6.93 6.93 0 0 1-.536-2.372 22.932 22.932 0 0 1 0-4.702c.071-.581.208-1.153.408-1.703a2.148 2.148 0 0 1 1.974-1.575 13.856 13.856 0 0 1 2.317 0c.755.073 1.416.54 1.738 1.23a6.17 6.17 0 0 1 .644 2.307c0 .755.107 1.51.172 2.61zm7.876-6.925a9.73 9.73 0 0 0-5.4-6.852 13.521 13.521 0 0 0-6.086-1.25 14.263 14.263 0 0 0-4.607.733 9.132 9.132 0 0 0-6.128 6.076 14.493 14.493 0 0 0-.365 7.822 9.379 9.379 0 0 0 6.236 7.197 14.602 14.602 0 0 0 9.943.108 9.288 9.288 0 0 0 6.407-6.917c.568-2.27.568-4.647 0-6.917z"/></g></g></g></svg>