<svg xmlns="http://www.w3.org/2000/svg" width="75" height="75" viewBox="0 0 75 75"><g><g><g><path fill="#fff" d="M74.414 37.787A36.635 36.635 0 1 1 37.787 1.15c20.221.026 36.606 16.414 36.627 36.636zm.383 0a37.018 37.018 0 1 0-37.01 37.01c20.43-.026 36.985-16.58 37.01-37.01z"/></g><g><path fill="#fff" d="M46.93 51.216a16.605 16.605 0 0 1-4.837 2.405.283.283 0 0 1-.306-.069c-.206-.19-.428-.366-.673-.565l.2-.145a20.897 20.897 0 0 0 3.614-2.886.214.214 0 0 1 .198-.046l1.95 1.146a.526.526 0 0 0 0 .099zM33.077 53.83a5.685 5.685 0 0 1 3.157-1.31 6.48 6.48 0 0 1 5.085 1.287c-2.691.7-5.517.708-8.212.023zm-.698-.191a16.372 16.372 0 0 1-4.936-2.45 1.248 1.248 0 0 1-.107-.107l1.78-1.072a.214.214 0 0 1 .168 0 23.077 23.077 0 0 0 3.821 3.062c-.199.176-.405.36-.619.536.053.061-.023.054-.076.03zm.192-4.846a26.904 26.904 0 0 0 2.251 3.444v.068a3.648 3.648 0 0 0-.643.26.767.767 0 0 1-1.003-.076 24.557 24.557 0 0 1-3.314-2.581l-.115-.123a.526.526 0 0 0 0-.076 15.334 15.334 0 0 1 2.64-.977.215.215 0 0 1 .184.06zm4.285-.49v3.428c0 .183-.061.244-.244.26-.375 0-.764.099-1.13.145a.237.237 0 0 1-.199-.069 23.763 23.763 0 0 1-2.29-3.413v-.1a17.482 17.482 0 0 1 3.863-.466v.214zm.5-.04c0-.106 0-.19.16-.19 1.215.015 2.425.153 3.612.412l.076.045c-.214.366-.397.762-.634 1.082-.527.762-1.069 1.523-1.61 2.338a.267.267 0 0 1-.306.122 19.91 19.91 0 0 0-1.115-.122c-.13 0-.183-.045-.183-.19.007-1.158 0-2.323 0-3.496zm4.473.392c.91.233 1.798.547 2.651.94l.123.099c-.168.137-.329.252-.482.389a23.752 23.752 0 0 1-3.4 2.566.252.252 0 0 1-.175 0l-1.154-.466.145-.206a24.938 24.938 0 0 0 2.086-3.207c0-.084.076-.153.206-.115zm8.974-1.287a16.29 16.29 0 0 1-3.152 3.334.207.207 0 0 1-.299 0c-.459-.314-.926-.612-1.392-.91-.184-.115-.375-.206-.56-.313l1.952-2.447a.674.674 0 0 0-.245-.046.536.536 0 0 0-.55.26c-.483.62-.995 1.216-1.485 1.835-.115.145-.214.145-.383.069-.467-.199-.933-.398-1.415-.566-.482-.168-.888-.29-1.347-.436l.497-1.162h-.26c-.207 0-.306.061-.375.245-.069.183-.191.436-.283.657a.176.176 0 0 1-.245.13 17.461 17.461 0 0 0-3.727-.428c-.122 0-.183-.046-.176-.176v-.42h-.443v.053a2.91 2.91 0 0 0 0 .367c0 .13-.046.176-.176.176-1.266.031-2.524.19-3.758.474-.13 0-.183 0-.23-.107-.122-.275-.236-.558-.367-.826 0-.06-.099-.137-.153-.145a2.678 2.678 0 0 0-.436 0l.498 1.231-.238.084c-.834.314-1.675.62-2.494.948a.237.237 0 0 1-.345-.084l-1.668-2.049c-.046-.053-.1-.122-.16-.13-.062-.007-.337 0-.505 0v.054l2.035 2.53-1.37.834c-.199.122-.405.351-.589.336-.184-.015-.383-.267-.559-.42a16.772 16.772 0 0 1-2.87-3.158c-.045-.069-.122-.16-.198-.168a2.428 2.428 0 0 0-.475 0 17.108 17.108 0 0 0 16.07 7.745 16.745 16.745 0 0 0 7.224-2.416 17.226 17.226 0 0 0 5.487-5.306.704.704 0 0 0-.835.351zM28.313 23.51a16.537 16.537 0 0 1 4.15-1.878.268.268 0 0 1 .306.068c.122.115.26.214.397.329-.619.442-1.245.84-1.834 1.305-.588.466-1.299 1.145-1.956 1.725-.061.046-.176.1-.23.069-.534-.32-1.061-.656-1.596-.985l-.054-.068c.275-.199.55-.36.818-.565zm12.896-2.088l-.03-.007zm-7.98-.007a16.613 16.613 0 0 1 7.95 0c-2.047 1.728-6.109 1.621-7.95 0zm8.734.202a16.647 16.647 0 0 1 4.913 2.367s.061.061.115.1c-.115.075-.206.16-.313.22-.497.305-.994.594-1.529.89-.084.054-.153.077-.237 0a20.414 20.414 0 0 0-3.652-2.907l-.115-.1v-.038c.206-.167.405-.335.627-.494a.253.253 0 0 1 .183-.03zm.754 4.583c-.29.1-.595.176-.885.26-.091 0-.175.038-.236-.076a24.12 24.12 0 0 0-2.181-3.406.656.656 0 0 1-.054-.077l1.198-.442a.228.228 0 0 1 .16 0 21.92 21.92 0 0 1 3.713 2.886c0 .038.07.092.138.176zm-2.773.643c-.81.077-1.619.13-2.42.199-.138 0-.199 0-.199-.176v-3.535a.481.481 0 0 1 0-.146l1.39-.168a.206.206 0 0 1 .137.077 23.75 23.75 0 0 1 2.23 3.406s0 .06.045.122a6.171 6.171 0 0 1-1.153.244zm-3.065-.01c0 .16-.046.222-.222.222a18.61 18.61 0 0 1-3.497-.442l-.183-.069c.42-.662.81-1.31 1.222-1.935.412-.624.718-1.005 1.076-1.523a.214.214 0 0 1 .252-.1c.375.062.764.107 1.13.153.168 0 .222.069.222.236a261.284 261.284 0 0 0 0 3.459zm-4.282-.535c-.054.083-.084.16-.214.114l-2.537-.952s-.046 0-.092-.061c.191-.19.367-.374.558-.549a25.85 25.85 0 0 1 3.308-2.437.283.283 0 0 1 .191 0l1.062.472c-.19.259-.382.503-.542.762-.611.83-1.17 1.752-1.734 2.65zm-8.96 1.64a17.01 17.01 0 0 1 3.184-3.364.322.322 0 0 1 .475 0c.36.267.765.505 1.14.764.138.092.29.169.451.26-.382.46-.765.887-1.102 1.33-.336.444-.696.865-1.079 1.377.084-.008.169-.008.253 0a.582.582 0 0 0 .59-.283c.535-.696 1.101-1.369 1.652-2.049a.245.245 0 0 1 .344-.084c.835.329 1.676.642 2.518.963l.222.084c-.199.451-.383.895-.582 1.369.087-.008.174-.008.26 0 .2 0 .307-.054.376-.252.068-.2.244-.566.367-.849.046-.115.092-.16.237-.13a18.38 18.38 0 0 0 3.788.466c.138 0 .184.054.176.184-.008.13 0 .352 0 .543h.474v-.52c0-.168.054-.191.2-.199.454-.002.909-.028 1.361-.076.766-.1 1.53-.23 2.342-.344a.191.191 0 0 1 .253.13c.122.298.252.596.39.886a.23.23 0 0 0 .16.16c.14.013.281.013.421 0-.183-.45-.367-.87-.543-1.299l.153-.053c.903-.33 1.798-.643 2.694-.979a.2.2 0 0 1 .267.076c.567.704 1.125 1.4 1.7 2.095a.39.39 0 0 0 .214.153c.178.013.357.013.535 0-.765-.902-1.4-1.758-2.081-2.607l1.997-1.254a.061.061 0 0 1 0 .046l.191.145a16.895 16.895 0 0 1 3.314 3.533.367.367 0 0 0 .206.153c.153.011.307.011.46 0a17.084 17.084 0 0 0-15.527-7.814 16.844 16.844 0 0 0-9.305 3.51 17.04 17.04 0 0 0-3.964 4.296c.536 0 .536 0 .819-.367zm2.977 17.1v-3.22c0-.168-.046-.221-.222-.221h-1.705c-.283 0-.283 0-.283-.283v-7.66h1.988c.23 0 .23-.062.23-.238v-3.195c0-.153-.039-.222-.215-.222h-9.176c-.168 0-.222.054-.222.222v3.234c0 .16.046.214.214.214h1.751c.2 0 .207-.008.207.237v7.347c0 .313 0 .313-.298.313h-1.69c-.169-.007-.222.039-.222.214V45c-.008.16.038.222.214.222h9.176c.169 0 .23-.046.253-.184zm10.513-3.556c-.2.152-.426.269-.665.345a4.88 4.88 0 0 1-2.18.099 5.095 5.095 0 0 1-3.573-2.142.344.344 0 0 0-.321-.16h-2.754a2.027 2.027 0 0 0 0 .206v5.095c-.008.168.046.222.214.222h3.175v-1.094l.145.076a8.82 8.82 0 0 0 5.684 1.362 7.519 7.519 0 0 0 2.937-.933 4.407 4.407 0 0 0 .895-6.794 6.885 6.885 0 0 0-2.983-1.767c-1.484-.474-3.014-.895-4.544-1.354-.308-.09-.6-.23-.864-.413a.39.39 0 0 1 0-.72c.221-.129.465-.214.719-.252a5.721 5.721 0 0 1 2.616.275 5.355 5.355 0 0 1 2.67 1.79.329.329 0 0 0 .237.092h2.784v-5.14h-3.16v.925l-.198-.107a9.049 9.049 0 0 0-7.068-.903 4.422 4.422 0 0 0-3.22 5.554 4.475 4.475 0 0 0 2.172 2.74c.79.445 1.637.785 2.516 1.01 1.316.397 2.632.795 3.94 1.216.292.099.57.235.826.405.199.122.207.275 0 .367zm15.53-.988a1.643 1.643 0 0 1-1.529 1.23 8.077 8.077 0 0 1-1.528-.038 1.528 1.528 0 0 1-1.207-.97 4.697 4.697 0 0 1-.382-1.644 16.007 16.007 0 0 1 .046-3.258c.047-.36.129-.717.245-1.062a1.482 1.482 0 0 1 1.352-1.078c.54-.039 1.08-.039 1.62 0 .52.06.972.384 1.199.856.262.498.418 1.044.458 1.606.054.52.07 1.04.123 1.796-.092.581-.191 1.392-.298 2.21-.022.12-.055.238-.1.352zm5.595-.282a9.946 9.946 0 0 0 0-4.789 6.755 6.755 0 0 0-3.772-4.75 9.41 9.41 0 0 0-4.208-.827c-1.09-.01-2.176.158-3.213.497a6.411 6.411 0 0 0-4.276 4.216 10.06 10.06 0 0 0-.245 5.424 6.495 6.495 0 0 0 4.36 4.98c2.219.817 4.652.841 6.886.07a6.442 6.442 0 0 0 4.468-4.82z"/></g><g><path fill="#fff" d="M7.394 50.022l-.964-2.717.712-.253.658 1.845 1.11-.398-.597-1.684.68-.245.605 1.684 1.63-.574.307.864z"/></g><g><path fill="#fff" d="M9.01 42.907c.174.156.297.361.352.589.047.218.025.445-.061.65-.092.207-.24.382-.429.506a1.975 1.975 0 0 1-.765.298 1.944 1.944 0 0 1-.811 0 1.156 1.156 0 0 1-.582-.306 1.133 1.133 0 0 1-.245-1.225c.088-.205.235-.38.42-.505.232-.15.493-.249.766-.29.253-.051.512-.054.766-.008.22.038.424.14.589.29zm1.064.413a2.235 2.235 0 0 0-.498-1.049 1.829 1.829 0 0 0-.91-.566c-.408-.1-.833-.1-1.24 0-.406.073-.79.24-1.118.49a1.913 1.913 0 0 0-.627.872 2.403 2.403 0 0 0 .444 2.212c.236.281.55.486.903.59.407.096.832.096 1.24 0a2.74 2.74 0 0 0 1.132-.49c.292-.224.511-.531.628-.88.123-.382.139-.79.046-1.18z"/></g><g><path fill="#fff" d="M8.556 38.11c.127.183.194.402.191.626.012.22-.044.439-.16.626-.122.19-.298.34-.506.428-.24.108-.501.166-.765.168a1.848 1.848 0 0 1-.765-.115 1.17 1.17 0 0 1-.529-.397 1.03 1.03 0 0 1-.199-.619c-.012-.22.044-.439.161-.626.123-.186.295-.334.498-.428.241-.105.501-.162.765-.168.26-.012.52.027.765.115.209.079.392.213.528.39zm.75 1.735c.175-.353.257-.746.237-1.14 0-.394-.109-.78-.314-1.117a1.821 1.821 0 0 0-.811-.704 2.548 2.548 0 0 0-1.21-.23c-.418.003-.83.106-1.2.298-.325.176-.59.442-.766.766a2.181 2.181 0 0 0-.237 1.14c-.001.391.104.775.306 1.11.196.312.478.561.811.72.382.168.8.245 1.217.221.418-.003.83-.106 1.201-.298.325-.175.591-.44.766-.766z"/></g><g><path fill="#fff" d="M8.853 34.997l-2.855-.362.085-.646c.02-.239.104-.467.244-.661.136-.178.323-.31.536-.377.25-.069.51-.085.765-.046.27.027.53.11.766.246.192.111.345.281.436.485.086.227.112.474.077.715zm.597.97l.199-1.639a2.365 2.365 0 0 0-.115-1.155 1.783 1.783 0 0 0-.666-.804 2.648 2.648 0 0 0-1.155-.398 2.54 2.54 0 0 0-1.202.1 1.676 1.676 0 0 0-.826.62c-.221.323-.355.697-.39 1.086l-.215 1.669z"/></g><g><path fill="#fff" d="M10.53 29.69c-.16.2-.372.353-.612.444a1.225 1.225 0 0 1-.765 0h-.046l.276-.826a.551.551 0 0 0 .329-.054.85.85 0 0 0 .283-.245c.09-.123.16-.26.207-.405.049-.14.074-.288.076-.437a.674.674 0 0 0-.1-.336.42.42 0 0 0-.244-.184.383.383 0 0 0-.383.054 1.53 1.53 0 0 0-.383.49l-.237.405c-.176.323-.442.59-.765.765-.27.144-.588.164-.873.054a1.186 1.186 0 0 1-.596-.429 1.37 1.37 0 0 1-.169-.673c-.026-.295.01-.593.107-.873.091-.28.237-.54.429-.765.163-.19.374-.333.612-.413.232-.07.48-.07.712 0h.053l-.275.826h-.038a.513.513 0 0 0-.322 0 .666.666 0 0 0-.268.207 1.224 1.224 0 0 0-.252.765c.002.11.037.216.1.306a.444.444 0 0 0 .229.176h.038a.413.413 0 0 0 .375-.06c.15-.132.271-.29.36-.468l.237-.413c.18-.337.443-.622.765-.826.261-.104.553-.102.812.007.513.16.87.626.887 1.164.018.324-.029.65-.137.956-.09.287-.233.554-.421.788z"/></g><g><path fill="#fff" d="M10.34 25.366l.263-.522-1.373-1.315 1.876.315.259-.513.612.306-.162.325 1.073.18.436-.865-4.592-.597-.482.964 3.23 3.337.428-.888-.782-.748-.167.335zm.263-.522l.503-1 .709.118-.689 1.383z"/></g><g><path fill="#fff" d="M10.01 20.402l1.63-2.372.628.429-1.11 1.614.972.666 1.01-1.47.605.406-1.018 1.477 1.431.98-.52.765z"/></g><g><path fill="#fff" d="M12.32 17.161l1.929-2.181.566.505-1.316 1.53.765.697 1.247-1.408.536.482-1.24 1.408.827.727 1.316-1.492.566.505-1.905 2.143z"/></g><g><path fill="#fff" d="M16.442 13.978l-.957.834-.505-.566 2.617-2.296.498.574-.957.834 2.388 2.748-.689.604z"/></g><g><path fill="#fff" d="M21.046 12.908l-2.786-1.47.872-.543 1.852 1.033-.206-2.105.834-.543.222 3.145.88 1.355-.765.505z"/></g><g><path fill="#fff" d="M24.01 7.995l.995-.382L27.3 10.13l.046-3.398.995-.383 1.53 4.117-.765.291-1.018-2.786-.398.154.398-1.531-.076 4.592-.544.206-3.115-3.398 1.324.888-.398.153 1.057 2.778-.766.291z"/></g><g><path fill="#fff" d="M30.913 8.464l.603-.118.2-1.862.895 1.649.554-.109.13.686-.336.065.533.984.95-.184-2.365-4.025-1.064.207-.643 4.6.949-.185.12-1.105-.387.075zm.603-.118l1.095-.213.348.642-1.52.292z"/></g><g><path fill="#fff" d="M34.68 5.14h.765l2.518 3.344-.765-.551h.39l-.092-2.893h.919l.16 4.4h-.765l-2.525-3.375.765.56h-.39l.107 2.87-.919.037z"/></g><g><path fill="#fff" d="M40.14 7.766l.582.066.772-1.711.321 1.835.62.07-.084.681-.412-.046.198 1.133.964.107-1.01-4.546-1.048-.145-2.013 4.194.934.107.461-1.022-.37-.042zm.582.066l1.093.124.124.705-1.514-.172z"/></g><g><path fill="#fff" d="M44.237 9.952a1.79 1.79 0 0 1-.505-.95 2.655 2.655 0 0 1 .077-1.254c.106-.403.305-.775.581-1.087.237-.262.546-.448.888-.536a2.403 2.403 0 0 1 1.997.46c.22.177.393.406.505.665.101.242.143.504.123.765v.046l-.895-.237v-.03c-.012-.21-.09-.411-.222-.574a1.156 1.156 0 0 0-.567-.33 1.08 1.08 0 0 0-.643 0 1.125 1.125 0 0 0-.52.383 1.929 1.929 0 0 0-.337.765 2.09 2.09 0 0 0-.076.82c.026.225.12.439.268.612.148.17.346.29.566.344.176.041.36.041.536 0a.842.842 0 0 0 .428-.214.865.865 0 0 0 .245-.414v-.06l-.918-.253.176-.659 1.79.483-.13.49a2.143 2.143 0 0 1-.497.933c-.22.232-.506.392-.819.46a2.15 2.15 0 0 1-1.071-.047 2.235 2.235 0 0 1-.98-.581z"/></g><g><path fill="#fff" d="M49.485 7.18l2.678 1.163-.306.697-1.829-.766-.42.911 1.729.765-.29.666-1.723-.765-.444 1.01 1.83.765-.3.697-2.67-1.163z"/></g><g><path fill="#fff" d="M53.38 8.91l.896.574-.643 3.337 2.755-1.998.895.574-2.365 3.704-.688-.436 1.637-2.495-.352-.23 1.477-.604-3.742 2.694-.49-.314.811-4.53.077 1.591-.36-.23-1.592 2.511-.696-.444z"/></g><g><path fill="#fff" d="M58.396 12.32l2.18 1.929-.504.566-1.493-1.316-.696.765 1.408 1.247-.482.536-1.408-1.217-.765.827 1.53 1.316-.505.566-2.181-1.928z"/></g><g><path fill="#fff" d="M61.49 15.15l.52.612-1.072 4.056-.054-.964.253.29 2.174-1.851.596.696-3.352 2.855-.512-.612 1.079-4.064.053.964-.252-.29-2.189 1.867-.574-.704z"/></g><g><path fill="#fff" d="M64.621 20.405l-.68-1.08.642-.405 1.844 2.939-.643.405-.673-1.079-3.061 1.937-.49-.766z"/></g><g><path fill="#fff" d="M63.868 26.475a1.431 1.431 0 0 1 .183-.765c.13-.214.323-.382.551-.483h.046l.322.789a.528.528 0 0 0-.215.252.811.811 0 0 0-.06.368c-.01.329.095.65.298.91.074.09.172.156.283.192a.444.444 0 0 0 .314 0 .398.398 0 0 0 .23-.345c.043-.201.043-.41 0-.612l-.077-.467a1.89 1.89 0 0 1 .076-1.064c.113-.281.342-.501.628-.604a1.14 1.14 0 0 1 .765-.054c.25.064.476.193.658.375.207.222.368.482.475.766.116.279.176.578.176.88-.002.25-.073.493-.207.704a1.24 1.24 0 0 1-.543.459h-.046l-.375-.827a.497.497 0 0 0 .222-.23.674.674 0 0 0 .076-.328 1.094 1.094 0 0 0-.084-.398c-.047-.13-.12-.25-.214-.352a.566.566 0 0 0-.268-.176.42.42 0 0 0-.29 0 .413.413 0 0 0-.246.29 1.531 1.531 0 0 0 0 .59l.084.467c.1.36.1.741 0 1.102a1.056 1.056 0 0 1-.635.604c-.24.107-.51.131-.765.07a1.355 1.355 0 0 1-.674-.391 2.755 2.755 0 0 1-.696-1.722z"/></g><g><path fill="#fff" d="M66.767 30.163l2.291-2.143.237.964-1.581 1.408 2.054.513.237.964-3.055-.826-1.589.39-.221-.895z"/></g><g><path fill="#fff" d="M65.92 33.812c.064-.247.193-.472.375-.65a1.24 1.24 0 0 1 .666-.322h.046l.092.834a.49.49 0 0 0-.276.184.811.811 0 0 0-.16.336 1.294 1.294 0 0 0 0 .46c.009.149.048.294.114.428a.582.582 0 0 0 .222.26c.09.061.2.086.306.07a.406.406 0 0 0 .33-.207c.087-.19.136-.396.145-.605l.046-.474c.003-.349.1-.69.283-.988.184-.242.462-.395.765-.42.252-.028.506.022.727.145.217.133.397.32.52.543.147.259.236.546.26.842.04.3.019.604-.06.895-.075.237-.21.451-.39.62-.18.163-.404.267-.644.299h-.053l-.084-.857a.551.551 0 0 0 .283-.161.765.765 0 0 0 .16-.299 1.171 1.171 0 0 0 0-.405.98.98 0 0 0-.114-.398.505.505 0 0 0-.215-.237.398.398 0 0 0-.283-.062.39.39 0 0 0-.314.207 1.416 1.416 0 0 0-.145.574l-.046.475c.01.374-.082.745-.268 1.071a1.064 1.064 0 0 1-.765.406 1.286 1.286 0 0 1-.765-.13 1.416 1.416 0 0 1-.544-.56 2.8 2.8 0 0 1-.214-1.851z"/></g><g><path fill="#fff" d="M69.75 38.09v-1.27h.765l-.085 3.467h-.765v-1.27l-3.635-.092v-.919z"/></g><g><path fill="#fff" d="M70.34 41.403l-.445 2.878-.765-.115.306-1.967-1.048-.16-.276 1.852-.712-.107.283-1.86-1.102-.168-.306 1.974-.765-.115.444-2.885z"/></g><g><path fill="#fff" d="M69.64 45.612l-.33 1.01-3.39.222 2.625 2.158-.329 1.018-4.186-1.355.253-.765 2.831.91.13-.405.957 1.278-3.543-2.939.176-.543 4.591-.314-1.53.475.13-.406-2.824-.91.252-.766z"/></g><g><path fill="#fff" d="M14.016 58.764l2.296.214c.207.014.414.014.62 0 .123-.002.245-.025.36-.068a.765.765 0 0 0 .23-.153.444.444 0 0 0 .137-.245.559.559 0 0 0 0-.276.765.765 0 0 0-.459-.444.52.52 0 0 0-.306 0 .712.712 0 0 0-.29.153l-.942-.933a1.53 1.53 0 0 1 .765-.452c.305-.058.62-.032.91.077.335.123.637.322.881.581.258.248.463.545.605.873.12.268.16.566.114.857a1.278 1.278 0 0 1-.382.765c-.141.143-.31.255-.498.33a1.622 1.622 0 0 1-.612.106 6.176 6.176 0 0 1-.865-.046l-1.928-.206 1.148-.283-.712.719-.1-.765 1.89 1.89-.765.765-2.793-2.762z"/></g><g><path fill="#fff" d="M17.824 62.411l2.296-.16c.205-.015.41-.04.612-.077a.926.926 0 0 0 .345-.13.658.658 0 0 0 .199-.184.497.497 0 0 0 .099-.26.59.59 0 0 0-.268-.497.765.765 0 0 0-.321-.138.497.497 0 0 0-.299.046.643.643 0 0 0-.26.199l-1.094-.75c.179-.257.429-.457.719-.574a1.73 1.73 0 0 1 .91-.077c.347.073.673.219.957.429.305.2.565.46.766.765.16.247.25.532.26.826a1.34 1.34 0 0 1-.268.766 1.447 1.447 0 0 1-.436.405 1.623 1.623 0 0 1-.59.207c-.283.051-.57.084-.857.1l-1.936.114 1.087-.467-.612.827-.222-.765 2.173 1.53-.635.896-3.199-2.296z"/></g><g><path fill="#fff" d="M24.583 66.318a.549.549 0 0 1-.438 0 .521.521 0 0 1-.293-.322c-.05-.18-.05-.37 0-.55.05-.267.138-.525.262-.766.113-.24.255-.467.423-.674a1.1 1.1 0 0 1 .438-.329c.14-.06.3-.06.439 0a.598.598 0 0 1 .3.33c.044.178.044.364 0 .543a3.188 3.188 0 0 1-.27.765c-.113.24-.255.467-.422.674a1.03 1.03 0 0 1-.439.329zm-.9.98c.37.19.788.27 1.202.229a1.99 1.99 0 0 0 1.072-.475c.356-.302.639-.681.826-1.11.207-.424.317-.89.322-1.362a2.005 2.005 0 0 0-.307-1.125 2.181 2.181 0 0 0-.933-.765 2.128 2.128 0 0 0-1.194-.23 2.051 2.051 0 0 0-1.08.46c-.351.309-.633.69-.826 1.117-.212.418-.33.878-.344 1.347-.012.397.095.789.306 1.125.236.35.568.623.957.788z"/></g><g><path fill="#fff" d="M29.944 68.23a.579.579 0 0 1-.763-.214 1.094 1.094 0 0 1-.114-.535c.008-.259.049-.515.122-.764.061-.266.159-.523.29-.763.082-.166.209-.307.366-.405a.571.571 0 0 1 .777.214c.087.164.126.349.115.534a2.907 2.907 0 0 1-.122.764c-.06.266-.155.523-.282.764-.088.167-.216.31-.374.412zm-1.783.528a2.395 2.395 0 0 0 2.296.62c.38-.121.718-.35.972-.658.29-.368.499-.793.612-1.248.132-.45.166-.922.1-1.385a2.128 2.128 0 0 0-.498-1.049 2.426 2.426 0 0 0-2.296-.612c-.38.118-.718.344-.972.65-.29.369-.498.794-.612 1.248a3.26 3.26 0 0 0-.1 1.385c.063.395.241.763.513 1.056z"/></g><g><path fill="#fff" d="M35.613 69.155a.581.581 0 0 1-.806-.07 1.035 1.035 0 0 1-.206-.506 2.979 2.979 0 0 1 0-.768 3.27 3.27 0 0 1 .145-.768c.057-.178.156-.339.289-.469a.551.551 0 0 1 .418-.13.538.538 0 0 1 .388.2c.112.146.183.322.205.506.037.255.037.514 0 .768a3.27 3.27 0 0 1-.145.768 1.146 1.146 0 0 1-.288.469zm-.522 1.23c.413.043.83-.031 1.202-.214.35-.192.64-.478.834-.827.218-.412.346-.866.375-1.332a3.191 3.191 0 0 0-.138-1.377 2.005 2.005 0 0 0-.688-.941 2.403 2.403 0 0 0-2.358-.192 2.09 2.09 0 0 0-.834.82c-.221.413-.35.87-.375 1.338-.051.465.001.936.153 1.378.137.376.379.706.697.949.334.234.726.371 1.132.398z"/></g><g><path fill="#fff" d="M40.522 69.186a.766.766 0 0 1 1.446.418.764.764 0 0 1-.697.685.698.698 0 0 1-.528-.153.76.76 0 0 1-.22-.95zm-.016-1.268a.708.708 0 0 1-.26-.487.684.684 0 0 1 .153-.526.766.766 0 0 1 .49-.26.69.69 0 0 1 .528.153c.151.115.246.29.26.48a.71.71 0 0 1-.635.762.706.706 0 0 1-.536-.122z"/></g><g><path fill="#fff" d="M44.928 68.674l1.27-1.89c.117-.173.224-.352.321-.536a.956.956 0 0 0 .108-.345.551.551 0 0 0 0-.275.497.497 0 0 0-.398-.36.712.712 0 0 0-.307 0 .765.765 0 0 0-.306.168.543.543 0 0 0-.145.268.597.597 0 0 0 0 .33l-1.27.382a1.53 1.53 0 0 1 0-.918 1.7 1.7 0 0 1 .505-.766c.26-.21.563-.362.887-.444.351-.124.723-.176 1.095-.153.295.024.577.133.811.314.222.175.383.416.46.689.06.19.08.39.06.59-.03.208-.097.41-.199.596a7.767 7.767 0 0 1-.451.765l-1.14 1.577.298-1.148.29.972-.719-.276 2.572-.765.306 1.049-3.765 1.148z"/></g><g><path fill="#fff" d="M52.146 65.752a.552.552 0 0 1-.282.361.551.551 0 0 1-.442 0 1.135 1.135 0 0 1-.441-.323 3.445 3.445 0 0 1-.426-.675 3.376 3.376 0 0 1-.275-.769 1.108 1.108 0 0 1 0-.553.536.536 0 0 1 .29-.33.506.506 0 0 1 .434 0c.173.065.326.176.441.323.169.204.312.428.427.668.123.243.215.501.274.768.05.18.05.372 0 .553zm1.142.512c.204-.341.303-.735.283-1.133a3.1 3.1 0 0 0-.367-1.347 3.352 3.352 0 0 0-.85-1.102 2.036 2.036 0 0 0-1.079-.451 2.204 2.204 0 0 0-1.193.314c-.372.163-.69.429-.919.765-.209.34-.31.734-.29 1.133.019.47.144.93.367 1.346.199.426.489.802.85 1.103.307.252.682.41 1.078.451a2.372 2.372 0 0 0 2.12-1.079z"/></g><g><path fill="#fff" d="M54.382 61.48l-.52 1.354-.712-.987.505-1.385 1.179-.842 2.885 4.018-1.179.85z"/></g><g><path fill="#fff" d="M57.9 56.949c.28-.104.577-.146.873-.123.31.034.61.13.88.284.307.17.588.384.834.635.327.338.578.743.735 1.186.137.375.16.782.069 1.17-.11.4-.327.763-.628 1.05a2.442 2.442 0 0 1-.826.55c-.275.108-.571.15-.865.123a1.47 1.47 0 0 1-.765-.276l1.01-.995a.59.59 0 0 0 .207 0c.08.001.158-.017.23-.053a.681.681 0 0 0 .221-.153.612.612 0 0 0 .2-.345.926.926 0 0 0 0-.405 1.676 1.676 0 0 0-.223-.436 3.774 3.774 0 0 0-.375-.452l-.704-.482a.582.582 0 0 0-.29-.16.628.628 0 0 0-.337 0 .842.842 0 0 0-.306.183.673.673 0 0 0-.184.306.605.605 0 0 0 0 .33c.016.113.07.218.153.298.08.086.184.147.298.176a.627.627 0 0 0 .636-.184.765.765 0 0 0 .199-.306.712.712 0 0 0 0-.337.59.59 0 0 0-.169-.298l.153-.146.582.597-.054.054c.068.154.102.321.1.49a1.362 1.362 0 0 1-.123.512c-.09.183-.212.349-.36.49-.208.217-.473.37-.765.444-.25.073-.515.073-.765 0a1.668 1.668 0 0 1-.712-.436 1.638 1.638 0 0 1-.459-.85 1.79 1.79 0 0 1 .084-.956 2.48 2.48 0 0 1 .59-.911c.241-.25.533-.446.857-.574z"/></g><g><path fill="#fff" d="M37.784 13.861c13.205.017 23.904 10.72 23.916 23.923A23.923 23.923 0 1 1 37.784 13.87zm24.299 23.923a24.306 24.306 0 1 0-24.299 24.299C51.2 62.07 62.07 51.199 62.083 37.784z"/></g></g></g></svg>