<svg xmlns="http://www.w3.org/2000/svg" width="19" height="19" viewBox="0 0 19 19"><g><g><g><g><path fill="#fff" d="M20 13.386a.432.432 0 0 1 .078.857L20 14.25H1a.432.432 0 0 1-.078-.857L1 13.386z"/></g><g><path fill="#34ce44" d="M16.545 17.705a.432.432 0 0 1 .078.856l-.078.007H4.455a.432.432 0 0 1-.078-.856l.078-.007z"/></g><g><path fill="#fff" d="M10.5 2.16a8.205 8.205 0 0 1 8.201 7.97l.004.234v2.888a.432.432 0 0 1-.857.078l-.007-.078v-2.888a7.34 7.34 0 0 0-14.679-.22l-.003.22v2.926a.432.432 0 0 1-.857.078l-.007-.078v-2.926A8.205 8.205 0 0 1 10.5 2.159z"/></g><g><path fill="#fff" d="M10.5.432c.212 0 .388.153.425.354l.007.078v.863a.432.432 0 0 1-.857.078l-.007-.078V.864c0-.239.194-.432.432-.432z"/></g></g></g></g></svg>