<svg xmlns="http://www.w3.org/2000/svg" width="19" height="19" viewBox="0 0 19 19"><g><g><g><g><path fill="#fff" d="M3.455 2.16a2.16 2.16 0 1 1 0 4.317 2.16 2.16 0 0 1 0-4.318zm0-.865a3.023 3.023 0 1 0 0 6.046 3.023 3.023 0 0 0 0-6.046z"/></g><g><path fill="#34ce44" d="M12.09.432c3.578 0 6.478 2.9 6.478 6.477a.432.432 0 0 1-.863 0c0-3.1-2.514-5.614-5.614-5.614a.432.432 0 0 1 0-.863z"/></g><g><path fill="#fff" d="M15.114 12.955a2.16 2.16 0 1 1 0 4.318 2.16 2.16 0 0 1 0-4.318zm0-.864a3.023 3.023 0 1 0 0 6.045 3.023 3.023 0 0 0 0-6.045z"/></g><g transform="rotate(90 8 11)"><path fill="#fff" d="M14.56 3.576a.432.432 0 0 1 .445.418c.004.148.007.296.007.445 0 7.619-5.993 13.88-13.576 14.234a.432.432 0 0 1-.04-.863c7.122-.332 12.752-6.214 12.752-13.371 0-.14-.002-.28-.006-.418a.432.432 0 0 1 .418-.445z"/></g><g><path fill="#34ce44" d="M11.66 3.886a3.455 3.455 0 0 1 3.454 3.455.432.432 0 0 1-.864 0 2.59 2.59 0 0 0-2.59-2.591.432.432 0 0 1 0-.864z"/></g></g></g></g></svg>