<svg xmlns="http://www.w3.org/2000/svg" width="19" height="19" viewBox="0 0 19 19"><g><g><g><g><g><path fill="#34ce44" d="M9.932 5.75a1.511 1.511 0 1 1 0 3.023 1.511 1.511 0 0 1 0-3.023zm0-.864a2.375 2.375 0 1 0 0 4.75 2.375 2.375 0 0 0 0-4.75z"/></g><g><path fill="#fff" d="M9.932 11.364a6.045 6.045 0 0 1 6.045 6.045.432.432 0 0 1-.863 0 5.182 5.182 0 0 0-10.364 0 .432.432 0 0 1-.864 0 6.045 6.045 0 0 1 6.046-6.045z"/></g></g><g><path fill="#fff" d="M9.932 1.432a8.636 8.636 0 1 1 0 17.273 8.636 8.636 0 0 1 0-17.273zm0-.864a9.5 9.5 0 1 0 0 19 9.5 9.5 0 0 0 0-19z"/></g></g></g></g></svg>