<svg xmlns="http://www.w3.org/2000/svg" width="15" height="13" viewBox="0 0 15 13"><defs><linearGradient id="wbn0a" x1="7.5" x2="7.5" y1="0" y2="13" gradientUnits="userSpaceOnUse"><stop offset="0" stop-color="#ff6268"/><stop offset="1" stop-color="#ff1818"/></linearGradient></defs><g><g><path fill="url(#wbn0a)" d="M10.677 0C9.355 0 8.308.623 7.505 1.646 6.692.623 5.654 0 4.332 0 1.946 0 0 1.984 0 4.43c0 1.46.698 2.483 1.255 3.303 1.613 2.394 5.512 4.964 5.683 5.09a.915.915 0 0 0 .558.177.98.98 0 0 0 .557-.178c.169-.125 4.068-2.705 5.692-5.09C14.302 6.916 15 5.892 15 4.432 14.998 1.99 13.054 0 10.677 0z"/></g></g></svg>