<svg xmlns="http://www.w3.org/2000/svg" width="28" height="28" viewBox="0 0 28 28"><g><g><g><path fill="#fff" d="M10 1.25h8A8.75 8.75 0 0 1 26.75 10v8A8.75 8.75 0 0 1 18 26.75h-8A8.75 8.75 0 0 1 1.25 18v-8A8.75 8.75 0 0 1 10 1.25zm8-.5h-8A9.25 9.25 0 0 0 .75 10v8A9.25 9.25 0 0 0 10 27.25h8A9.25 9.25 0 0 0 27.25 18v-8A9.25 9.25 0 0 0 18 .75z"/></g><g><path fill="#039be5" d="M7.552 13.254l.075-.034 11.61-4.6c.166-.065.223-.029.167.296l-1.747 9.955c-.06.28-.298.366-.589.196l-2.913-2.246-.078-.049a.5.5 0 0 0-.58.093l-1.174 1.177v-2.545a.5.5 0 0 0-.338-.473l-4.381-1.488c-.232-.076-.262-.175-.052-.282zm11.32-5.565L7.258 12.291l-.135.06c-1.04.525-.908 1.785.164 2.134l4.035 1.37v3.102a.5.5 0 0 0 .5.5l.136-.005c.298-.024.493-.132.721-.351l1.213-1.22 2.618 2.014c.904.534 1.911.165 2.127-.832l1.728-9.854c.233-1.138-.52-1.9-1.495-1.52z"/></g></g></g></svg>