<svg xmlns="http://www.w3.org/2000/svg" width="28" height="28" viewBox="0 0 28 28"><g><g><g><g><path fill="none" stroke="#03a9f4" stroke-linejoin="round" stroke-miterlimit="20" d="M21.579 9.16c-.576.339-1.502.339-2.12.092-2.057-2.17-5.74-.25-5.068 2.68a8.441 8.441 0 0 1-6.123-3.076 2.923 2.923 0 0 0 .913 3.93 2.96 2.96 0 0 1-1.342-.362 2.96 2.96 0 0 0 2.38 2.922 3.162 3.162 0 0 1-1.34.046 2.995 2.995 0 0 0 2.775 2.049 6.034 6.034 0 0 1-4.394 1.214 8.426 8.426 0 0 0 4.556 1.32c5.237 0 8.658-4.325 8.443-8.748.589-.414 1.099-1.378 1.32-2.067z"/></g></g><g><path fill="none" stroke="#fff" stroke-linecap="round" stroke-linejoin="round" stroke-miterlimit="20" stroke-width=".5" d="M1 10a9 9 0 0 1 9-9h8a9 9 0 0 1 9 9v8a9 9 0 0 1-9 9h-8a9 9 0 0 1-9-9z"/></g></g></g></svg>