<svg xmlns="http://www.w3.org/2000/svg" width="28" height="31" viewBox="0 0 28 31"><g><g><g><path fill="#c544fd" d="M8.999 8.312l.06-.007.18.276.386.58.428.624.47.67.512.716.273.376-1.488 1.255-.131.172-.092.21a4.259 4.259 0 0 0-.316 1.22l-.004.063-.151-.22c-.74-1.094-1.278-2.23-1.565-3.322C7.133 9.292 7.564 8.5 9 8.312zm7.274 8.224l3.26 2.137-.015.05c-.42 1.339-1.175 1.785-2.39 1.484l-.32-.1a14.057 14.057 0 0 1-3.307-1.605l-.189-.126.026-.002c.472-.048.962-.189 1.468-.422l.143-.1zM9.29 7.28c-2.357.143-3.316 1.54-2.696 3.894 1.057 4.02 5.182 8.483 10.276 9.996 1.927.477 3.22-.454 3.737-2.6a.5.5 0 0 0-.212-.536l-3.911-2.557-.077-.041a.5.5 0 0 0-.549.104l-1.548 1.536.078-.033c-1.295.594-2.347.433-3.27-.486l-.14-.146c-.755-.832-.906-1.749-.463-2.831l.041-.095 1.76-1.479a.5.5 0 0 0 .08-.68l-.804-1.106-.484-.682-.443-.636-.4-.59-.359-.545-.163-.256a.5.5 0 0 0-.453-.231z"/></g><g><g><path fill="#c544fd" d="M15.1 6.67a5.528 5.528 0 0 1 5.528 5.528.5.5 0 0 1-1 0c0-2.5-2.027-4.528-4.528-4.528a.5.5 0 0 1 0-1z"/></g><g><path fill="#c544fd" d="M14.74 9.54a3.014 3.014 0 0 1 3.014 3.014.5.5 0 0 1-1 0 2.014 2.014 0 0 0-2.014-2.014.5.5 0 0 1 0-1z"/></g></g><g><path fill="#fff" d="M17.714.75c5.176 0 9.388 4.123 9.532 9.264l.004.272v7.428c0 5.176-4.123 9.388-9.264 9.532l-.272.004h-5.992a.25.25 0 0 1-.057-.493l.057-.007h5.992a9.036 9.036 0 0 0 9.032-8.77l.004-.266v-7.428a9.036 9.036 0 0 0-8.77-9.032l-.266-.004h-7.428a9.036 9.036 0 0 0-9.032 8.77l-.004.266v7.428a9.04 9.04 0 0 0 6.312 8.618.25.25 0 1 1-.15.477A9.54 9.54 0 0 1 .754 18l-.004-.285v-7.428C.75 5.11 4.873.898 10.014.754l.272-.004z"/></g><g><path fill="#fff" d="M7.46 26.29a.25.25 0 0 1 .243.193l.007.057v2.973l4.073-2.717a.25.25 0 0 1 .302.02l.045.05a.25.25 0 0 1-.02.302l-.05.044L7.6 30.188a.25.25 0 0 1-.381-.144l-.008-.064v-3.44a.25.25 0 0 1 .25-.25z"/></g></g></g></svg>