<svg xmlns="http://www.w3.org/2000/svg" width="28" height="28" viewBox="0 0 28 28"><g><g><g><g><path fill="#8bb2df" d="M13.978 9.54a.5.5 0 0 1 .492.41l.008.09v8.448a.5.5 0 0 1-.75.433c-3.295-1.893-5.444-4.823-6.433-8.759a.5.5 0 0 1 .97-.244c.825 3.284 2.494 5.79 5.017 7.54l.195.131V10.04a.5.5 0 0 1 .41-.492z"/></g><g><path fill="#8bb2df" d="M20.001 9.556a.5.5 0 0 1 .358.61c-.677 2.596-2.147 4.296-4.37 5.063l-.032.01.158.063a11.976 11.976 0 0 1 3.818 2.533l.303.307a.5.5 0 0 1-.722.692 11.04 11.04 0 0 0-5.645-3.198c-.552-.126-.503-.929.061-.985 2.914-.292 4.707-1.845 5.461-4.737a.5.5 0 0 1 .521-.373z"/></g></g><g><path fill="#fff" d="M10 1.25h8A8.75 8.75 0 0 1 26.75 10v8A8.75 8.75 0 0 1 18 26.75h-8A8.75 8.75 0 0 1 1.25 18v-8A8.75 8.75 0 0 1 10 1.25zm8-.5h-8A9.25 9.25 0 0 0 .75 10v8A9.25 9.25 0 0 0 10 27.25h8A9.25 9.25 0 0 0 27.25 18v-8A9.25 9.25 0 0 0 18 .75z"/></g></g></g></svg>