<svg xmlns="http://www.w3.org/2000/svg" width="97" height="97" viewBox="0 0 97 97"><defs><linearGradient id="x5fua" x1="61.43" x2="61.43" y1="101.51" y2="-30.63" gradientUnits="userSpaceOnUse"><stop offset="0" stop-color="#ffd79d"/><stop offset="1" stop-color="#ffe8bc"/></linearGradient></defs><g><g><g><path fill="#ffa065" d="M13.617 9.011V1.22s-10.022-.08-10.91-.08C1.819 1.14.98 1.7 1 2.829 1.021 3.958 1 9.01 1 9.01z"/><path fill="none" stroke="#f59357" stroke-miterlimit="20" d="M13.617 9.011v0V1.22v0s-10.022-.08-10.91-.08C1.819 1.14.98 1.7 1 2.829 1.021 3.958 1 9.01 1 9.01v0z"/></g><g transform="rotate(270 91.5 89.5)"><path fill="#ffa065" d="M97.577 85.42v8.008s-10.022.08-10.91.08c-.888 0-1.727-.56-1.707-1.689.021-1.129 0-6.399 0-6.399z"/><path fill="none" stroke="#f59357" stroke-miterlimit="20" d="M97.577 85.42v8.008s-10.022.08-10.91.08c-.888 0-1.727-.56-1.707-1.689.021-1.129 0-6.399 0-6.399v0z"/></g><g transform="rotate(-45 49.5 48)"><path fill="url(#x5fua)" d="M43.88-29.424a.5.5 0 0 1 .854-.35L77.807 3.565a6 6 0 0 1 1.74 4.22l.05 54.904a6 6 0 0 1-1.758 4.248l-33.71 33.71a.5.5 0 0 1-.853-.356z"/><path fill="none" stroke="#ffb472" stroke-miterlimit="20" d="M43.88-29.424a.5.5 0 0 1 .854-.35L77.807 3.565a6 6 0 0 1 1.74 4.22l.05 54.904a6 6 0 0 1-1.758 4.248l-33.71 33.71a.5.5 0 0 1-.853-.356z"/></g><g transform="rotate(45 61 35.5)"><path fill="#de4e01" d="M84.898 38.78c.304-.117.557-.273.76-.466.264-.267.397-.513.397-.737v-.855a4.357 4.357 0 0 0-1.675-.338c-.561 0-1.018.122-1.371.365-.354.243-.53.56-.53.953 0 .34.135.634.405.882.27.249.63.373 1.083.373.317 0 .627-.059.93-.177zm-3.622.98c-.552-.5-.828-1.128-.828-1.883 0-.813.333-1.47 1-1.973.666-.503 1.533-.754 2.601-.754.802 0 1.474.112 2.016.336v-.445c0-.537-.158-.948-.473-1.235-.315-.286-.783-.43-1.402-.43-.448 0-.875.077-1.282.231a6.793 6.793 0 0 0-1.335.715l-.696-1.406c1.12-.73 2.3-1.094 3.54-1.094 1.197 0 2.128.3 2.792.898.664.6.996 1.453.996 2.563v2.672c0 .229.04.392.118.488.078.096.21.152.398.168v1.742c-.36.073-.664.11-.914.11-.412 0-.73-.09-.957-.27a1.134 1.134 0 0 1-.418-.723l-.047-.43c-.36.464-.811.825-1.355 1.083-.545.257-1.1.386-1.668.386-.839 0-1.534-.25-2.086-.75zm-6.258.593v-6.516h-2.656V31.97h7.468v1.867h-2.672v6.516zm-6.034-6.765h-1.502c-.379 0-.681.105-.907.315-.226.21-.338.486-.338.828 0 .348.102.631.307.852.205.22.492.33.86.33h1.58zm-5.318 6.765l2.125-3.266c-.515-.145-.916-.421-1.203-.828-.286-.406-.43-.935-.43-1.586 0-.817.278-1.477.832-1.98.555-.503 1.275-.754 2.16-.754h3.985v8.414h-2.14v-2.898h-1.141l-1.836 2.898zm-9.195 0V31.97h2.14v3.196h3.399V31.97h2.14v8.383h-2.14v-3.39h-3.398v3.39zm-5.3-1.573c.304-.117.558-.273.76-.466.267-.267.4-.513.4-.737v-.855a4.38 4.38 0 0 0-1.68-.338c-.563 0-1.021.122-1.375.365-.355.243-.532.56-.532.953 0 .34.136.634.407.882.27.249.632.373 1.086.373.317 0 .628-.059.933-.177zm-3.629.98c-.552-.5-.829-1.128-.829-1.883 0-.813.334-1.47 1.001-1.973.668-.503 1.536-.754 2.605-.754.803 0 1.476.112 2.018.336v-.445c0-.537-.158-.948-.473-1.235-.316-.286-.784-.43-1.404-.43a3.6 3.6 0 0 0-1.283.231 6.804 6.804 0 0 0-1.338.715l-.696-1.406c1.121-.73 2.303-1.094 3.544-1.094 1.2 0 2.131.3 2.796.898.665.6.997 1.453.997 2.563v2.672c0 .229.04.392.118.488.078.096.21.152.399.168v1.742c-.36.073-.665.11-.916.11-.412 0-.73-.09-.958-.27a1.133 1.133 0 0 1-.418-.723l-.047-.43c-.36.464-.812.825-1.357 1.083a3.866 3.866 0 0 1-1.67.386c-.84 0-1.536-.25-2.089-.75zm-8.544.144a4.226 4.226 0 0 1-1.738-1.567l1.648-1.023c.271.422.623.749 1.055.98.432.232.927.348 1.484.348.657 0 1.16-.147 1.512-.441.352-.294.528-.692.528-1.192 0-.49-.167-.879-.5-1.168-.334-.289-.818-.433-1.454-.433h-1.359v-1.68h1.375c.505 0 .898-.13 1.18-.39.281-.26.422-.605.422-1.032 0-.437-.154-.786-.461-1.047-.308-.26-.753-.39-1.336-.39-.568 0-1.06.11-1.477.332-.416.221-.74.525-.969.91l-1.586-1.117c.959-1.396 2.334-2.094 4.125-2.094 1.188 0 2.123.27 2.805.809.682.539 1.024 1.293 1.024 2.261 0 .547-.132 1.045-.395 1.493-.263.447-.655.786-1.176 1.015.625.188 1.115.527 1.47 1.02.353.492.53 1.066.53 1.722 0 .683-.183 1.271-.55 1.766-.368.495-.865.865-1.493 1.11-.627.244-1.347.367-2.16.367-.927 0-1.762-.187-2.504-.56z"/></g></g></g></svg>