<svg xmlns="http://www.w3.org/2000/svg" width="297" height="239" viewBox="0 0 297 239"><defs><linearGradient id="5bh8b" x1="199.64" x2="202" y1="188.33" y2="29.67" gradientUnits="userSpaceOnUse"><stop offset="0" stop-color="#ecebf2"/><stop offset="1" stop-color="#d3d1da"/></linearGradient><filter id="5bh8a" width="148%" height="148%" x="-14%" y="-14%" filterUnits="objectBoundingBox"><feGaussianBlur in="SourceGraphic" result="FeGaussianBlur2200Out" stdDeviation="3 3"/></filter><linearGradient id="5bh8c" x1="217.25" x2="173.22" y1="177.47" y2="45.13" gradientUnits="userSpaceOnUse"><stop offset="0" stop-color="#5e677a"/><stop offset="1" stop-color="#404658"/></linearGradient><filter id="5bh8d" width="200%" height="200%" x="-50%" y="-50%"><feGaussianBlur in="SourceGraphic" result="FeGaussianBlur2214Out" stdDeviation="18.5 18.5"/></filter><mask id="5bh8e"><path fill="#fff" d="M201.615 181.23c40.105 0 72.616-32.51 72.616-72.615C274.23 68.511 241.72 36 201.615 36 161.511 36 129 68.511 129 108.615c0 40.105 32.511 72.616 72.615 72.616z"/></mask><clipPath id="5bh8f"><path fill="#fff" d="M201.615 181.23c40.105 0 72.616-32.51 72.616-72.615C274.23 68.511 241.72 36 201.615 36 161.511 36 129 68.511 129 108.615c0 40.105 32.511 72.616 72.615 72.616z"/></clipPath><clipPath id="5bh8g"><path fill="#fff" d="M128 183V35h148v148zm73.615-1.77c40.105 0 72.616-32.51 72.616-72.615C274.23 68.511 241.72 36 201.615 36 161.511 36 129 68.511 129 108.615c0 40.105 32.511 72.616 72.615 72.616z"/></clipPath><mask id="5bh8i" width="2" height="2" x="-1" y="-1"><path fill="#fff" d="M200 64h5v5h-5z"/><path d="M202.321 68.232a1.771 1.771 0 1 0 0-3.542 1.771 1.771 0 0 0 0 3.542z"/></mask><filter id="5bh8h" width="27" height="28" x="189" y="53" filterUnits="userSpaceOnUse"><feOffset dy="1" in="SourceGraphic" result="FeOffset2235Out"/><feGaussianBlur in="FeOffset2235Out" result="FeGaussianBlur2236Out" stdDeviation="0.4 0.4"/></filter><mask id="5bh8k" width="2" height="2" x="-1" y="-1"><path fill="#fff" d="M212 64h4v5h-4z"/><path d="M214.011 68.232a1.771 1.771 0 1 0 0-3.542 1.771 1.771 0 0 0 0 3.542z"/></mask><filter id="5bh8j" width="26" height="28" x="201" y="53" filterUnits="userSpaceOnUse"><feOffset dy="1" in="SourceGraphic" result="FeOffset2251Out"/><feGaussianBlur in="FeOffset2251Out" result="FeGaussianBlur2252Out" stdDeviation="0.4 0.4"/></filter><mask id="5bh8m" width="2" height="2" x="-1" y="-1"><path fill="#fff" d="M188 64h5v5h-5z"/><path d="M190.281 68.232a1.771 1.771 0 1 0 0-3.542 1.771 1.771 0 0 0 0 3.542z"/></mask><filter id="5bh8l" width="27" height="28" x="177" y="53" filterUnits="userSpaceOnUse"><feOffset dy="1" in="SourceGraphic" result="FeOffset2267Out"/><feGaussianBlur in="FeOffset2267Out" result="FeGaussianBlur2268Out" stdDeviation="0.4 0.4"/></filter><mask id="5bh8o" width="2" height="2" x="-1" y="-1"><path fill="#fff" d="M206 55h4v4h-4z"/><path d="M207.991 58.672a1.771 1.771 0 1 0 0-3.542 1.771 1.771 0 0 0 0 3.542z"/></mask><filter id="5bh8n" width="26" height="27" x="195" y="44" filterUnits="userSpaceOnUse"><feOffset dy="1" in="SourceGraphic" result="FeOffset2283Out"/><feGaussianBlur in="FeOffset2283Out" result="FeGaussianBlur2284Out" stdDeviation="0.4 0.4"/></filter><mask id="5bh8q" width="2" height="2" x="-1" y="-1"><path fill="#fff" d="M217 55h4v4h-4z"/><path d="M218.971 58.672a1.771 1.771 0 1 0 0-3.542 1.771 1.771 0 0 0 0 3.542z"/></mask><filter id="5bh8p" width="26" height="27" x="206" y="44" filterUnits="userSpaceOnUse"><feOffset dy="1" in="SourceGraphic" result="FeOffset2299Out"/><feGaussianBlur in="FeOffset2299Out" result="FeGaussianBlur2300Out" stdDeviation="0.4 0.4"/></filter><mask id="5bh8s" width="2" height="2" x="-1" y="-1"><path fill="#fff" d="M195 55h5v4h-5z"/><path d="M197.361 58.672a1.771 1.771 0 1 0 0-3.542 1.771 1.771 0 0 0 0 3.542z"/></mask><filter id="5bh8r" width="27" height="27" x="184" y="44" filterUnits="userSpaceOnUse"><feOffset dy="1" in="SourceGraphic" result="FeOffset2315Out"/><feGaussianBlur in="FeOffset2315Out" result="FeGaussianBlur2316Out" stdDeviation="0.4 0.4"/></filter><mask id="5bh8u" width="2" height="2" x="-1" y="-1"><path fill="#fff" d="M184 55h5v4h-5z"/><path d="M186.361 58.672a1.771 1.771 0 1 0 0-3.542 1.771 1.771 0 0 0 0 3.542z"/></mask><filter id="5bh8t" width="27" height="27" x="173" y="44" filterUnits="userSpaceOnUse"><feOffset dy="1" in="SourceGraphic" result="FeOffset2331Out"/><feGaussianBlur in="FeOffset2331Out" result="FeGaussianBlur2332Out" stdDeviation="0.4 0.4"/></filter><mask id="5bh8w" width="2" height="2" x="-1" y="-1"><path fill="#fff" d="M187 94h30v30h-30z"/><path d="M201.796 123.142c7.923 0 14.346-6.423 14.346-14.346s-6.423-14.346-14.346-14.346-14.346 6.423-14.346 14.346 6.423 14.346 14.346 14.346z"/></mask><filter id="5bh8v" width="56" height="58" x="174" y="81" filterUnits="userSpaceOnUse"><feOffset dy="2" in="SourceGraphic" result="FeOffset2347Out"/><feGaussianBlur in="FeOffset2347Out" result="FeGaussianBlur2348Out" stdDeviation="1.2 1.2"/></filter><mask id="5bh8x"><path fill="#fff" d="M201.796 123.142c7.923 0 14.346-6.423 14.346-14.346s-6.423-14.346-14.346-14.346-14.346 6.423-14.346 14.346 6.423 14.346 14.346 14.346z"/></mask><filter id="5bh8y" width="200%" height="200%" x="-50%" y="-50%"><feGaussianBlur in="SourceGraphic" result="FeGaussianBlur2716Out" stdDeviation="1 1"/></filter><mask id="5bh8z"><path fill="#fff" d="M201.796 123.142c7.923 0 14.346-6.423 14.346-14.346s-6.423-14.346-14.346-14.346-14.346 6.423-14.346 14.346 6.423 14.346 14.346 14.346z"/></mask><mask id="5bh8B" width="2" height="2" x="-1" y="-1"><path fill="#fff" d="M205 75h65v106h-65z"/><path d="M269.578 85.158s-45.84 28.248-53.692 93.41l-10.58 1.545s-6.368-69.949 53.343-101.317l6.579-3.256z"/></mask><filter id="5bh8A" width="89" height="132" x="193" y="63" filterUnits="userSpaceOnUse"><feOffset dy="2" in="SourceGraphic" result="FeOffset2733Out"/><feGaussianBlur in="FeOffset2733Out" result="FeGaussianBlur2734Out" stdDeviation="0.8 0.8"/></filter><linearGradient id="5bh8C" x1="205.11" x2="262.05" y1="75.54" y2="180.11" gradientUnits="userSpaceOnUse"><stop offset="0" stop-color="#bbc1cf" stop-opacity=".3"/><stop offset=".53" stop-color="#dbdbec"/><stop offset="1" stop-color="#bbc1cf" stop-opacity=".25"/></linearGradient><mask id="5bh8E" width="2" height="2" x="-1" y="-1"><path fill="#fff" d="M133 75h65v106h-65z"/><path d="M133.15 85.158s45.84 28.248 53.692 93.41l10.58 1.545s6.368-69.949-53.343-101.317l-6.578-3.256z"/></mask><filter id="5bh8D" width="89" height="132" x="121" y="63" filterUnits="userSpaceOnUse"><feOffset dy="2" in="SourceGraphic" result="FeOffset2753Out"/><feGaussianBlur in="FeOffset2753Out" result="FeGaussianBlur2754Out" stdDeviation="0.8 0.8"/></filter><linearGradient id="5bh8F" x1="133.15" x2="190.09" y1="75.54" y2="180.11" gradientUnits="userSpaceOnUse"><stop offset="0" stop-color="#bbc1cf" stop-opacity=".3"/><stop offset=".53" stop-color="#dbdbec"/><stop offset="1" stop-color="#bbc1cf" stop-opacity=".25"/></linearGradient><mask id="5bh8H" width="2" height="2" x="-1" y="-1"><path fill="#fff" d="M141 61h121v28H141z"/><path d="M170.15 25.158s45.84 28.248 53.692 93.41l10.58 1.545s6.368-69.949-53.343-101.317l-6.578-3.256z"/></mask><filter id="5bh8G" width="145" height="53" x="129" y="49" filterUnits="userSpaceOnUse"><feOffset dy="1" in="SourceGraphic" result="FeOffset2773Out"/><feGaussianBlur in="FeOffset2773Out" result="FeGaussianBlur2774Out" stdDeviation="0.8 0.8"/></filter><linearGradient id="5bh8I" x1="174.03" x2="232.85" y1="15.54" y2="120.11" gradientUnits="userSpaceOnUse"><stop offset="0" stop-color="#bbc1cf" stop-opacity=".3"/><stop offset=".5" stop-color="#dddef1"/><stop offset="1" stop-color="#bbc1cf" stop-opacity=".25"/></linearGradient><mask id="5bh8K" width="2" height="2" x="-1" y="-1"><path fill="#fff" d="M162 131h4v4h-4z"/><path d="M164.213 134.895a1.783 1.783 0 1 0 0-3.565 1.783 1.783 0 0 0 0 3.565z"/></mask><filter id="5bh8J" width="26" height="27" x="151" y="120" filterUnits="userSpaceOnUse"><feOffset dy="1" in="SourceGraphic" result="FeOffset2795Out"/><feGaussianBlur in="FeOffset2795Out" result="FeGaussianBlur2796Out" stdDeviation="0.4 0.4"/></filter><mask id="5bh8M" width="2" height="2" x="-1" y="-1"><path fill="#fff" d="M168 139h4v5h-4z"/><path d="M170.163 143.215a1.783 1.783 0 1 0 0-3.565 1.783 1.783 0 0 0 0 3.565z"/></mask><filter id="5bh8L" width="26" height="28" x="157" y="128" filterUnits="userSpaceOnUse"><feOffset dy="1" in="SourceGraphic" result="FeOffset2811Out"/><feGaussianBlur in="FeOffset2811Out" result="FeGaussianBlur2812Out" stdDeviation="0.4 0.4"/></filter><mask id="5bh8O" width="2" height="2" x="-1" y="-1"><path fill="#fff" d="M174 148h4v4h-4z"/><path d="M176.103 151.535a1.783 1.783 0 1 0 0-3.565 1.783 1.783 0 0 0 0 3.565z"/></mask><filter id="5bh8N" width="26" height="27" x="163" y="137" filterUnits="userSpaceOnUse"><feOffset dy="1" in="SourceGraphic" result="FeOffset2827Out"/><feGaussianBlur in="FeOffset2827Out" result="FeGaussianBlur2828Out" stdDeviation="0.4 0.4"/></filter><mask id="5bh8Q" width="2" height="2" x="-1" y="-1"><path fill="#fff" d="M158 140h5v5h-5z"/><path d="M160.653 144.405a1.783 1.783 0 1 0 0-3.565 1.783 1.783 0 0 0 0 3.565z"/></mask><filter id="5bh8P" width="27" height="28" x="147" y="129" filterUnits="userSpaceOnUse"><feOffset dy="1" in="SourceGraphic" result="FeOffset2843Out"/><feGaussianBlur in="FeOffset2843Out" result="FeGaussianBlur2844Out" stdDeviation="0.4 0.4"/></filter><mask id="5bh8S" width="2" height="2" x="-1" y="-1"><path fill="#fff" d="M152 132h5v5h-5z"/><path d="M154.713 136.085a1.783 1.783 0 1 0 0-3.565 1.783 1.783 0 0 0 0 3.565z"/></mask><filter id="5bh8R" width="27" height="28" x="141" y="121" filterUnits="userSpaceOnUse"><feOffset dy="1" in="SourceGraphic" result="FeOffset2859Out"/><feGaussianBlur in="FeOffset2859Out" result="FeGaussianBlur2860Out" stdDeviation="0.4 0.4"/></filter><mask id="5bh8U" width="2" height="2" x="-1" y="-1"><path fill="#fff" d="M148 140h4v5h-4z"/><path d="M149.953 144.405a1.783 1.783 0 1 0 0-3.565 1.783 1.783 0 0 0 0 3.565z"/></mask><filter id="5bh8T" width="26" height="28" x="137" y="129" filterUnits="userSpaceOnUse"><feOffset dy="1" in="SourceGraphic" result="FeOffset2875Out"/><feGaussianBlur in="FeOffset2875Out" result="FeGaussianBlur2876Out" stdDeviation="0.4 0.4"/></filter><mask id="5bh8W" width="2" height="2" x="-1" y="-1"><path fill="#fff" d="M141 131h4v4h-4z"/><path d="M142.823 134.895a1.783 1.783 0 1 0 0-3.565 1.783 1.783 0 0 0 0 3.565z"/></mask><filter id="5bh8V" width="26" height="27" x="130" y="120" filterUnits="userSpaceOnUse"><feOffset dy="1" in="SourceGraphic" result="FeOffset2891Out"/><feGaussianBlur in="FeOffset2891Out" result="FeGaussianBlur2892Out" stdDeviation="0.4 0.4"/></filter><mask id="5bh8Y" width="2" height="2" x="-1" y="-1"><path fill="#fff" d="M154 150h4v4h-4z"/><path d="M155.903 153.905a1.783 1.783 0 1 0 0-3.565 1.783 1.783 0 0 0 0 3.565z"/></mask><filter id="5bh8X" width="26" height="27" x="143" y="139" filterUnits="userSpaceOnUse"><feOffset dy="1" in="SourceGraphic" result="FeOffset2907Out"/><feGaussianBlur in="FeOffset2907Out" result="FeGaussianBlur2908Out" stdDeviation="0.4 0.4"/></filter><mask id="5bh8aa" width="2" height="2" x="-1" y="-1"><path fill="#fff" d="M147 124h4v4h-4z"/><path d="M148.773 127.765a1.783 1.783 0 1 0 0-3.565 1.783 1.783 0 0 0 0 3.565z"/></mask><filter id="5bh8Z" width="26" height="27" x="136" y="113" filterUnits="userSpaceOnUse"><feOffset dy="1" in="SourceGraphic" result="FeOffset2923Out"/><feGaussianBlur in="FeOffset2923Out" result="FeGaussianBlur2924Out" stdDeviation="0.4 0.4"/></filter><mask id="5bh8ac" width="2" height="2" x="-1" y="-1"><path fill="#fff" d="M164 149h5v4h-5z"/><path d="M166.593 152.725a1.783 1.783 0 1 0 0-3.565 1.783 1.783 0 0 0 0 3.565z"/></mask><filter id="5bh8ab" width="27" height="27" x="153" y="138" filterUnits="userSpaceOnUse"><feOffset dy="1" in="SourceGraphic" result="FeOffset2939Out"/><feGaussianBlur in="FeOffset2939Out" result="FeGaussianBlur2940Out" stdDeviation="0.4 0.4"/></filter><mask id="5bh8ae" width="2" height="2" x="-1" y="-1"><path fill="#fff" d="M170 157h5v4h-5z"/><path d="M172.533 161.035a1.783 1.783 0 1 0 0-3.565 1.783 1.783 0 0 0 0 3.565z"/></mask><filter id="5bh8ad" width="27" height="27" x="159" y="146" filterUnits="userSpaceOnUse"><feOffset dy="1" in="SourceGraphic" result="FeOffset2955Out"/><feGaussianBlur in="FeOffset2955Out" result="FeGaussianBlur2956Out" stdDeviation="0.4 0.4"/></filter><mask id="5bh8ag" width="2" height="2" x="-1" y="-1"><path fill="#fff" d="M237 131h5v4h-5z"/><path d="M248.363 134.895a1.783 1.783 0 1 0 0-3.565 1.783 1.783 0 0 0 0 3.565z"/></mask><filter id="5bh8af" width="27" height="27" x="226" y="120" filterUnits="userSpaceOnUse"><feOffset dy="1" in="SourceGraphic" result="FeOffset2973Out"/><feGaussianBlur in="FeOffset2973Out" result="FeGaussianBlur2974Out" stdDeviation="0.4 0.4"/></filter><mask id="5bh8ai" width="2" height="2" x="-1" y="-1"><path fill="#fff" d="M231 139h5v5h-5z"/><path d="M254.303 143.215a1.783 1.783 0 1 0 0-3.565 1.783 1.783 0 0 0 0 3.565z"/></mask><filter id="5bh8ah" width="27" height="28" x="220" y="128" filterUnits="userSpaceOnUse"><feOffset dy="1" in="SourceGraphic" result="FeOffset2989Out"/><feGaussianBlur in="FeOffset2989Out" result="FeGaussianBlur2990Out" stdDeviation="0.4 0.4"/></filter><mask id="5bh8ak" width="2" height="2" x="-1" y="-1"><path fill="#fff" d="M226 148h4v4h-4z"/><path d="M260.243 151.535a1.783 1.783 0 1 0 0-3.565 1.783 1.783 0 0 0 0 3.565z"/></mask><filter id="5bh8aj" width="26" height="27" x="215" y="137" filterUnits="userSpaceOnUse"><feOffset dy="1" in="SourceGraphic" result="FeOffset3005Out"/><feGaussianBlur in="FeOffset3005Out" result="FeGaussianBlur3006Out" stdDeviation="0.4 0.4"/></filter><mask id="5bh8am" width="2" height="2" x="-1" y="-1"><path fill="#fff" d="M241 140h4v5h-4z"/><path d="M244.793 144.405a1.783 1.783 0 1 0 0-3.565 1.783 1.783 0 0 0 0 3.565z"/></mask><filter id="5bh8al" width="26" height="28" x="230" y="129" filterUnits="userSpaceOnUse"><feOffset dy="1" in="SourceGraphic" result="FeOffset3021Out"/><feGaussianBlur in="FeOffset3021Out" result="FeGaussianBlur3022Out" stdDeviation="0.4 0.4"/></filter><mask id="5bh8ao" width="2" height="2" x="-1" y="-1"><path fill="#fff" d="M247 132h4v5h-4z"/><path d="M238.853 136.085a1.783 1.783 0 1 0 0-3.565 1.783 1.783 0 0 0 0 3.565z"/></mask><filter id="5bh8an" width="26" height="28" x="236" y="121" filterUnits="userSpaceOnUse"><feOffset dy="1" in="SourceGraphic" result="FeOffset3037Out"/><feGaussianBlur in="FeOffset3037Out" result="FeGaussianBlur3038Out" stdDeviation="0.4 0.4"/></filter><mask id="5bh8aq" width="2" height="2" x="-1" y="-1"><path fill="#fff" d="M252 140h4v5h-4z"/><path d="M234.103 144.405a1.783 1.783 0 1 0 0-3.565 1.783 1.783 0 0 0 0 3.565z"/></mask><filter id="5bh8ap" width="26" height="28" x="241" y="129" filterUnits="userSpaceOnUse"><feOffset dy="1" in="SourceGraphic" result="FeOffset3053Out"/><feGaussianBlur in="FeOffset3053Out" result="FeGaussianBlur3054Out" stdDeviation="0.4 0.4"/></filter><mask id="5bh8as" width="2" height="2" x="-1" y="-1"><path fill="#fff" d="M259 131h4v4h-4z"/><path d="M226.973 134.895a1.783 1.783 0 1 0 0-3.565 1.783 1.783 0 0 0 0 3.565z"/></mask><filter id="5bh8ar" width="26" height="27" x="248" y="120" filterUnits="userSpaceOnUse"><feOffset dy="1" in="SourceGraphic" result="FeOffset3069Out"/><feGaussianBlur in="FeOffset3069Out" result="FeGaussianBlur3070Out" stdDeviation="0.4 0.4"/></filter><mask id="5bh8au" width="2" height="2" x="-1" y="-1"><path fill="#fff" d="M246 150h4v4h-4z"/><path d="M240.043 153.905a1.783 1.783 0 1 0 0-3.565 1.783 1.783 0 0 0 0 3.565z"/></mask><filter id="5bh8at" width="26" height="27" x="235" y="139" filterUnits="userSpaceOnUse"><feOffset dy="1" in="SourceGraphic" result="FeOffset3085Out"/><feGaussianBlur in="FeOffset3085Out" result="FeGaussianBlur3086Out" stdDeviation="0.4 0.4"/></filter><mask id="5bh8aw" width="2" height="2" x="-1" y="-1"><path fill="#fff" d="M253 124h4v4h-4z"/><path d="M232.913 127.765a1.783 1.783 0 1 0 0-3.565 1.783 1.783 0 0 0 0 3.565z"/></mask><filter id="5bh8av" width="26" height="27" x="242" y="113" filterUnits="userSpaceOnUse"><feOffset dy="1" in="SourceGraphic" result="FeOffset3101Out"/><feGaussianBlur in="FeOffset3101Out" result="FeGaussianBlur3102Out" stdDeviation="0.4 0.4"/></filter><mask id="5bh8ay" width="2" height="2" x="-1" y="-1"><path fill="#fff" d="M235 149h4v4h-4z"/><path d="M250.733 152.725a1.783 1.783 0 1 0 0-3.565 1.783 1.783 0 0 0 0 3.565z"/></mask><filter id="5bh8ax" width="26" height="27" x="224" y="138" filterUnits="userSpaceOnUse"><feOffset dy="1" in="SourceGraphic" result="FeOffset3117Out"/><feGaussianBlur in="FeOffset3117Out" result="FeGaussianBlur3118Out" stdDeviation="0.4 0.4"/></filter><mask id="5bh8aA" width="2" height="2" x="-1" y="-1"><path fill="#fff" d="M229 157h5v4h-5z"/><path d="M256.683 161.035a1.783 1.783 0 1 0 0-3.565 1.783 1.783 0 0 0 0 3.565z"/></mask><filter id="5bh8az" width="27" height="27" x="218" y="146" filterUnits="userSpaceOnUse"><feOffset dy="1" in="SourceGraphic" result="FeOffset3133Out"/><feGaussianBlur in="FeOffset3133Out" result="FeGaussianBlur3134Out" stdDeviation="0.4 0.4"/></filter><radialGradient id="5bh8aB" cx="202" cy="109" r="97.45" gradientUnits="userSpaceOnUse"><stop offset="0" stop-color="#c8c8c8"/><stop offset=".7" stop-color="#c1c6d9"/><stop offset=".78" stop-color="#edeff5"/><stop offset=".94" stop-color="#edf0f5"/><stop offset="1" stop-color="#d4d9e5"/><stop offset="1" stop-color="#d4d9e5"/><stop offset="1" stop-color="#d4dbe5"/></radialGradient><filter id="5bh8aC" width="200%" height="200%" x="-50%" y="-50%"><feGaussianBlur in="SourceGraphic" result="FeGaussianBlur3154Out" stdDeviation="2 2"/></filter><mask id="5bh8aD"><path fill="#fff" d="M202.327 37.002A72.003 72.003 0 0 1 274 109.328c-.181 39.764-32.562 71.852-72.325 71.673-39.764-.18-71.853-32.561-71.674-72.325.181-39.763 32.561-71.852 72.325-71.674zm.1-22c-51.915-.233-94.19 41.66-94.425 93.574-.234 51.915 41.66 94.19 93.574 94.425 51.914.235 94.19-41.659 94.425-93.573a94.005 94.005 0 0 0-93.574-94.426z"/></mask><filter id="5bh8aE" width="200%" height="200%" x="-50%" y="-50%"><feGaussianBlur in="SourceGraphic" result="FeGaussianBlur3159Out" stdDeviation="4 4"/></filter><mask id="5bh8aF"><path fill="#fff" d="M202.327 37.002A72.003 72.003 0 0 1 274 109.328c-.181 39.764-32.562 71.852-72.325 71.673-39.764-.18-71.853-32.561-71.674-72.325.181-39.763 32.561-71.852 72.325-71.674zm.1-22c-51.915-.233-94.19 41.66-94.425 93.574-.234 51.915 41.66 94.19 93.574 94.425 51.914.235 94.19-41.659 94.425-93.573a94.005 94.005 0 0 0-93.574-94.426z"/></mask><clipPath id="5bh8aG"><path fill="#fff" d="M123 188V30h158v158zm79-7c39.764 0 72-32.236 72-72s-32.236-72-72-72-72 32.236-72 72 32.236 72 72 72z"/></clipPath><linearGradient id="5bh8aH" x1="116.3" x2="119.43" y1="109.58" y2="109.58" gradientUnits="userSpaceOnUse"><stop offset="0" stop-color="#5f5c62"/><stop offset=".33" stop-color="#6b686e"/><stop offset=".75" stop-color="#4a484d"/><stop offset="1" stop-color="#504e53"/></linearGradient><linearGradient id="5bh8aI" x1="51.01" x2="51.01" y1="6.7" y2="206.04" gradientUnits="userSpaceOnUse"><stop offset="0" stop-color="#a1a6ba"/><stop offset=".15" stop-color="#cdd0db"/><stop offset=".54" stop-color="#feffff"/><stop offset=".83" stop-color="#d9dbe2"/><stop offset="1" stop-color="#a1a6ba"/></linearGradient><clipPath id="5bh8aJ"><path fill="#fff" d="M67.278 179.12c-18.51 1.001-33.518-29.765-33.518-68.785 0-39.02 15.008-71.288 33.518-72.288s33.517 29.64 33.517 68.66c0 39.021-15.007 71.288-33.517 72.414zM59.774 11.034C34.51 12.533 14 57.307 14 111.085c0 53.778 20.51 96.3 45.774 94.925 25.263-1.376 45.649-46.15 45.649-100.053s-20.51-96.3-45.649-94.924z"/></clipPath><linearGradient id="5bh8aK" x1="62.02" x2="62.02" y1="12.91" y2="204.63" gradientUnits="userSpaceOnUse"><stop offset="0" stop-color="#6a737e"/><stop offset=".02" stop-color="#818da4"/><stop offset=".17" stop-color="#7f8491"/><stop offset=".26" stop-color="#4a5971"/><stop offset=".93" stop-color="#98a1b2"/><stop offset=".96" stop-color="#6e7a8c"/><stop offset=".98" stop-color="#646c7c"/><stop offset="1" stop-color="#788293"/></linearGradient><mask id="5bh8aM" width="2" height="2" x="-1" y="-1"><path fill="#fff" d="M30 14h88v189H30z"/><path d="M69.656 179.115c-15.384 1-27.891-29.766-27.891-68.786S54.272 39.04 69.656 38.04c15.384-1 27.891 29.64 27.891 68.66 0 39.021-12.507 71.288-27.891 72.414zm46.774-50.902h-2.376s1-9.13 1-18.26-1-18.76-1-18.76h2.501c-.75-6.252-1.5-10.63-1.5-10.63l2.5-1.5c-5.377-38.646-22.386-66.035-42.522-64.91C50.395 15.53 30.51 58.802 30.51 111.08c0 52.278 19.885 93.299 44.523 91.923 19.01-1 35.394-27.514 41.647-63.658l-1.626-1s.75-4.128 1.376-10.13z"/></mask><filter id="5bh8aL" width="173" height="280" x="-15" y="-26" filterUnits="userSpaceOnUse"><feOffset dx="-5" dy="11" in="SourceGraphic" result="FeOffset3227Out"/><feGaussianBlur in="FeOffset3227Out" result="FeGaussianBlur3228Out" stdDeviation="12 12"/></filter><mask id="5bh8aO" width="2" height="2" x="-1" y="-1"><path fill="#fff" d="M30 14h88v189H30z"/><path d="M69.656 179.115c-15.384 1-27.891-29.766-27.891-68.786S54.272 39.04 69.656 38.04c15.384-1 27.891 29.64 27.891 68.66 0 39.021-12.507 71.288-27.891 72.414zm46.774-50.902h-2.376s1-9.13 1-18.26-1-18.76-1-18.76h2.501c-.75-6.252-1.5-10.63-1.5-10.63l2.5-1.5c-5.377-38.646-22.386-66.035-42.522-64.91C50.395 15.53 30.51 58.802 30.51 111.08c0 52.278 19.885 93.299 44.523 91.923 19.01-1 35.394-27.514 41.647-63.658l-1.626-1s.75-4.128 1.376-10.13z"/></mask><filter id="5bh8aN" width="113" height="214" x="18" y="2" filterUnits="userSpaceOnUse"><feOffset dx="1" dy="1" in="SourceGraphic" result="FeOffset3238Out"/><feGaussianBlur in="FeOffset3238Out" result="FeGaussianBlur3239Out" stdDeviation="0.8 0.8"/></filter><linearGradient id="5bh8aP" x1="46.32" x2="95.27" y1="30.86" y2="193.35" gradientUnits="userSpaceOnUse"><stop offset="0" stop-color="#f7f8fa"/><stop offset="1" stop-color="#e3e7f1"/></linearGradient><filter id="5bh8aQ" width="200%" height="200%" x="-50%" y="-50%"><feGaussianBlur in="SourceGraphic" result="FeGaussianBlur3247Out" stdDeviation="2 2"/></filter><mask id="5bh8aR"><path fill="#fff" d="M69.656 179.115c-15.384 1-27.891-29.766-27.891-68.786S54.272 39.04 69.656 38.04c15.384-1 27.891 29.64 27.891 68.66 0 39.021-12.507 71.288-27.891 72.414zm46.774-50.902h-2.376s1-9.13 1-18.26-1-18.76-1-18.76h2.501c-.75-6.252-1.5-10.63-1.5-10.63l2.5-1.5c-5.377-38.646-22.386-66.035-42.522-64.91C50.395 15.53 30.51 58.802 30.51 111.08c0 52.278 19.885 93.299 44.523 91.923 19.01-1 35.394-27.514 41.647-63.658l-1.626-1s.75-4.128 1.376-10.13z"/></mask><clipPath id="5bh8aS"><path fill="#fff" d="M69.656 179.115c-15.384 1-27.891-29.766-27.891-68.786S54.272 39.04 69.656 38.04c15.384-1 27.891 29.64 27.891 68.66 0 39.021-12.507 71.288-27.891 72.414zm46.774-50.902h-2.376s1-9.13 1-18.26-1-18.76-1-18.76h2.501c-.75-6.252-1.5-10.63-1.5-10.63l2.5-1.5c-5.377-38.646-22.386-66.035-42.522-64.91C50.395 15.53 30.51 58.802 30.51 111.08c0 52.278 19.885 93.299 44.523 91.923 19.01-1 35.394-27.514 41.647-63.658l-1.626-1s.75-4.128 1.376-10.13z"/></clipPath><linearGradient id="5bh8aT" x1="82.29" x2="82.29" y1="182.35" y2="35.51" gradientUnits="userSpaceOnUse"><stop offset="0" stop-color="#666a74"/><stop offset=".93" stop-color="#616873"/><stop offset="1" stop-color="#525861"/></linearGradient><linearGradient id="5bh8aU" x1="72.65" x2="72.65" y1="37.41" y2="181.75" gradientUnits="userSpaceOnUse"><stop offset="0" stop-color="#acb5c2"/><stop offset=".4" stop-color="#aab3c2"/><stop offset="1" stop-color="#ced6e1"/></linearGradient><linearGradient id="5bh8aV" x1="48.77" x2="77.91" y1="23.29" y2="23.29" gradientUnits="userSpaceOnUse"><stop offset="0" stop-color="#99969c"/><stop offset=".69" stop-color="#bcbabf"/><stop offset=".86" stop-color="#b3b0b5"/><stop offset="1" stop-color="#b3b0b5"/></linearGradient><linearGradient id="5bh8aW" x1="31.64" x2="30.56" y1="93.74" y2="135.01" gradientUnits="userSpaceOnUse"><stop offset="0" stop-color="#6c7282"/><stop offset=".13" stop-color="#a6a9b6"/><stop offset=".74" stop-color="#bec6d2"/><stop offset=".89" stop-color="#b4b9c9"/><stop offset="1" stop-color="#9298a9"/></linearGradient><linearGradient id="5bh8aX" x1="36.33" x2="26.92" y1="115.63" y2="115.63" gradientUnits="userSpaceOnUse"><stop offset="0" stop-color="#888fa3"/><stop offset=".23" stop-color="#838ba0"/><stop offset="1" stop-color="#adb2bf"/></linearGradient><linearGradient id="5bh8aY" x1="34.23" x2="26.35" y1="114.33" y2="114.33" gradientUnits="userSpaceOnUse"><stop offset="0" stop-color="#d9e0ea"/><stop offset=".51" stop-color="#fff"/><stop offset="1" stop-color="#e8ebf5"/></linearGradient><linearGradient id="5bh8aZ" x1="29.63" x2="29.63" y1="111.08" y2="116.58" gradientUnits="userSpaceOnUse"><stop offset="0" stop-color="#38363b"/><stop offset=".08" stop-color="#3b393e"/><stop offset=".64" stop-color="#514e54"/><stop offset="1" stop-color="#59565c"/></linearGradient><linearGradient id="5bh8ba" x1="28.88" x2="28.88" y1="116.72" y2="111.08" gradientUnits="userSpaceOnUse"><stop offset=".02" stop-color="#c2cbd5"/><stop offset="1" stop-color="#a0aab8"/></linearGradient><linearGradient id="5bh8bb" x1="33.39" x2="37.36" y1="113.96" y2="113.96" gradientUnits="userSpaceOnUse"><stop offset="0" stop-color="#f7f9ff"/><stop offset=".2" stop-color="#adb2c1"/><stop offset=".57" stop-color="#74798a"/><stop offset=".95" stop-color="#515968"/><stop offset="1" stop-color="#535254"/></linearGradient><linearGradient id="5bh8bc" x1="27.6" x2="35.47" y1="113.96" y2="113.96" gradientUnits="userSpaceOnUse"><stop offset="0" stop-color="#f7f9ff"/><stop offset=".2" stop-color="#adb2c1"/><stop offset=".57" stop-color="#74798a"/><stop offset=".95" stop-color="#515968"/><stop offset="1" stop-color="#535254"/></linearGradient><linearGradient id="5bh8bd" x1="93.66" x2="93.66" y1="53.43" y2="164.23" gradientUnits="userSpaceOnUse"><stop offset="0" stop-color="#4f5a6d"/><stop offset=".11" stop-color="#6d788d"/><stop offset=".26" stop-color="#9ba6b4"/><stop offset=".77" stop-color="#9ba6b4"/><stop offset=".92" stop-color="#616b7a"/><stop offset="1" stop-color="#556171"/></linearGradient><linearGradient id="5bh8be" x1="111.8" x2="111.2" y1="149.76" y2="56.96" gradientUnits="userSpaceOnUse"><stop offset="0" stop-color="#798394"/><stop offset=".08" stop-color="#707782"/><stop offset=".15" stop-color="#777f92"/><stop offset=".23" stop-color="#778293"/><stop offset="1" stop-color="#757c8b"/></linearGradient><filter id="5bh8bf" width="152%" height="144%" x="-16%" y="-12%" filterUnits="objectBoundingBox"><feGaussianBlur in="SourceGraphic" result="FeGaussianBlur3389Out" stdDeviation="1 0"/></filter><filter id="5bh8bg" width="148%" height="148%" x="-14%" y="-14%" filterUnits="objectBoundingBox"><feGaussianBlur in="SourceGraphic" result="FeGaussianBlur3397Out" stdDeviation="1 0"/></filter><filter id="5bh8bh" width="148%" height="156%" x="-14%" y="-18%" filterUnits="objectBoundingBox"><feGaussianBlur in="SourceGraphic" result="FeGaussianBlur3405Out" stdDeviation="1 0"/></filter><filter id="5bh8bi" width="272%" height="160%" x="-76%" y="-20%" filterUnits="objectBoundingBox"><feGaussianBlur in="SourceGraphic" result="FeGaussianBlur3413Out" stdDeviation="2 0"/></filter><filter id="5bh8bj" width="300%" height="168%" x="-90%" y="-24%" filterUnits="objectBoundingBox"><feGaussianBlur in="SourceGraphic" result="FeGaussianBlur3421Out" stdDeviation="2 0"/></filter><filter id="5bh8bk" width="152%" height="184%" x="-16%" y="-32%" filterUnits="objectBoundingBox"><feGaussianBlur in="SourceGraphic" result="FeGaussianBlur3429Out" stdDeviation="1 0"/></filter><filter id="5bh8bl" width="156%" height="192%" x="-18%" y="-36%" filterUnits="objectBoundingBox"><feGaussianBlur in="SourceGraphic" result="FeGaussianBlur3437Out" stdDeviation="1 0"/></filter><filter id="5bh8bm" width="180%" height="160%" x="-30%" y="-20%" filterUnits="objectBoundingBox"><feGaussianBlur in="SourceGraphic" result="FeGaussianBlur3445Out" stdDeviation="2 0"/></filter><filter id="5bh8bn" width="164%" height="152%" x="-22%" y="-16%" filterUnits="objectBoundingBox"><feGaussianBlur in="SourceGraphic" result="FeGaussianBlur3453Out" stdDeviation="1 0"/></filter><filter id="5bh8bo" width="192%" height="160%" x="-36%" y="-20%" filterUnits="objectBoundingBox"><feGaussianBlur in="SourceGraphic" result="FeGaussianBlur3461Out" stdDeviation="2 0"/></filter><filter id="5bh8bp" width="208%" height="164%" x="-44%" y="-22%" filterUnits="objectBoundingBox"><feGaussianBlur in="SourceGraphic" result="FeGaussianBlur3469Out" stdDeviation="2 0"/></filter><filter id="5bh8bq" width="212%" height="164%" x="-46%" y="-22%" filterUnits="objectBoundingBox"><feGaussianBlur in="SourceGraphic" result="FeGaussianBlur3477Out" stdDeviation="2 0"/></filter><filter id="5bh8br" width="212%" height="196%" x="-46%" y="-38%" filterUnits="objectBoundingBox"><feGaussianBlur in="SourceGraphic" result="FeGaussianBlur3485Out" stdDeviation="3 0"/></filter><filter id="5bh8bs" width="248%" height="224%" x="-64%" y="-52%" filterUnits="objectBoundingBox"><feGaussianBlur in="SourceGraphic" result="FeGaussianBlur3493Out" stdDeviation="3 0"/></filter><filter id="5bh8bt" width="176%" height="176%" x="-28%" y="-28%" filterUnits="objectBoundingBox"><feGaussianBlur in="SourceGraphic" result="FeGaussianBlur3501Out" stdDeviation="2 0"/></filter><filter id="5bh8bu" width="216%" height="216%" x="-48%" y="-48%" filterUnits="objectBoundingBox"><feGaussianBlur in="SourceGraphic" result="FeGaussianBlur3508Out" stdDeviation="3 3"/></filter><filter id="5bh8bv" width="160%" height="220%" x="-20%" y="-50%" filterUnits="objectBoundingBox"><feGaussianBlur in="SourceGraphic" result="FeGaussianBlur3516Out" stdDeviation="1 0"/></filter><filter id="5bh8bw" width="168%" height="148%" x="-24%" y="-14%" filterUnits="objectBoundingBox"><feGaussianBlur in="SourceGraphic" result="FeGaussianBlur3524Out" stdDeviation="1 0"/></filter><filter id="5bh8bx" width="172%" height="152%" x="-26%" y="-16%" filterUnits="objectBoundingBox"><feGaussianBlur in="SourceGraphic" result="FeGaussianBlur3532Out" stdDeviation="1 0"/></filter><filter id="5bh8by" width="180%" height="164%" x="-30%" y="-22%" filterUnits="objectBoundingBox"><feGaussianBlur in="SourceGraphic" result="FeGaussianBlur3540Out" stdDeviation="2 0"/></filter><filter id="5bh8bz" width="188%" height="176%" x="-34%" y="-28%" filterUnits="objectBoundingBox"><feGaussianBlur in="SourceGraphic" result="FeGaussianBlur3548Out" stdDeviation="2 0"/></filter><filter id="5bh8bA" width="216%" height="248%" x="-48%" y="-64%" filterUnits="objectBoundingBox"><feGaussianBlur in="SourceGraphic" result="FeGaussianBlur3556Out" stdDeviation="3 0"/></filter><filter id="5bh8bB" width="220%" height="228%" x="-50%" y="-54%" filterUnits="objectBoundingBox"><feGaussianBlur in="SourceGraphic" result="FeGaussianBlur3564Out" stdDeviation="2 0"/></filter><filter id="5bh8bC" width="148%" height="160%" x="-14%" y="-20%" filterUnits="objectBoundingBox"><feGaussianBlur in="SourceGraphic" result="FeGaussianBlur3572Out" stdDeviation="1 0"/></filter><filter id="5bh8bD" width="152%" height="168%" x="-16%" y="-24%" filterUnits="objectBoundingBox"><feGaussianBlur in="SourceGraphic" result="FeGaussianBlur3580Out" stdDeviation="1 0"/></filter><filter id="5bh8bE" width="196%" height="196%" x="-38%" y="-38%" filterUnits="objectBoundingBox"><feGaussianBlur in="SourceGraphic" result="FeGaussianBlur3588Out" stdDeviation="3 0"/></filter><filter id="5bh8bF" width="216%" height="224%" x="-48%" y="-52%" filterUnits="objectBoundingBox"><feGaussianBlur in="SourceGraphic" result="FeGaussianBlur3595Out" stdDeviation="3 3"/></filter></defs><g><g><g><g filter="url(#5bh8a)"><path fill="url(#5bh8b)" d="M201.997 188.324c43.81 0 79.327-35.516 79.327-79.327S245.808 29.67 201.997 29.67s-79.327 35.516-79.327 79.327c0 43.81 35.516 79.327 79.327 79.327z"/></g><g><g><path fill="url(#5bh8c)" d="M201.615 181.23c40.105 0 72.616-32.51 72.616-72.615C274.23 68.511 241.72 36 201.615 36 161.511 36 129 68.511 129 108.615c0 40.105 32.511 72.616 72.615 72.616z"/><path fill="#14141d" fill-opacity=".83" d="M79 229V-11h246v240zm135.615-37.77c40.105 0 72.616-32.51 72.616-72.615C287.23 78.511 254.72 46 214.615 46 174.511 46 142 78.511 142 118.615c0 40.105 32.511 72.616 72.615 72.616z" filter="url(#5bh8d)" mask="url(&quot;#5bh8e&quot;)"/><path fill="none" stroke="#000" stroke-miterlimit="20" stroke-width="2" d="M201.615 181.23c40.105 0 72.616-32.51 72.616-72.615C274.23 68.511 241.72 36 201.615 36 161.511 36 129 68.511 129 108.615c0 40.105 32.511 72.616 72.615 72.616z" clip-path="url(&quot;#5bh8f&quot;)"/><path fill="none" stroke="#fff" stroke-miterlimit="20" stroke-opacity=".24" stroke-width="2" d="M201.615 181.23c40.105 0 72.616-32.51 72.616-72.615C274.23 68.511 241.72 36 201.615 36 161.511 36 129 68.511 129 108.615c0 40.105 32.511 72.616 72.615 72.616z" clip-path="url(&quot;#5bh8g&quot;)"/></g><g opacity=".85"><g filter="url(#5bh8h)"><path fill="none" d="M202.321 68.232a1.771 1.771 0 1 0 0-3.542 1.771 1.771 0 0 0 0 3.542z" mask="url(&quot;#5bh8i&quot;)"/><path fill="#fff" fill-opacity=".1" d="M202.321 68.232a1.771 1.771 0 1 0 0-3.542 1.771 1.771 0 0 0 0 3.542z"/></g><path fill="#1a1923" d="M202.321 68.232a1.771 1.771 0 1 0 0-3.542 1.771 1.771 0 0 0 0 3.542z"/></g><g opacity=".85"><g filter="url(#5bh8j)"><path fill="none" d="M214.011 68.232a1.771 1.771 0 1 0 0-3.542 1.771 1.771 0 0 0 0 3.542z" mask="url(&quot;#5bh8k&quot;)"/><path fill="#fff" fill-opacity=".1" d="M214.011 68.232a1.771 1.771 0 1 0 0-3.542 1.771 1.771 0 0 0 0 3.542z"/></g><path fill="#1a1923" d="M214.011 68.232a1.771 1.771 0 1 0 0-3.542 1.771 1.771 0 0 0 0 3.542z"/></g><g opacity=".85"><g filter="url(#5bh8l)"><path fill="none" d="M190.281 68.232a1.771 1.771 0 1 0 0-3.542 1.771 1.771 0 0 0 0 3.542z" mask="url(&quot;#5bh8m&quot;)"/><path fill="#fff" fill-opacity=".1" d="M190.281 68.232a1.771 1.771 0 1 0 0-3.542 1.771 1.771 0 0 0 0 3.542z"/></g><path fill="#1a1923" d="M190.281 68.232a1.771 1.771 0 1 0 0-3.542 1.771 1.771 0 0 0 0 3.542z"/></g><g opacity=".85"><g filter="url(#5bh8n)"><path fill="none" d="M207.991 58.672a1.771 1.771 0 1 0 0-3.542 1.771 1.771 0 0 0 0 3.542z" mask="url(&quot;#5bh8o&quot;)"/><path fill="#fff" fill-opacity=".1" d="M207.991 58.672a1.771 1.771 0 1 0 0-3.542 1.771 1.771 0 0 0 0 3.542z"/></g><path fill="#1a1923" d="M207.991 58.672a1.771 1.771 0 1 0 0-3.542 1.771 1.771 0 0 0 0 3.542z"/></g><g opacity=".85"><g filter="url(#5bh8p)"><path fill="none" d="M218.971 58.672a1.771 1.771 0 1 0 0-3.542 1.771 1.771 0 0 0 0 3.542z" mask="url(&quot;#5bh8q&quot;)"/><path fill="#fff" fill-opacity=".1" d="M218.971 58.672a1.771 1.771 0 1 0 0-3.542 1.771 1.771 0 0 0 0 3.542z"/></g><path fill="#1a1923" d="M218.971 58.672a1.771 1.771 0 1 0 0-3.542 1.771 1.771 0 0 0 0 3.542z"/></g><g opacity=".85"><g filter="url(#5bh8r)"><path fill="none" d="M197.361 58.672a1.771 1.771 0 1 0 0-3.542 1.771 1.771 0 0 0 0 3.542z" mask="url(&quot;#5bh8s&quot;)"/><path fill="#fff" fill-opacity=".1" d="M197.361 58.672a1.771 1.771 0 1 0 0-3.542 1.771 1.771 0 0 0 0 3.542z"/></g><path fill="#1a1923" d="M197.361 58.672a1.771 1.771 0 1 0 0-3.542 1.771 1.771 0 0 0 0 3.542z"/></g><g opacity=".85"><g filter="url(#5bh8t)"><path fill="none" d="M186.361 58.672a1.771 1.771 0 1 0 0-3.542 1.771 1.771 0 0 0 0 3.542z" mask="url(&quot;#5bh8u&quot;)"/><path fill="#fff" fill-opacity=".1" d="M186.361 58.672a1.771 1.771 0 1 0 0-3.542 1.771 1.771 0 0 0 0 3.542z"/></g><path fill="#1a1923" d="M186.361 58.672a1.771 1.771 0 1 0 0-3.542 1.771 1.771 0 0 0 0 3.542z"/></g><g><g filter="url(#5bh8v)"><path fill="none" d="M201.796 123.142c7.923 0 14.346-6.423 14.346-14.346s-6.423-14.346-14.346-14.346-14.346 6.423-14.346 14.346 6.423 14.346 14.346 14.346z" mask="url(&quot;#5bh8w&quot;)"/><path fill-opacity=".58" d="M201.796 123.142c7.923 0 14.346-6.423 14.346-14.346s-6.423-14.346-14.346-14.346-14.346 6.423-14.346 14.346 6.423 14.346 14.346 14.346z"/></g><g mask="url(&quot;#5bh8x&quot;)"><g><path fill="rgba(93,99,112,1)" d="M202 109l31 1a31 31 0 0 0 0-1z"/><path fill="rgba(89,94,107,1)" d="M202 109l30.978 1.54a31 31 0 0 0 .017-.999z"/><path fill="rgba(84,90,103,1)" d="M202 109l30.946 2.081a31 31 0 0 0 .035-1z"/><path fill="rgba(80,85,98,1)" d="M202 109l30.905 2.621a31 31 0 0 0 .053-.999z"/><path fill="rgba(80,85,98,1)" d="M202 109l30.855 3.16a31 31 0 0 0 .07-.998z"/><path fill="rgba(81,86,99,1)" d="M202 109l30.795 3.698a31 31 0 0 0 .087-.996z"/><path fill="rgba(81,86,99,1)" d="M202 109l30.726 4.235a31 31 0 0 0 .104-.995z"/><path fill="rgba(81,86,99,1)" d="M202 109l30.647 4.77a31 31 0 0 0 .122-.992z"/><path fill="rgba(81,86,99,1)" d="M202 109l30.56 5.305a31 31 0 0 0 .138-.99z"/><path fill="rgba(82,87,100,1)" d="M202 109l30.462 5.837a31 31 0 0 0 .156-.988z"/><path fill="rgba(82,87,100,1)" d="M202 109l30.355 6.368a31 31 0 0 0 .174-.985z"/><path fill="rgba(82,87,100,1)" d="M202 109l30.24 6.897a31 31 0 0 0 .19-.982z"/><path fill="rgba(82,87,101,1)" d="M202 109l30.115 7.423a31 31 0 0 0 .208-.978z"/><path fill="rgba(83,88,101,1)" d="M202 109l29.98 7.948a31 31 0 0 0 .225-.975z"/><path fill="rgba(83,88,101,1)" d="M202 109l29.837 8.47a31 31 0 0 0 .242-.97z"/><path fill="rgba(83,88,102,1)" d="M202 109l29.685 8.99a31 31 0 0 0 .259-.967z"/><path fill="rgba(83,89,102,1)" d="M202 109l29.523 9.506a31 31 0 0 0 .276-.961z"/><path fill="rgba(84,89,102,1)" d="M202 109l29.353 10.02a31 31 0 0 0 .292-.956z"/><path fill="rgba(84,89,102,1)" d="M202 109l29.174 10.53a31 31 0 0 0 .309-.95z"/><path fill="rgba(84,89,103,1)" d="M202 109l28.986 11.038a31 31 0 0 0 .325-.945z"/><path fill="rgba(84,90,103,1)" d="M202 109l28.788 11.542a31 31 0 0 0 .342-.94z"/><path fill="rgba(85,90,103,1)" d="M202 109l28.583 12.043a31 31 0 0 0 .358-.934z"/><path fill="rgba(85,90,104,1)" d="M202 109l28.368 12.54a31 31 0 0 0 .375-.927z"/><path fill="rgba(85,91,104,1)" d="M202 109l28.145 13.033a31 31 0 0 0 .39-.92z"/><path fill="rgba(85,91,104,1)" d="M202 109l27.913 13.522a31 31 0 0 0 .407-.913z"/><path fill="rgba(86,91,104,1)" d="M202 109l27.673 14.007a31 31 0 0 0 .423-.906z"/><path fill="rgba(86,91,105,1)" d="M202 109l27.424 14.488a31 31 0 0 0 .439-.898z"/><path fill="rgba(86,92,105,1)" d="M202 109l27.167 14.965a31 31 0 0 0 .454-.891z"/><path fill="rgba(86,92,105,1)" d="M202 109l26.902 15.437a31 31 0 0 0 .47-.883z"/><path fill="rgba(87,92,106,1)" d="M202 109l26.628 15.904a31 31 0 0 0 .485-.875z"/><path fill="rgba(87,92,106,1)" d="M202 109l26.347 16.366a31 31 0 0 0 .5-.866z"/><path fill="rgba(87,93,106,1)" d="M202 109l26.057 16.823a31 31 0 0 0 .515-.857z"/><path fill="rgba(88,93,107,1)" d="M202 109l25.76 17.276a31 31 0 0 0 .53-.849z"/><path fill="rgba(88,93,107,1)" d="M202 109l25.454 17.722a31 31 0 0 0 .545-.838z"/><path fill="rgba(88,94,107,1)" d="M202 109l25.141 18.164a31 31 0 0 0 .56-.829z"/><path fill="rgba(88,94,107,1)" d="M202 109l24.82 18.6a31 31 0 0 0 .574-.82z"/><path fill="rgba(89,94,108,1)" d="M202 109l24.492 19.03a31 31 0 0 0 .588-.809z"/><path fill="rgba(89,94,108,1)" d="M202 109l24.156 19.455a31 31 0 0 0 .602-.799z"/><path fill="rgba(89,95,108,1)" d="M202 109l23.813 19.874a31 31 0 0 0 .615-.788z"/><path fill="rgba(89,95,109,1)" d="M202 109l23.462 20.286a31 31 0 0 0 .63-.777z"/><path fill="rgba(90,95,109,1)" d="M202 109l23.105 20.692a31 31 0 0 0 .642-.766z"/><path fill="rgba(90,95,109,1)" d="M202 109l22.74 21.093a31 31 0 0 0 .656-.755z"/><path fill="rgba(90,96,109,1)" d="M202 109l22.368 21.486a31 31 0 0 0 .67-.743z"/><path fill="rgba(90,96,110,1)" d="M202 109l21.99 21.873a31 31 0 0 0 .682-.731z"/><path fill="rgba(91,96,110,1)" d="M202 109l21.605 22.254a31 31 0 0 0 .695-.72z"/><path fill="rgba(91,97,110,1)" d="M202 109l21.213 22.627a31 31 0 0 0 .707-.707z"/><path fill="rgba(91,97,111,1)" d="M202 109l20.815 22.994a31 31 0 0 0 .72-.694z"/><path fill="rgba(91,97,111,1)" d="M202 109l20.41 23.354a31 31 0 0 0 .732-.682z"/><path fill="rgba(92,97,111,1)" d="M202 109l20 23.707a31 31 0 0 0 .743-.67z"/><path fill="rgba(92,98,111,1)" d="M202 109l19.583 24.052a31 31 0 0 0 .755-.656z"/><path fill="rgba(92,98,112,1)" d="M202 109l19.16 24.39a31 31 0 0 0 .766-.643z"/><path fill="rgba(92,98,112,1)" d="M202 109l18.732 24.72a31 31 0 0 0 .777-.628z"/><path fill="rgba(93,99,112,1)" d="M202 109l18.297 25.044a31 31 0 0 0 .789-.616z"/><path fill="rgba(93,99,113,1)" d="M202 109l17.858 25.36a31 31 0 0 0 .798-.602z"/><path fill="rgba(93,99,113,1)" d="M202 109l17.412 25.667a31 31 0 0 0 .81-.587z"/><path fill="rgba(93,99,113,1)" d="M202 109l16.962 25.967a31 31 0 0 0 .819-.573z"/><path fill="rgba(94,100,114,1)" d="M202 109l16.506 26.26a31 31 0 0 0 .829-.56z"/><path fill="rgba(94,100,114,1)" d="M202 109l16.045 26.543a31 31 0 0 0 .839-.544z"/><path fill="rgba(94,100,114,1)" d="M202 109l15.58 26.82a31 31 0 0 0 .847-.53z"/><path fill="rgba(94,100,114,1)" d="M202 109l15.109 27.087a31 31 0 0 0 .857-.515z"/><path fill="rgba(95,101,115,1)" d="M202 109l14.634 27.347a31 31 0 0 0 .866-.5z"/><path fill="rgba(95,101,115,1)" d="M202 109l14.154 27.598a31 31 0 0 0 .875-.485z"/><path fill="rgba(95,101,116,1)" d="M202 109l13.67 27.84a31 31 0 0 0 .884-.469z"/><path fill="rgba(96,102,116,1)" d="M202 109l13.183 28.075a31 31 0 0 0 .89-.454z"/><path fill="rgba(96,102,117,1)" d="M202 109l12.69 28.301a31 31 0 0 0 .9-.438z"/><path fill="rgba(96,102,117,1)" d="M202 109l12.195 28.518a31 31 0 0 0 .906-.422z"/><path fill="rgba(95,101,116,1)" d="M202 109l11.695 28.727a31 31 0 0 0 .914-.407z"/><path fill="rgba(95,101,116,1)" d="M202 109l11.192 28.926a31 31 0 0 0 .92-.39z"/><path fill="rgba(95,101,116,1)" d="M202 109l10.686 29.117a31 31 0 0 0 .927-.374z"/><path fill="rgba(95,101,115,1)" d="M202 109l10.176 29.3a31 31 0 0 0 .933-.359z"/><path fill="rgba(94,100,115,1)" d="M202 109l9.663 29.472a31 31 0 0 0 .94-.342z"/><path fill="rgba(94,100,115,1)" d="M202 109l9.147 29.637a31 31 0 0 0 .946-.326z"/><path fill="rgba(94,100,115,1)" d="M202 109l8.628 29.792a31 31 0 0 0 .952-.31z"/><path fill="rgba(94,100,114,1)" d="M202 109l8.107 29.938a31 31 0 0 0 .957-.293z"/><path fill="rgba(93,99,114,1)" d="M202 109l7.583 30.075a31 31 0 0 0 .962-.276z"/><path fill="rgba(93,99,114,1)" d="M202 109l7.057 30.203a31 31 0 0 0 .966-.26z"/><path fill="rgba(93,99,113,1)" d="M202 109l6.53 30.321a31 31 0 0 0 .97-.242z"/><path fill="rgba(93,98,113,1)" d="M202 109l6 30.43a31 31 0 0 0 .973-.225z"/><path fill="rgba(92,98,113,1)" d="M202 109l5.467 30.53a31 31 0 0 0 .978-.207z"/><path fill="rgba(92,98,112,1)" d="M202 109l4.933 30.621a31 31 0 0 0 .982-.19z"/><path fill="rgba(92,98,112,1)" d="M202 109l4.398 30.703a31 31 0 0 0 .985-.174z"/><path fill="rgba(92,97,112,1)" d="M202 109l3.862 30.775a31 31 0 0 0 .987-.157z"/><path fill="rgba(91,97,111,1)" d="M202 109l3.324 30.837a31 31 0 0 0 .99-.139z"/><path fill="rgba(91,97,111,1)" d="M202 109l2.785 30.89a31 31 0 0 0 .993-.121z"/><path fill="rgba(91,97,111,1)" d="M202 109l2.246 30.935a31 31 0 0 0 .994-.105z"/><path fill="rgba(91,96,111,1)" d="M202 109l1.706 30.97a31 31 0 0 0 .996-.088z"/><path fill="rgba(90,96,110,1)" d="M202 109l1.165 30.994a31 31 0 0 0 .997-.07z"/><path fill="rgba(90,96,110,1)" d="M202 109l.624 31.01a31 31 0 0 0 .998-.052z"/><path fill="rgba(90,95,110,1)" d="M202 109l.082 31.016a31 31 0 0 0 1-.035z"/><path fill="rgba(90,95,109,1)" d="M202 109l-.459 31.013a31 31 0 0 0 1-.018z"/><path fill="rgba(89,95,109,1)" d="M202 109l-1 31a31 31 0 0 0 1 0z"/><path fill="rgba(89,95,109,1)" d="M202 109l-1.54 30.978a31 31 0 0 0 .999.017z"/><path fill="rgba(89,94,108,1)" d="M202 109l-2.081 30.946a31 31 0 0 0 1 .035z"/><path fill="rgba(89,94,108,1)" d="M202 109l-2.621 30.905a31 31 0 0 0 .999.053z"/><path fill="rgba(88,94,108,1)" d="M202 109l-3.16 30.855a31 31 0 0 0 .998.07z"/><path fill="rgba(88,94,108,1)" d="M202 109l-3.698 30.795a31 31 0 0 0 .996.087z"/><path fill="rgba(88,93,107,1)" d="M202 109l-4.235 30.726a31 31 0 0 0 .995.104z"/><path fill="rgba(87,93,107,1)" d="M202 109l-4.77 30.647a31 31 0 0 0 .992.122z"/><path fill="rgba(87,93,107,1)" d="M202 109l-5.305 30.56a31 31 0 0 0 .99.138z"/><path fill="rgba(87,92,106,1)" d="M202 109l-5.837 30.462a31 31 0 0 0 .988.156z"/><path fill="rgba(87,92,106,1)" d="M202 109l-6.368 30.355a31 31 0 0 0 .985.174z"/><path fill="rgba(86,92,106,1)" d="M202 109l-6.897 30.24a31 31 0 0 0 .982.19z"/><path fill="rgba(86,92,105,1)" d="M202 109l-7.423 30.115a31 31 0 0 0 .978.208z"/><path fill="rgba(86,91,105,1)" d="M202 109l-7.948 29.98a31 31 0 0 0 .975.225z"/><path fill="rgba(86,91,105,1)" d="M202 109l-8.47 29.837a31 31 0 0 0 .97.242z"/><path fill="rgba(85,91,104,1)" d="M202 109l-8.99 29.685a31 31 0 0 0 .967.259z"/><path fill="rgba(85,90,104,1)" d="M202 109l-9.506 29.523a31 31 0 0 0 .961.276z"/><path fill="rgba(85,90,104,1)" d="M202 109l-10.02 29.353a31 31 0 0 0 .956.292z"/><path fill="rgba(85,90,104,1)" d="M202 109l-10.53 29.174a31 31 0 0 0 .95.309z"/><path fill="rgba(84,90,103,1)" d="M202 109l-11.038 28.986a31 31 0 0 0 .945.325z"/><path fill="rgba(84,89,103,1)" d="M202 109l-11.542 28.788a31 31 0 0 0 .94.342z"/><path fill="rgba(84,89,103,1)" d="M202 109l-12.043 28.583a31 31 0 0 0 .934.358z"/><path fill="rgba(84,89,102,1)" d="M202 109l-12.54 28.368a31 31 0 0 0 .927.375z"/><path fill="rgba(83,89,102,1)" d="M202 109l-13.033 28.145a31 31 0 0 0 .92.39z"/><path fill="rgba(83,88,102,1)" d="M202 109l-13.522 27.913a31 31 0 0 0 .913.407z"/><path fill="rgba(83,88,101,1)" d="M202 109l-14.007 27.673a31 31 0 0 0 .906.423z"/><path fill="rgba(83,88,101,1)" d="M202 109l-14.488 27.424a31 31 0 0 0 .898.439z"/><path fill="rgba(82,87,101,1)" d="M202 109l-14.965 27.167a31 31 0 0 0 .891.454z"/><path fill="rgba(82,87,100,1)" d="M202 109l-15.437 26.902a31 31 0 0 0 .883.47z"/><path fill="rgba(82,87,100,1)" d="M202 109l-15.904 26.628a31 31 0 0 0 .875.485z"/><path fill="rgba(82,87,100,1)" d="M202 109l-16.366 26.347a31 31 0 0 0 .866.5z"/><path fill="rgba(81,86,100,1)" d="M202 109l-16.823 26.057a31 31 0 0 0 .857.515z"/><path fill="rgba(81,86,99,1)" d="M202 109l-17.276 25.76a31 31 0 0 0 .849.53z"/><path fill="rgba(81,86,99,1)" d="M202 109l-17.722 25.454a31 31 0 0 0 .838.545z"/><path fill="rgba(81,86,99,1)" d="M202 109l-18.164 25.141a31 31 0 0 0 .829.56z"/><path fill="rgba(80,85,98,1)" d="M202 109l-18.6 24.82a31 31 0 0 0 .82.574z"/><path fill="rgba(80,85,98,1)" d="M202 109l-19.03 24.492a31 31 0 0 0 .809.588z"/><path fill="rgba(81,86,99,1)" d="M202 109l-19.455 24.156a31 31 0 0 0 .799.602z"/><path fill="rgba(81,86,99,1)" d="M202 109l-19.874 23.813a31 31 0 0 0 .788.615z"/><path fill="rgba(82,87,100,1)" d="M202 109l-20.286 23.462a31 31 0 0 0 .777.63z"/><path fill="rgba(83,88,101,1)" d="M202 109l-20.692 23.105a31 31 0 0 0 .766.642z"/><path fill="rgba(84,89,102,1)" d="M202 109l-21.093 22.74a31 31 0 0 0 .755.656z"/><path fill="rgba(84,89,102,1)" d="M202 109l-21.486 22.368a31 31 0 0 0 .743.67z"/><path fill="rgba(85,90,103,1)" d="M202 109l-21.873 21.99a31 31 0 0 0 .731.682z"/><path fill="rgba(86,91,104,1)" d="M202 109l-22.254 21.605a31 31 0 0 0 .72.695z"/><path fill="rgba(86,91,105,1)" d="M202 109l-22.627 21.213a31 31 0 0 0 .707.707z"/><path fill="rgba(87,92,105,1)" d="M202 109l-22.994 20.815a31 31 0 0 0 .694.72z"/><path fill="rgba(88,93,106,1)" d="M202 109l-23.354 20.41a31 31 0 0 0 .682.732z"/><path fill="rgba(88,93,107,1)" d="M202 109l-23.707 20a31 31 0 0 0 .67.743z"/><path fill="rgba(89,94,108,1)" d="M202 109l-24.052 19.583a31 31 0 0 0 .656.755z"/><path fill="rgba(90,95,108,1)" d="M202 109l-24.39 19.16a31 31 0 0 0 .643.766z"/><path fill="rgba(91,96,109,1)" d="M202 109l-24.72 18.732a31 31 0 0 0 .628.777z"/><path fill="rgba(91,96,110,1)" d="M202 109l-25.044 18.297a31 31 0 0 0 .616.789z"/><path fill="rgba(92,97,111,1)" d="M202 109l-25.36 17.858a31 31 0 0 0 .602.798z"/><path fill="rgba(93,98,111,1)" d="M202 109l-25.667 17.412a31 31 0 0 0 .587.81z"/><path fill="rgba(93,98,112,1)" d="M202 109l-25.967 16.962a31 31 0 0 0 .573.819z"/><path fill="rgba(94,99,113,1)" d="M202 109l-26.26 16.506a31 31 0 0 0 .56.829z"/><path fill="rgba(95,100,113,1)" d="M202 109l-26.543 16.045a31 31 0 0 0 .544.839z"/><path fill="rgba(96,101,114,1)" d="M202 109l-26.82 15.58a31 31 0 0 0 .53.847z"/><path fill="rgba(96,101,115,1)" d="M202 109l-27.087 15.109a31 31 0 0 0 .515.857z"/><path fill="rgba(97,102,116,1)" d="M202 109l-27.347 14.634a31 31 0 0 0 .5.866z"/><path fill="rgba(98,103,116,1)" d="M202 109l-27.598 14.154a31 31 0 0 0 .485.875z"/><path fill="rgba(98,103,117,1)" d="M202 109l-27.84 13.67a31 31 0 0 0 .469.884z"/><path fill="rgba(99,104,118,1)" d="M202 109l-28.075 13.183a31 31 0 0 0 .454.89z"/><path fill="rgba(100,105,119,1)" d="M202 109l-28.301 12.69a31 31 0 0 0 .438.9z"/><path fill="rgba(100,105,119,1)" d="M202 109l-28.518 12.195a31 31 0 0 0 .422.906z"/><path fill="rgba(101,106,120,1)" d="M202 109l-28.727 11.695a31 31 0 0 0 .407.914z"/><path fill="rgba(102,107,121,1)" d="M202 109l-28.926 11.192a31 31 0 0 0 .39.92z"/><path fill="rgba(103,108,122,1)" d="M202 109l-29.117 10.686a31 31 0 0 0 .374.927z"/><path fill="rgba(103,108,122,1)" d="M202 109l-29.3 10.176a31 31 0 0 0 .359.933z"/><path fill="rgba(104,109,123,1)" d="M202 109l-29.472 9.663a31 31 0 0 0 .342.94z"/><path fill="rgba(105,110,124,1)" d="M202 109l-29.637 9.147a31 31 0 0 0 .326.946z"/><path fill="rgba(105,110,125,1)" d="M202 109l-29.792 8.628a31 31 0 0 0 .31.952z"/><path fill="rgba(106,111,125,1)" d="M202 109l-29.938 8.107a31 31 0 0 0 .293.957z"/><path fill="rgba(107,112,126,1)" d="M202 109l-30.075 7.583a31 31 0 0 0 .276.962z"/><path fill="rgba(107,112,127,1)" d="M202 109l-30.203 7.057a31 31 0 0 0 .26.966z"/><path fill="rgba(108,113,128,1)" d="M202 109l-30.321 6.53a31 31 0 0 0 .242.97z"/><path fill="rgba(109,114,128,1)" d="M202 109l-30.43 6a31 31 0 0 0 .225.973z"/><path fill="rgba(110,115,129,1)" d="M202 109l-30.53 5.467a31 31 0 0 0 .207.978z"/><path fill="rgba(110,115,130,1)" d="M202 109l-30.621 4.933a31 31 0 0 0 .19.982z"/><path fill="rgba(111,116,130,1)" d="M202 109l-30.703 4.398a31 31 0 0 0 .174.985z"/><path fill="rgba(112,117,131,1)" d="M202 109l-30.775 3.862a31 31 0 0 0 .157.987z"/><path fill="rgba(112,117,132,1)" d="M202 109l-30.837 3.324a31 31 0 0 0 .139.99z"/><path fill="rgba(113,118,133,1)" d="M202 109l-30.89 2.785a31 31 0 0 0 .121.993z"/><path fill="rgba(114,119,133,1)" d="M202 109l-30.935 2.246a31 31 0 0 0 .105.994z"/><path fill="rgba(115,120,134,1)" d="M202 109l-30.97 1.706a31 31 0 0 0 .088.996z"/><path fill="rgba(115,120,135,1)" d="M202 109l-30.994 1.165a31 31 0 0 0 .07.997z"/><path fill="rgba(116,121,136,1)" d="M202 109l-31.01.624a31 31 0 0 0 .052.998z"/><path fill="rgba(117,122,136,1)" d="M202 109l-31.016.082a31 31 0 0 0 .035 1z"/><path fill="rgba(117,122,137,1)" d="M202 109l-31.013-.459a31 31 0 0 0 .018 1z"/><path fill="rgba(118,123,138,1)" d="M202 109l-31-1a31 31 0 0 0 0 1z"/><path fill="rgba(119,124,139,1)" d="M202 109l-30.978-1.54a31 31 0 0 0-.017.999z"/><path fill="rgba(119,124,139,1)" d="M202 109l-30.946-2.081a31 31 0 0 0-.035 1z"/><path fill="rgba(120,125,140,1)" d="M202 109l-30.905-2.621a31 31 0 0 0-.053.999z"/><path fill="rgba(121,126,141,1)" d="M202 109l-30.855-3.16a31 31 0 0 0-.07.998z"/><path fill="rgba(122,127,142,1)" d="M202 109l-30.795-3.698a31 31 0 0 0-.087.996z"/><path fill="rgba(122,127,142,1)" d="M202 109l-30.726-4.235a31 31 0 0 0-.104.995z"/><path fill="rgba(123,128,143,1)" d="M202 109l-30.647-4.77a31 31 0 0 0-.122.992z"/><path fill="rgba(122,127,142,1)" d="M202 109l-30.56-5.305a31 31 0 0 0-.138.99z"/><path fill="rgba(121,126,141,1)" d="M202 109l-30.462-5.837a31 31 0 0 0-.156.988z"/><path fill="rgba(120,125,140,1)" d="M202 109l-30.355-6.368a31 31 0 0 0-.174.985z"/><path fill="rgba(120,125,139,1)" d="M202 109l-30.24-6.897a31 31 0 0 0-.19.982z"/><path fill="rgba(119,124,139,1)" d="M202 109l-30.115-7.423a31 31 0 0 0-.208.978z"/><path fill="rgba(118,123,138,1)" d="M202 109l-29.98-7.948a31 31 0 0 0-.225.975z"/><path fill="rgba(117,122,137,1)" d="M202 109l-29.837-8.47a31 31 0 0 0-.242.97z"/><path fill="rgba(116,121,136,1)" d="M202 109l-29.685-8.99a31 31 0 0 0-.259.967z"/><path fill="rgba(115,120,135,1)" d="M202 109l-29.523-9.506a31 31 0 0 0-.276.961z"/><path fill="rgba(114,119,134,1)" d="M202 109l-29.353-10.02a31 31 0 0 0-.292.956z"/><path fill="rgba(114,119,133,1)" d="M202 109l-29.174-10.53a31 31 0 0 0-.309.95z"/><path fill="rgba(113,118,132,1)" d="M202 109l-28.986-11.038a31 31 0 0 0-.325.945z"/><path fill="rgba(112,117,131,1)" d="M202 109l-28.788-11.542a31 31 0 0 0-.342.94z"/><path fill="rgba(111,116,130,1)" d="M202 109l-28.583-12.043a31 31 0 0 0-.358.934z"/><path fill="rgba(110,115,130,1)" d="M202 109l-28.368-12.54a31 31 0 0 0-.375.927z"/><path fill="rgba(109,114,129,1)" d="M202 109l-28.145-13.033a31 31 0 0 0-.39.92z"/><path fill="rgba(108,113,128,1)" d="M202 109l-27.913-13.522a31 31 0 0 0-.407.913z"/><path fill="rgba(108,113,127,1)" d="M202 109l-27.673-14.007a31 31 0 0 0-.423.906z"/><path fill="rgba(107,112,126,1)" d="M202 109l-27.424-14.488a31 31 0 0 0-.439.898z"/><path fill="rgba(106,111,125,1)" d="M202 109l-27.167-14.965a31 31 0 0 0-.454.891z"/><path fill="rgba(105,110,124,1)" d="M202 109l-26.902-15.437a31 31 0 0 0-.47.883z"/><path fill="rgba(104,109,123,1)" d="M202 109l-26.628-15.904a31 31 0 0 0-.485.875z"/><path fill="rgba(103,108,122,1)" d="M202 109l-26.347-16.366a31 31 0 0 0-.5.866z"/><path fill="rgba(102,107,121,1)" d="M202 109l-26.057-16.823a31 31 0 0 0-.515.857z"/><path fill="rgba(102,107,121,1)" d="M202 109l-25.76-17.276a31 31 0 0 0-.53.849z"/><path fill="rgba(101,106,120,1)" d="M202 109l-25.454-17.722a31 31 0 0 0-.545.838z"/><path fill="rgba(100,105,119,1)" d="M202 109l-25.141-18.164a31 31 0 0 0-.56.829z"/><path fill="rgba(99,104,118,1)" d="M202 109l-24.82-18.6a31 31 0 0 0-.574.82z"/><path fill="rgba(98,103,117,1)" d="M202 109l-24.492-19.03a31 31 0 0 0-.588.809z"/><path fill="rgba(97,102,116,1)" d="M202 109l-24.156-19.455a31 31 0 0 0-.602.799z"/><path fill="rgba(96,101,115,1)" d="M202 109l-23.813-19.874a31 31 0 0 0-.615.788z"/><path fill="rgba(95,100,114,1)" d="M202 109l-23.462-20.286a31 31 0 0 0-.63.777z"/><path fill="rgba(95,100,113,1)" d="M202 109l-23.105-20.692a31 31 0 0 0-.642.766z"/><path fill="rgba(94,99,112,1)" d="M202 109l-22.74-21.093a31 31 0 0 0-.656.755z"/><path fill="rgba(93,98,112,1)" d="M202 109l-22.368-21.486a31 31 0 0 0-.67.743z"/><path fill="rgba(92,97,111,1)" d="M202 109l-21.99-21.873a31 31 0 0 0-.682.731z"/><path fill="rgba(91,96,110,1)" d="M202 109l-21.605-22.254a31 31 0 0 0-.695.72z"/><path fill="rgba(90,95,109,1)" d="M202 109l-21.213-22.627a31 31 0 0 0-.707.707z"/><path fill="rgba(89,94,108,1)" d="M202 109l-20.815-22.994a31 31 0 0 0-.72.694z"/><path fill="rgba(89,94,107,1)" d="M202 109l-20.41-23.354a31 31 0 0 0-.732.682z"/><path fill="rgba(88,93,106,1)" d="M202 109l-20-23.707a31 31 0 0 0-.743.67z"/><path fill="rgba(87,92,105,1)" d="M202 109l-19.583-24.052a31 31 0 0 0-.755.656z"/><path fill="rgba(86,91,104,1)" d="M202 109l-19.16-24.39a31 31 0 0 0-.766.643z"/><path fill="rgba(85,90,103,1)" d="M202 109l-18.732-24.72a31 31 0 0 0-.777.628z"/><path fill="rgba(84,89,103,1)" d="M202 109l-18.297-25.044a31 31 0 0 0-.789.616z"/><path fill="rgba(83,88,102,1)" d="M202 109l-17.858-25.36a31 31 0 0 0-.798.602z"/><path fill="rgba(83,88,101,1)" d="M202 109l-17.412-25.667a31 31 0 0 0-.81.587z"/><path fill="rgba(82,87,100,1)" d="M202 109l-16.962-25.967a31 31 0 0 0-.819.573z"/><path fill="rgba(81,86,99,1)" d="M202 109l-16.506-26.26a31 31 0 0 0-.829.56z"/><path fill="rgba(80,85,98,1)" d="M202 109l-16.045-26.543a31 31 0 0 0-.839.544z"/><path fill="rgba(80,85,98,1)" d="M202 109l-15.58-26.82a31 31 0 0 0-.847.53z"/><path fill="rgba(81,86,99,1)" d="M202 109l-15.109-27.087a31 31 0 0 0-.857.515z"/><path fill="rgba(81,86,99,1)" d="M202 109l-14.634-27.347a31 31 0 0 0-.866.5z"/><path fill="rgba(82,87,100,1)" d="M202 109l-14.154-27.598a31 31 0 0 0-.875.485z"/><path fill="rgba(82,87,100,1)" d="M202 109l-13.67-27.84a31 31 0 0 0-.884.469z"/><path fill="rgba(82,87,101,1)" d="M202 109l-13.183-28.075a31 31 0 0 0-.89.454z"/><path fill="rgba(83,88,101,1)" d="M202 109l-12.69-28.301a31 31 0 0 0-.9.438z"/><path fill="rgba(83,88,101,1)" d="M202 109l-12.195-28.518a31 31 0 0 0-.906.422z"/><path fill="rgba(84,89,102,1)" d="M202 109l-11.695-28.727a31 31 0 0 0-.914.407z"/><path fill="rgba(84,89,102,1)" d="M202 109l-11.192-28.926a31 31 0 0 0-.92.39z"/><path fill="rgba(84,89,103,1)" d="M202 109l-10.686-29.117a31 31 0 0 0-.927.374z"/><path fill="rgba(85,90,103,1)" d="M202 109l-10.176-29.3a31 31 0 0 0-.933.359z"/><path fill="rgba(85,90,103,1)" d="M202 109l-9.663-29.472a31 31 0 0 0-.94.342z"/><path fill="rgba(85,91,104,1)" d="M202 109l-9.147-29.637a31 31 0 0 0-.946.326z"/><path fill="rgba(86,91,104,1)" d="M202 109l-8.628-29.792a31 31 0 0 0-.952.31z"/><path fill="rgba(86,91,105,1)" d="M202 109l-8.107-29.938a31 31 0 0 0-.957.293z"/><path fill="rgba(87,92,105,1)" d="M202 109l-7.583-30.075a31 31 0 0 0-.962.276z"/><path fill="rgba(87,92,106,1)" d="M202 109l-7.057-30.203a31 31 0 0 0-.966.26z"/><path fill="rgba(87,93,106,1)" d="M202 109l-6.53-30.321a31 31 0 0 0-.97.242z"/><path fill="rgba(88,93,106,1)" d="M202 109l-6-30.43a31 31 0 0 0-.973.225z"/><path fill="rgba(88,93,107,1)" d="M202 109l-5.467-30.53a31 31 0 0 0-.978.207z"/><path fill="rgba(89,94,107,1)" d="M202 109l-4.933-30.621a31 31 0 0 0-.982.19z"/><path fill="rgba(89,94,108,1)" d="M202 109l-4.398-30.703a31 31 0 0 0-.985.174z"/><path fill="rgba(89,95,108,1)" d="M202 109l-3.862-30.775a31 31 0 0 0-.987.157z"/><path fill="rgba(90,95,108,1)" d="M202 109l-3.324-30.837a31 31 0 0 0-.99.139z"/><path fill="rgba(90,95,109,1)" d="M202 109l-2.785-30.89a31 31 0 0 0-.993.121z"/><path fill="rgba(91,96,109,1)" d="M202 109l-2.246-30.935a31 31 0 0 0-.994.105z"/><path fill="rgba(91,96,110,1)" d="M202 109l-1.706-30.97a31 31 0 0 0-.996.088z"/><path fill="rgba(91,97,110,1)" d="M202 109l-1.165-30.994a31 31 0 0 0-.997.07z"/><path fill="rgba(92,97,111,1)" d="M202 109l-.624-31.01a31 31 0 0 0-.998.052z"/><path fill="rgba(92,97,111,1)" d="M202 109l-.082-31.016a31 31 0 0 0-1 .035z"/><path fill="rgba(92,98,111,1)" d="M202 109l.459-31.013a31 31 0 0 0-1 .018z"/><path fill="rgba(93,98,112,1)" d="M202 109l1-31a31 31 0 0 0-1 0z"/><path fill="rgba(93,99,112,1)" d="M202 109l1.54-30.978a31 31 0 0 0-.999-.017z"/><path fill="rgba(94,99,113,1)" d="M202 109l2.081-30.946a31 31 0 0 0-1-.035z"/><path fill="rgba(94,100,113,1)" d="M202 109l2.621-30.905a31 31 0 0 0-.999-.053z"/><path fill="rgba(94,100,113,1)" d="M202 109l3.16-30.855a31 31 0 0 0-.998-.07z"/><path fill="rgba(95,100,114,1)" d="M202 109l3.698-30.795a31 31 0 0 0-.996-.087z"/><path fill="rgba(95,101,114,1)" d="M202 109l4.235-30.726a31 31 0 0 0-.995-.104z"/><path fill="rgba(96,101,115,1)" d="M202 109l4.77-30.647a31 31 0 0 0-.992-.122z"/><path fill="rgba(96,102,115,1)" d="M202 109l5.305-30.56a31 31 0 0 0-.99-.138z"/><path fill="rgba(96,102,116,1)" d="M202 109l5.837-30.462a31 31 0 0 0-.988-.156z"/><path fill="rgba(97,102,116,1)" d="M202 109l6.368-30.355a31 31 0 0 0-.985-.174z"/><path fill="rgba(97,103,116,1)" d="M202 109l6.897-30.24a31 31 0 0 0-.982-.19z"/><path fill="rgba(98,103,117,1)" d="M202 109l7.423-30.115a31 31 0 0 0-.978-.208z"/><path fill="rgba(98,104,117,1)" d="M202 109l7.948-29.98a31 31 0 0 0-.975-.225z"/><path fill="rgba(98,104,118,1)" d="M202 109l8.47-29.837a31 31 0 0 0-.97-.242z"/><path fill="rgba(99,104,118,1)" d="M202 109l8.99-29.685a31 31 0 0 0-.967-.259z"/><path fill="rgba(99,105,118,1)" d="M202 109l9.506-29.523a31 31 0 0 0-.961-.276z"/><path fill="rgba(99,105,119,1)" d="M202 109l10.02-29.353a31 31 0 0 0-.956-.292z"/><path fill="rgba(100,106,119,1)" d="M202 109l10.53-29.174a31 31 0 0 0-.95-.309z"/><path fill="rgba(100,106,120,1)" d="M202 109l11.038-28.986a31 31 0 0 0-.945-.325z"/><path fill="rgba(101,106,120,1)" d="M202 109l11.542-28.788a31 31 0 0 0-.94-.342z"/><path fill="rgba(101,107,121,1)" d="M202 109l12.043-28.583a31 31 0 0 0-.934-.358z"/><path fill="rgba(101,107,121,1)" d="M202 109l12.54-28.368a31 31 0 0 0-.927-.375z"/><path fill="rgba(102,108,121,1)" d="M202 109l13.033-28.145a31 31 0 0 0-.92-.39z"/><path fill="rgba(102,108,122,1)" d="M202 109l13.522-27.913a31 31 0 0 0-.913-.407z"/><path fill="rgba(103,108,122,1)" d="M202 109l14.007-27.673a31 31 0 0 0-.906-.423z"/><path fill="rgba(103,109,123,1)" d="M202 109l14.488-27.424a31 31 0 0 0-.898-.439z"/><path fill="rgba(103,109,123,1)" d="M202 109l14.965-27.167a31 31 0 0 0-.891-.454z"/><path fill="rgba(104,110,123,1)" d="M202 109l15.437-26.902a31 31 0 0 0-.883-.47z"/><path fill="rgba(104,110,124,1)" d="M202 109l15.904-26.628a31 31 0 0 0-.875-.485z"/><path fill="rgba(105,110,124,1)" d="M202 109l16.366-26.347a31 31 0 0 0-.866-.5z"/><path fill="rgba(105,111,125,1)" d="M202 109l16.823-26.057a31 31 0 0 0-.857-.515z"/><path fill="rgba(105,111,125,1)" d="M202 109l17.276-25.76a31 31 0 0 0-.849-.53z"/><path fill="rgba(106,112,126,1)" d="M202 109l17.722-25.454a31 31 0 0 0-.838-.545z"/><path fill="rgba(106,112,126,1)" d="M202 109l18.164-25.141a31 31 0 0 0-.829-.56z"/><path fill="rgba(106,112,126,1)" d="M202 109l18.6-24.82a31 31 0 0 0-.82-.574z"/><path fill="rgba(107,113,127,1)" d="M202 109l19.03-24.492a31 31 0 0 0-.809-.588z"/><path fill="rgba(107,113,127,1)" d="M202 109l19.455-24.156a31 31 0 0 0-.799-.602z"/><path fill="rgba(108,114,128,1)" d="M202 109l19.874-23.813a31 31 0 0 0-.788-.615z"/><path fill="rgba(108,114,128,1)" d="M202 109l20.286-23.462a31 31 0 0 0-.777-.63z"/><path fill="rgba(108,114,128,1)" d="M202 109l20.692-23.105a31 31 0 0 0-.766-.642z"/><path fill="rgba(107,113,127,1)" d="M202 109l21.093-22.74a31 31 0 0 0-.755-.656z"/><path fill="rgba(107,113,127,1)" d="M202 109l21.486-22.368a31 31 0 0 0-.743-.67z"/><path fill="rgba(107,113,127,1)" d="M202 109l21.873-21.99a31 31 0 0 0-.731-.682z"/><path fill="rgba(107,113,126,1)" d="M202 109l22.254-21.605a31 31 0 0 0-.72-.695z"/><path fill="rgba(106,112,126,1)" d="M202 109l22.627-21.213a31 31 0 0 0-.707-.707z"/><path fill="rgba(106,112,126,1)" d="M202 109l22.994-20.815a31 31 0 0 0-.694-.72z"/><path fill="rgba(106,112,125,1)" d="M202 109l23.354-20.41a31 31 0 0 0-.682-.732z"/><path fill="rgba(105,111,125,1)" d="M202 109l23.707-20a31 31 0 0 0-.67-.743z"/><path fill="rgba(105,111,125,1)" d="M202 109l24.052-19.583a31 31 0 0 0-.656-.755z"/><path fill="rgba(105,111,125,1)" d="M202 109l24.39-19.16a31 31 0 0 0-.643-.766z"/><path fill="rgba(104,110,124,1)" d="M202 109l24.72-18.732a31 31 0 0 0-.628-.777z"/><path fill="rgba(104,110,124,1)" d="M202 109l25.044-18.297a31 31 0 0 0-.616-.789z"/><path fill="rgba(104,110,124,1)" d="M202 109l25.36-17.858a31 31 0 0 0-.602-.798z"/><path fill="rgba(104,110,123,1)" d="M202 109l25.667-17.412a31 31 0 0 0-.587-.81z"/><path fill="rgba(103,109,123,1)" d="M202 109l25.967-16.962a31 31 0 0 0-.573-.819z"/><path fill="rgba(103,109,123,1)" d="M202 109l26.26-16.506a31 31 0 0 0-.56-.829z"/><path fill="rgba(103,109,122,1)" d="M202 109l26.543-16.045a31 31 0 0 0-.544-.839z"/><path fill="rgba(102,108,122,1)" d="M202 109l26.82-15.58a31 31 0 0 0-.53-.847z"/><path fill="rgba(102,108,122,1)" d="M202 109l27.087-15.109a31 31 0 0 0-.515-.857z"/><path fill="rgba(102,108,121,1)" d="M202 109l27.347-14.634a31 31 0 0 0-.5-.866z"/><path fill="rgba(102,108,121,1)" d="M202 109l27.598-14.154a31 31 0 0 0-.485-.875z"/><path fill="rgba(101,107,121,1)" d="M202 109l27.84-13.67a31 31 0 0 0-.469-.884z"/><path fill="rgba(101,107,120,1)" d="M202 109l28.075-13.183a31 31 0 0 0-.454-.89z"/><path fill="rgba(101,107,120,1)" d="M202 109l28.301-12.69a31 31 0 0 0-.438-.9z"/><path fill="rgba(100,106,120,1)" d="M202 109l28.518-12.195a31 31 0 0 0-.422-.906z"/><path fill="rgba(100,106,120,1)" d="M202 109l28.727-11.695a31 31 0 0 0-.407-.914z"/><path fill="rgba(100,106,119,1)" d="M202 109l28.926-11.192a31 31 0 0 0-.39-.92z"/><path fill="rgba(99,105,119,1)" d="M202 109l29.117-10.686a31 31 0 0 0-.374-.927z"/><path fill="rgba(99,105,119,1)" d="M202 109l29.3-10.176a31 31 0 0 0-.359-.933z"/><path fill="rgba(99,105,118,1)" d="M202 109l29.472-9.663a31 31 0 0 0-.342-.94z"/><path fill="rgba(99,105,118,1)" d="M202 109l29.637-9.147a31 31 0 0 0-.326-.946z"/><path fill="rgba(98,104,118,1)" d="M202 109l29.792-8.628a31 31 0 0 0-.31-.952z"/><path fill="rgba(98,104,117,1)" d="M202 109l29.938-8.107a31 31 0 0 0-.293-.957z"/><path fill="rgba(98,104,117,1)" d="M202 109l30.075-7.583a31 31 0 0 0-.276-.962z"/><path fill="rgba(97,103,117,1)" d="M202 109l30.203-7.057a31 31 0 0 0-.26-.966z"/><path fill="rgba(97,103,116,1)" d="M202 109l30.321-6.53a31 31 0 0 0-.242-.97z"/><path fill="rgba(97,103,116,1)" d="M202 109l30.43-6a31 31 0 0 0-.225-.973z"/><path fill="rgba(97,103,116,1)" d="M202 109l30.53-5.467a31 31 0 0 0-.207-.978z"/><path fill="rgba(96,102,115,1)" d="M202 109l30.621-4.933a31 31 0 0 0-.19-.982z"/><path fill="rgba(96,102,115,1)" d="M202 109l30.703-4.398a31 31 0 0 0-.174-.985z"/><path fill="rgba(96,102,115,1)" d="M202 109l30.775-3.862a31 31 0 0 0-.157-.987z"/><path fill="rgba(95,101,115,1)" d="M202 109l30.837-3.324a31 31 0 0 0-.139-.99z"/><path fill="rgba(95,101,114,1)" d="M202 109l30.89-2.785a31 31 0 0 0-.121-.993z"/><path fill="rgba(95,101,114,1)" d="M202 109l30.935-2.246a31 31 0 0 0-.105-.994z"/><path fill="rgba(94,100,114,1)" d="M202 109l30.97-1.706a31 31 0 0 0-.088-.996z"/><path fill="rgba(94,100,113,1)" d="M202 109l30.994-1.165a31 31 0 0 0-.07-.997z"/><path fill="rgba(94,100,113,1)" d="M202 109l31.01-.624a31 31 0 0 0-.052-.998z"/><path fill="rgba(94,100,113,1)" d="M202 109l31.016-.082a31 31 0 0 0-.035-1z"/><path fill="rgba(93,99,112,1)" d="M202 109l31.013.459a31 31 0 0 0-.018-1z"/></g></g><path fill="#fff" fill-opacity=".22" d="M185 127V91h34v36zm16.796-4.858c7.923 0 14.346-6.423 14.346-14.346s-6.423-14.346-14.346-14.346-14.346 6.423-14.346 14.346 6.423 14.346 14.346 14.346z" filter="url(#5bh8y)" mask="url(&quot;#5bh8z&quot;)"/></g><g><g opacity=".3"><g filter="url(#5bh8A)"><path fill="none" d="M269.578 85.158s-45.84 28.248-53.692 93.41l-10.58 1.545s-6.368-69.949 53.343-101.317l6.579-3.256z" mask="url(&quot;#5bh8B&quot;)"/><path fill="#171e2e" fill-opacity=".4" d="M269.578 85.158s-45.84 28.248-53.692 93.41l-10.58 1.545s-6.368-69.949 53.343-101.317l6.579-3.256z"/></g><path fill="url(#5bh8C)" d="M269.578 85.158s-45.84 28.248-53.692 93.41l-10.58 1.545s-6.368-69.949 53.343-101.317l6.579-3.256z"/></g><g opacity=".3"><g filter="url(#5bh8D)"><path fill="none" d="M133.15 85.158s45.84 28.248 53.692 93.41l10.58 1.545s6.368-69.949-53.343-101.317l-6.578-3.256z" mask="url(&quot;#5bh8E&quot;)"/><path fill="#171e2e" fill-opacity=".4" d="M133.15 85.158s45.84 28.248 53.692 93.41l10.58 1.545s6.368-69.949-53.343-101.317l-6.578-3.256z"/></g><path fill="url(#5bh8F)" d="M133.15 85.158s45.84 28.248 53.692 93.41l10.58 1.545s6.368-69.949-53.343-101.317l-6.578-3.256z"/></g><g opacity=".3" transform="rotate(120 201.5 75)"><g filter="url(#5bh8G)"><path fill="none" d="M170.15 25.158s45.84 28.248 53.692 93.41l10.58 1.545s6.368-69.949-53.343-101.317l-6.578-3.256z" mask="url(&quot;#5bh8H&quot;)"/><path fill="#10141d" fill-opacity=".61" d="M170.15 25.158s45.84 28.248 53.692 93.41l10.58 1.545s6.368-69.949-53.343-101.317l-6.578-3.256z"/></g><path fill="url(#5bh8I)" d="M170.15 25.158s45.84 28.248 53.692 93.41l10.58 1.545s6.368-69.949-53.343-101.317l-6.578-3.256z"/></g></g><g><g><g filter="url(#5bh8J)"><path fill="none" d="M164.213 134.895a1.783 1.783 0 1 0 0-3.565 1.783 1.783 0 0 0 0 3.565z" mask="url(&quot;#5bh8K&quot;)"/><path fill="#fff" fill-opacity=".1" d="M164.213 134.895a1.783 1.783 0 1 0 0-3.565 1.783 1.783 0 0 0 0 3.565z"/></g><path fill="#1a1923" d="M164.213 134.895a1.783 1.783 0 1 0 0-3.565 1.783 1.783 0 0 0 0 3.565z"/></g><g><g filter="url(#5bh8L)"><path fill="none" d="M170.163 143.215a1.783 1.783 0 1 0 0-3.565 1.783 1.783 0 0 0 0 3.565z" mask="url(&quot;#5bh8M&quot;)"/><path fill="#fff" fill-opacity=".1" d="M170.163 143.215a1.783 1.783 0 1 0 0-3.565 1.783 1.783 0 0 0 0 3.565z"/></g><path fill="#1a1923" d="M170.163 143.215a1.783 1.783 0 1 0 0-3.565 1.783 1.783 0 0 0 0 3.565z"/></g><g><g filter="url(#5bh8N)"><path fill="none" d="M176.103 151.535a1.783 1.783 0 1 0 0-3.565 1.783 1.783 0 0 0 0 3.565z" mask="url(&quot;#5bh8O&quot;)"/><path fill="#fff" fill-opacity=".1" d="M176.103 151.535a1.783 1.783 0 1 0 0-3.565 1.783 1.783 0 0 0 0 3.565z"/></g><path fill="#1a1923" d="M176.103 151.535a1.783 1.783 0 1 0 0-3.565 1.783 1.783 0 0 0 0 3.565z"/></g><g><g filter="url(#5bh8P)"><path fill="none" d="M160.653 144.405a1.783 1.783 0 1 0 0-3.565 1.783 1.783 0 0 0 0 3.565z" mask="url(&quot;#5bh8Q&quot;)"/><path fill="#fff" fill-opacity=".1" d="M160.653 144.405a1.783 1.783 0 1 0 0-3.565 1.783 1.783 0 0 0 0 3.565z"/></g><path fill="#1a1923" d="M160.653 144.405a1.783 1.783 0 1 0 0-3.565 1.783 1.783 0 0 0 0 3.565z"/></g><g><g filter="url(#5bh8R)"><path fill="none" d="M154.713 136.085a1.783 1.783 0 1 0 0-3.565 1.783 1.783 0 0 0 0 3.565z" mask="url(&quot;#5bh8S&quot;)"/><path fill="#fff" fill-opacity=".1" d="M154.713 136.085a1.783 1.783 0 1 0 0-3.565 1.783 1.783 0 0 0 0 3.565z"/></g><path fill="#1a1923" d="M154.713 136.085a1.783 1.783 0 1 0 0-3.565 1.783 1.783 0 0 0 0 3.565z"/></g><g opacity=".7"><g filter="url(#5bh8T)"><path fill="none" d="M149.953 144.405a1.783 1.783 0 1 0 0-3.565 1.783 1.783 0 0 0 0 3.565z" mask="url(&quot;#5bh8U&quot;)"/><path fill="#fff" fill-opacity=".1" d="M149.953 144.405a1.783 1.783 0 1 0 0-3.565 1.783 1.783 0 0 0 0 3.565z"/></g><path fill="#0d0c14" d="M149.953 144.405a1.783 1.783 0 1 0 0-3.565 1.783 1.783 0 0 0 0 3.565z"/></g><g opacity=".7"><g filter="url(#5bh8V)"><path fill="none" d="M142.823 134.895a1.783 1.783 0 1 0 0-3.565 1.783 1.783 0 0 0 0 3.565z" mask="url(&quot;#5bh8W&quot;)"/><path fill="#fff" fill-opacity=".1" d="M142.823 134.895a1.783 1.783 0 1 0 0-3.565 1.783 1.783 0 0 0 0 3.565z"/></g><path fill="#0d0c14" d="M142.823 134.895a1.783 1.783 0 1 0 0-3.565 1.783 1.783 0 0 0 0 3.565z"/></g><g opacity=".6"><g filter="url(#5bh8X)"><path fill="none" d="M155.903 153.905a1.783 1.783 0 1 0 0-3.565 1.783 1.783 0 0 0 0 3.565z" mask="url(&quot;#5bh8Y&quot;)"/><path fill="#fff" fill-opacity=".1" d="M155.903 153.905a1.783 1.783 0 1 0 0-3.565 1.783 1.783 0 0 0 0 3.565z"/></g><path fill="#0d0c14" d="M155.903 153.905a1.783 1.783 0 1 0 0-3.565 1.783 1.783 0 0 0 0 3.565z"/></g><g><g filter="url(#5bh8Z)"><path fill="none" d="M148.773 127.765a1.783 1.783 0 1 0 0-3.565 1.783 1.783 0 0 0 0 3.565z" mask="url(&quot;#5bh8aa&quot;)"/><path fill="#fff" fill-opacity=".1" d="M148.773 127.765a1.783 1.783 0 1 0 0-3.565 1.783 1.783 0 0 0 0 3.565z"/></g><path fill="#1a1923" d="M148.773 127.765a1.783 1.783 0 1 0 0-3.565 1.783 1.783 0 0 0 0 3.565z"/></g><g><g filter="url(#5bh8ab)"><path fill="none" d="M166.593 152.725a1.783 1.783 0 1 0 0-3.565 1.783 1.783 0 0 0 0 3.565z" mask="url(&quot;#5bh8ac&quot;)"/><path fill="#fff" fill-opacity=".1" d="M166.593 152.725a1.783 1.783 0 1 0 0-3.565 1.783 1.783 0 0 0 0 3.565z"/></g><path fill="#1a1923" d="M166.593 152.725a1.783 1.783 0 1 0 0-3.565 1.783 1.783 0 0 0 0 3.565z"/></g><g><g filter="url(#5bh8ad)"><path fill="none" d="M172.533 161.035a1.783 1.783 0 1 0 0-3.565 1.783 1.783 0 0 0 0 3.565z" mask="url(&quot;#5bh8ae&quot;)"/><path fill="#fff" fill-opacity=".1" d="M172.533 161.035a1.783 1.783 0 1 0 0-3.565 1.783 1.783 0 0 0 0 3.565z"/></g><path fill="#1a1923" d="M172.533 161.035a1.783 1.783 0 1 0 0-3.565 1.783 1.783 0 0 0 0 3.565z"/></g></g><g transform="matrix(-1 0 0 1 489 0)"><g><g filter="url(#5bh8af)"><path fill="none" d="M248.363 134.895a1.783 1.783 0 1 0 0-3.565 1.783 1.783 0 0 0 0 3.565z" mask="url(&quot;#5bh8ag&quot;)"/><path fill="#fff" fill-opacity=".1" d="M248.363 134.895a1.783 1.783 0 1 0 0-3.565 1.783 1.783 0 0 0 0 3.565z"/></g><path fill="#282734" d="M248.363 134.895a1.783 1.783 0 1 0 0-3.565 1.783 1.783 0 0 0 0 3.565z"/></g><g><g filter="url(#5bh8ah)"><path fill="none" d="M254.303 143.215a1.783 1.783 0 1 0 0-3.565 1.783 1.783 0 0 0 0 3.565z" mask="url(&quot;#5bh8ai&quot;)"/><path fill="#fff" fill-opacity=".1" d="M254.303 143.215a1.783 1.783 0 1 0 0-3.565 1.783 1.783 0 0 0 0 3.565z"/></g><path fill="#282734" d="M254.303 143.215a1.783 1.783 0 1 0 0-3.565 1.783 1.783 0 0 0 0 3.565z"/></g><g><g filter="url(#5bh8aj)"><path fill="none" d="M260.243 151.535a1.783 1.783 0 1 0 0-3.565 1.783 1.783 0 0 0 0 3.565z" mask="url(&quot;#5bh8ak&quot;)"/><path fill="#fff" fill-opacity=".1" d="M260.243 151.535a1.783 1.783 0 1 0 0-3.565 1.783 1.783 0 0 0 0 3.565z"/></g><path fill="#282734" d="M260.243 151.535a1.783 1.783 0 1 0 0-3.565 1.783 1.783 0 0 0 0 3.565z"/></g><g><g filter="url(#5bh8al)"><path fill="none" d="M244.793 144.405a1.783 1.783 0 1 0 0-3.565 1.783 1.783 0 0 0 0 3.565z" mask="url(&quot;#5bh8am&quot;)"/><path fill="#fff" fill-opacity=".1" d="M244.793 144.405a1.783 1.783 0 1 0 0-3.565 1.783 1.783 0 0 0 0 3.565z"/></g><path fill="#22212d" d="M244.793 144.405a1.783 1.783 0 1 0 0-3.565 1.783 1.783 0 0 0 0 3.565z"/></g><g><g filter="url(#5bh8an)"><path fill="none" d="M238.853 136.085a1.783 1.783 0 1 0 0-3.565 1.783 1.783 0 0 0 0 3.565z" mask="url(&quot;#5bh8ao&quot;)"/><path fill="#fff" fill-opacity=".1" d="M238.853 136.085a1.783 1.783 0 1 0 0-3.565 1.783 1.783 0 0 0 0 3.565z"/></g><path fill="#22212d" d="M238.853 136.085a1.783 1.783 0 1 0 0-3.565 1.783 1.783 0 0 0 0 3.565z"/></g><g opacity=".7"><g filter="url(#5bh8ap)"><path fill="none" d="M234.103 144.405a1.783 1.783 0 1 0 0-3.565 1.783 1.783 0 0 0 0 3.565z" mask="url(&quot;#5bh8aq&quot;)"/><path fill="#fff" fill-opacity=".1" d="M234.103 144.405a1.783 1.783 0 1 0 0-3.565 1.783 1.783 0 0 0 0 3.565z"/></g><path fill="#171722" d="M234.103 144.405a1.783 1.783 0 1 0 0-3.565 1.783 1.783 0 0 0 0 3.565z"/></g><g opacity=".7"><g filter="url(#5bh8ar)"><path fill="none" d="M226.973 134.895a1.783 1.783 0 1 0 0-3.565 1.783 1.783 0 0 0 0 3.565z" mask="url(&quot;#5bh8as&quot;)"/><path fill="#fff" fill-opacity=".1" d="M226.973 134.895a1.783 1.783 0 1 0 0-3.565 1.783 1.783 0 0 0 0 3.565z"/></g><path fill="#171722" d="M226.973 134.895a1.783 1.783 0 1 0 0-3.565 1.783 1.783 0 0 0 0 3.565z"/></g><g opacity=".6"><g filter="url(#5bh8at)"><path fill="none" d="M240.043 153.905a1.783 1.783 0 1 0 0-3.565 1.783 1.783 0 0 0 0 3.565z" mask="url(&quot;#5bh8au&quot;)"/><path fill="#fff" fill-opacity=".1" d="M240.043 153.905a1.783 1.783 0 1 0 0-3.565 1.783 1.783 0 0 0 0 3.565z"/></g><path fill="#171722" d="M240.043 153.905a1.783 1.783 0 1 0 0-3.565 1.783 1.783 0 0 0 0 3.565z"/></g><g><g filter="url(#5bh8av)"><path fill="none" d="M232.913 127.765a1.783 1.783 0 1 0 0-3.565 1.783 1.783 0 0 0 0 3.565z" mask="url(&quot;#5bh8aw&quot;)"/><path fill="#fff" fill-opacity=".1" d="M232.913 127.765a1.783 1.783 0 1 0 0-3.565 1.783 1.783 0 0 0 0 3.565z"/></g><path fill="#22212d" d="M232.913 127.765a1.783 1.783 0 1 0 0-3.565 1.783 1.783 0 0 0 0 3.565z"/></g><g><g filter="url(#5bh8ax)"><path fill="none" d="M250.733 152.725a1.783 1.783 0 1 0 0-3.565 1.783 1.783 0 0 0 0 3.565z" mask="url(&quot;#5bh8ay&quot;)"/><path fill="#fff" fill-opacity=".1" d="M250.733 152.725a1.783 1.783 0 1 0 0-3.565 1.783 1.783 0 0 0 0 3.565z"/></g><path fill="#22212d" d="M250.733 152.725a1.783 1.783 0 1 0 0-3.565 1.783 1.783 0 0 0 0 3.565z"/></g><g><g filter="url(#5bh8az)"><path fill="none" d="M256.683 161.035a1.783 1.783 0 1 0 0-3.565 1.783 1.783 0 0 0 0 3.565z" mask="url(&quot;#5bh8aA&quot;)"/><path fill="#fff" fill-opacity=".1" d="M256.683 161.035a1.783 1.783 0 1 0 0-3.565 1.783 1.783 0 0 0 0 3.565z"/></g><path fill="#22212d" d="M256.683 161.035a1.783 1.783 0 1 0 0-3.565 1.783 1.783 0 0 0 0 3.565z"/></g></g></g></g><g><g><path fill="url(#5bh8aB)" d="M202.327 37.002A72.003 72.003 0 0 1 274 109.328c-.181 39.764-32.562 71.852-72.325 71.673-39.764-.18-71.853-32.561-71.674-72.325.181-39.763 32.561-71.852 72.325-71.674zm.1-22c-51.915-.233-94.19 41.66-94.425 93.574-.234 51.915 41.66 94.19 93.574 94.425 51.914.235 94.19-41.659 94.425-93.573a94.005 94.005 0 0 0-93.574-94.426z"/><path fill="#bdc1cb" fill-opacity=".77" d="M104 208V10h196v198zm98.327-169.998A72.003 72.003 0 0 1 274 110.328c-.181 39.764-32.562 71.852-72.325 71.673-39.764-.18-71.853-32.561-71.674-72.325.181-39.763 32.561-71.852 72.325-71.674zm.1-22c-51.915-.233-94.19 41.66-94.425 93.574-.234 51.915 41.66 94.19 93.574 94.425 51.914.235 94.19-41.659 94.425-93.573a94.005 94.005 0 0 0-93.574-94.426z" filter="url(#5bh8aC)" mask="url(&quot;#5bh8aD&quot;)"/><path fill="#bec3d6" fill-opacity=".34" d="M93 214V4h218v210zM209.327 40.002A72.003 72.003 0 0 1 281 112.328c-.181 39.764-32.562 71.852-72.325 71.673-39.764-.18-71.853-32.561-71.674-72.325.181-39.763 32.561-71.852 72.325-71.674zm.1-22c-51.915-.233-94.19 41.66-94.425 93.574-.234 51.915 41.66 94.19 93.574 94.425 51.914.235 94.19-41.659 94.425-93.573a94.005 94.005 0 0 0-93.574-94.426z" filter="url(#5bh8aE)" mask="url(&quot;#5bh8aF&quot;)"/><path fill="none" stroke="#d5d7df" stroke-miterlimit="20" stroke-opacity=".31" d="M202.327 37.002A72.003 72.003 0 0 1 274 109.328c-.181 39.764-32.562 71.852-72.325 71.673-39.764-.18-71.853-32.561-71.674-72.325.181-39.763 32.561-71.852 72.325-71.674zm.1-22c-51.915-.233-94.19 41.66-94.425 93.574-.234 51.915 41.66 94.19 93.574 94.425 51.914.235 94.19-41.659 94.425-93.573a94.005 94.005 0 0 0-93.574-94.426z"/></g><g><path fill="none" stroke="#000" stroke-miterlimit="20" stroke-width="14" d="M202 181c39.764 0 72-32.236 72-72s-32.236-72-72-72-72 32.236-72 72 32.236 72 72 72z" clip-path="url(&quot;#5bh8aG&quot;)"/></g></g><g><g><path fill="#4a484d" d="M114.43 103.33h2.126v12.632h-2.126z"/></g><g><path fill="url(#5bh8aH)" d="M116.3 91.32h3.127v36.644H116.3z"/></g><g><path fill="url(#5bh8aI)" d="M67.278 179.12c-18.51 1.001-33.518-29.765-33.518-68.785 0-39.02 15.008-71.288 33.518-72.288s33.517 29.64 33.517 68.66c0 39.021-15.007 71.288-33.517 72.414zM59.774 11.034C34.51 12.533 14 57.307 14 111.085c0 53.778 20.51 96.3 45.774 94.925 25.263-1.376 45.649-46.15 45.649-100.053s-20.51-96.3-45.649-94.924z"/><path fill="none" stroke="#fff" stroke-miterlimit="20" stroke-opacity=".54" d="M67.278 179.12c-18.51 1.001-33.518-29.765-33.518-68.785 0-39.02 15.008-71.288 33.518-72.288s33.517 29.64 33.517 68.66c0 39.021-15.007 71.288-33.517 72.414zM59.774 11.034C34.51 12.533 14 57.307 14 111.085c0 53.778 20.51 96.3 45.774 94.925 25.263-1.376 45.649-46.15 45.649-100.053s-20.51-96.3-45.649-94.924z" clip-path="url(&quot;#5bh8aJ&quot;)"/></g><g opacity=".3"><path fill="url(#5bh8aK)" d="M67.521 179.133c-18.632 1-33.762-29.768-33.762-68.792s15.13-71.294 33.762-72.294c18.632-1 34.013 29.643 34.013 68.667s-15.506 71.294-34.013 72.42zm10.26-160.97V14.16L63.025 12.91a27.014 27.014 0 0 0-17.384 7.504c-16.634 14.883-28.39 50.151-28.39 90.672 0 52.653 20.01 94.425 44.773 93.05h2.627l9.88-.751v-3.502c18.635-12.507 32.267-50.026 32.267-93.424.125-41.397-12.006-75.665-29.015-88.296z"/></g><g><g filter="url(#5bh8aL)"><path fill="none" d="M69.656 179.115c-15.384 1-27.891-29.766-27.891-68.786S54.272 39.04 69.656 38.04c15.384-1 27.891 29.64 27.891 68.66 0 39.021-12.507 71.288-27.891 72.414zm46.774-50.902h-2.376s1-9.13 1-18.26-1-18.76-1-18.76h2.501c-.75-6.252-1.5-10.63-1.5-10.63l2.5-1.5c-5.377-38.646-22.386-66.035-42.522-64.91C50.395 15.53 30.51 58.802 30.51 111.08c0 52.278 19.885 93.299 44.523 91.923 19.01-1 35.394-27.514 41.647-63.658l-1.626-1s.75-4.128 1.376-10.13z" mask="url(&quot;#5bh8aM&quot;)"/><path fill="#8890b3" fill-opacity=".51" d="M69.656 179.115c-15.384 1-27.891-29.766-27.891-68.786S54.272 39.04 69.656 38.04c15.384-1 27.891 29.64 27.891 68.66 0 39.021-12.507 71.288-27.891 72.414zm46.774-50.902h-2.376s1-9.13 1-18.26-1-18.76-1-18.76h2.501c-.75-6.252-1.5-10.63-1.5-10.63l2.5-1.5c-5.377-38.646-22.386-66.035-42.522-64.91C50.395 15.53 30.51 58.802 30.51 111.08c0 52.278 19.885 93.299 44.523 91.923 19.01-1 35.394-27.514 41.647-63.658l-1.626-1s.75-4.128 1.376-10.13z"/></g><g filter="url(#5bh8aN)"><path fill="none" d="M69.656 179.115c-15.384 1-27.891-29.766-27.891-68.786S54.272 39.04 69.656 38.04c15.384-1 27.891 29.64 27.891 68.66 0 39.021-12.507 71.288-27.891 72.414zm46.774-50.902h-2.376s1-9.13 1-18.26-1-18.76-1-18.76h2.501c-.75-6.252-1.5-10.63-1.5-10.63l2.5-1.5c-5.377-38.646-22.386-66.035-42.522-64.91C50.395 15.53 30.51 58.802 30.51 111.08c0 52.278 19.885 93.299 44.523 91.923 19.01-1 35.394-27.514 41.647-63.658l-1.626-1s.75-4.128 1.376-10.13z" mask="url(&quot;#5bh8aO&quot;)"/><path fill="#979cae" fill-opacity=".38" d="M69.656 179.115c-15.384 1-27.891-29.766-27.891-68.786S54.272 39.04 69.656 38.04c15.384-1 27.891 29.64 27.891 68.66 0 39.021-12.507 71.288-27.891 72.414zm46.774-50.902h-2.376s1-9.13 1-18.26-1-18.76-1-18.76h2.501c-.75-6.252-1.5-10.63-1.5-10.63l2.5-1.5c-5.377-38.646-22.386-66.035-42.522-64.91C50.395 15.53 30.51 58.802 30.51 111.08c0 52.278 19.885 93.299 44.523 91.923 19.01-1 35.394-27.514 41.647-63.658l-1.626-1s.75-4.128 1.376-10.13z"/></g><path fill="url(#5bh8aP)" d="M69.656 179.115c-15.384 1-27.891-29.766-27.891-68.786S54.272 39.04 69.656 38.04c15.384-1 27.891 29.64 27.891 68.66 0 39.021-12.507 71.288-27.891 72.414zm46.774-50.902h-2.376s1-9.13 1-18.26-1-18.76-1-18.76h2.501c-.75-6.252-1.5-10.63-1.5-10.63l2.5-1.5c-5.377-38.646-22.386-66.035-42.522-64.91C50.395 15.53 30.51 58.802 30.51 111.08c0 52.278 19.885 93.299 44.523 91.923 19.01-1 35.394-27.514 41.647-63.658l-1.626-1s.75-4.128 1.376-10.13z"/><path fill="#fff" fill-opacity=".96" d="M22 211V6h104v205zm51.656-27.885c-15.384 1-27.891-29.766-27.891-68.786S58.272 43.04 73.656 42.04c15.384-1 27.891 29.64 27.891 68.66 0 39.021-12.507 71.288-27.891 72.414zm46.774-50.902h-2.376s1-9.13 1-18.26-1-18.76-1-18.76h2.501c-.75-6.252-1.5-10.63-1.5-10.63l2.5-1.5c-5.377-38.646-22.386-66.035-42.522-64.91C54.395 19.53 34.51 62.802 34.51 115.08c0 52.278 19.885 93.299 44.523 91.923 19.01-1 35.394-27.514 41.647-63.658l-1.626-1s.75-4.128 1.376-10.13z" filter="url(#5bh8aQ)" mask="url(&quot;#5bh8aR&quot;)"/><path fill="none" stroke="#fff" stroke-miterlimit="20" stroke-opacity=".54" d="M69.656 179.115c-15.384 1-27.891-29.766-27.891-68.786S54.272 39.04 69.656 38.04c15.384-1 27.891 29.64 27.891 68.66 0 39.021-12.507 71.288-27.891 72.414zm46.774-50.902h-2.376s1-9.13 1-18.26-1-18.76-1-18.76h2.501c-.75-6.252-1.5-10.63-1.5-10.63l2.5-1.5c-5.377-38.646-22.386-66.035-42.522-64.91C50.395 15.53 30.51 58.802 30.51 111.08c0 52.278 19.885 93.299 44.523 91.923 19.01-1 35.394-27.514 41.647-63.658l-1.626-1s.75-4.128 1.376-10.13z" clip-path="url(&quot;#5bh8aS&quot;)"/></g><g><path fill="url(#5bh8aT)" d="M109.929 106.576c0-40.271-16.259-72.163-36.27-71.037a22.387 22.387 0 0 0-17.383 12.506 18.76 18.76 0 0 1 13.382-9.505c15.383-1.125 27.89 29.641 27.89 68.661s-12.507 71.288-27.89 72.413a18.01 18.01 0 0 1-15.008-10.13 20.886 20.886 0 0 0 19.01 12.507c20.01-1.501 36.269-35.019 36.269-75.415z"/></g><g opacity=".5"><path fill="url(#5bh8aU)" d="M69.65 179.614c-15.383 0-27.89-29.89-27.89-68.911 0-39.02 12.507-72.663 27.89-72.663 21.26 0 33.767 29.766 33.767 68.911 0 39.146-10.38 72.663-33.767 72.663z"/></g><g opacity=".2"><path fill="#312e34" d="M112.551 157.361l-3.627-5.253a193.85 193.85 0 0 0 6.003-42.772 188.598 188.598 0 0 0-6.003-42.397l5.128-7.379-4.753 6.879a195.852 195.852 0 0 1 6.003 42.522 197.854 197.854 0 0 1-6.003 42.772l3.627 5.253z"/></g><g><path fill="url(#5bh8aW)" d="M39.013 130.716a1.25 1.25 0 0 1-1.25 1.5s-4.878 2.252-6.253 2.627c-1.66.22-3.343.22-5.003 0a76.915 76.915 0 0 1-1.626-20.386 88.796 88.796 0 0 1 1.626-20.635 15.883 15.883 0 0 1 4.377 0c1.126 0 7.38 2.751 7.38 2.751a1.5 1.5 0 0 1 1.25 1.5c-.5 2.502-.765 10.381-.765 17.26 0 6.878 0 10.81.264 15.383z"/></g><g><path fill="url(#5bh8aX)" d="M33.776 130.278c-2.905 1.684-4.03 2.798-7.27 3.688-.587-6.574-2.324-13.187-1.736-19.76-.495-6.62 1.242-13.267 1.737-19.886 3.001.9 4.794 2.072 7.605 4.021 0 0-.862 7.86-.862 16.24 0 8.379.385 10.42.526 15.697z"/></g><g opacity=".4"><path fill="url(#5bh8aY)" d="M33.639 114.27c0-8.379.67-15.573.42-16.198-2.837-1.818-4.672-2.253-7.549-3.752 2.251.9 4.35 2.16 6.8 3.752 0 0-.422 7.694-.422 15.948 0 8.255 1.297 15.949.296 16.449-2.524 1.536-4.128 2.794-6.924 3.752 3.109-.92 5.012-2.222 7.8-3.877 0 0-.421-7.57-.421-16.074z"/></g><g transform="rotate(180 29.5 114)"><path fill="url(#5bh8aZ)" d="M28.13 111.13a.05.05 0 0 1 .05-.05h2.651a.05.05 0 0 1 .05.05v5.528a.05.05 0 0 1-.05.05H28.18a.05.05 0 0 1-.05-.05z"/></g><g transform="rotate(180 29 114)"><path fill="url(#5bh8ba)" d="M28.13 111.33h1.25v5.253h-1.25z"/></g><g opacity=".4" transform="rotate(180 29.5 114)"><path fill="#62656f" d="M28.13 111.13a.05.05 0 0 1 .05-.05h2.651a.05.05 0 0 1 .05.05v5.528a.05.05 0 0 1-.05.05H28.18a.05.05 0 0 1-.05-.05z"/></g><g><path fill="url(#5bh8bb)" d="M33.39 112.58h3v2.751h-3z"/></g><g transform="rotate(180 31 114)"><path fill="url(#5bh8bc)" d="M28.01 112.58h5.628v2.751H28.01z"/></g><g opacity=".4"><path fill="url(#5bh8bd)" d="M135.685 107.209c-5.753-15.133-37.52-56.405-58.28-55.904-20.762.5-27.265 37.52-27.265 58.655 0 31.392 11.756 56.28 26.139 55.404a296.655 296.655 0 0 0 44.398-10.63c6.753-3.752 20.76-32.517 15.008-47.525z"/></g><g opacity=".4"><path fill="url(#5bh8be)" d="M135.692 106.951a108.056 108.056 0 0 0-13.507-21.636c-11.006-12.506-25.013-27.64-33.017-27.514-5.753 0-2.877 15.758 1.5 28.265 4.378 12.506 9.13 17.884 10.881 25.013 1.751 7.128 8.63 38.52 19.135 38.395 4.628 0 8.63-5.503 11.631-11.506a46.15 46.15 0 0 0 3.377-31.017z"/></g><g filter="url(#5bh8bf)" transform="rotate(124.569)"><g transform="rotate(-124.569)"><path fill="#e6e6e6" d="M74.95 50.639c0 1.067-14.496 2.134-20.224 29.88-5.144 25.85-3.508 33.676-5.612 32.965a79.535 79.535 0 0 1 3.975-53.596c8.65-20.277 22.095-14.111 21.861-9.25z"/></g></g><g filter="url(#5bh8bg)"><g><path fill="#e6e6e6" d="M50.061 136.088c3.446-1.28 7.486 13.601 11.883 19.414 4.396 5.813 7.486 8.72 11.882 8.835 9.506 0 17.586-3.72 17.943-1.976.356 1.744-15.685 26.04-30.657 9.765-11.407-11.625-13.784-34.876-11.051-36.038z"/></g></g><g filter="url(#5bh8bh)" transform="rotate(42.107)"><g transform="rotate(-42.107)"><path fill="#fff" d="M53.27 86.94a51.152 51.152 0 0 0-1.752 18.635 128.067 128.067 0 0 0 23.513 2.376c12.506 1.126 19.76 3.877 21.136 3.252 1.376-.626-.75-10.006-7.129-14.758A113.56 113.56 0 0 0 53.27 86.94z"/></g></g><g filter="url(#5bh8bi)" transform="rotate(-80.824)"><g transform="rotate(80.824)"><path fill="#e6e6e6" d="M56.05 83.64c-.656 0-3.858 5.845-4.35 19.726-.802 6.505-.125 13.13 1.97 19.269a60.559 60.559 0 0 0 2.217-18.265c.574-10.502 2.134-20.182.164-20.73z"/></g></g><g filter="url(#5bh8bj)" transform="rotate(-80.824)"><g transform="rotate(80.824)"><path fill="#e6e6e6" d="M55.524 86.07s-2.877 3.502-3.252 13.882a37.52 37.52 0 0 0 1.25 15.383 57.03 57.03 0 0 0 1.252-14.882c.375-8.005 2.376-14.383.75-14.383z"/></g></g><g filter="url(#5bh8bk)"><g><path fill="#e6e6e6" d="M91.79 157.357c0 2 11.756 0 17.51-1.751 7.628-1.751 10.88-4.127 9.88-4.878-1.001-.75-4.753 0-8.005 0a77.916 77.916 0 0 0-19.385 6.629z"/></g></g><g filter="url(#5bh8bl)"><g><path fill="#e6e6e6" d="M93.04 157.108c0 1.876 11.006 0 16.384-1.625 5.377-1.626 10.13-3.877 9.254-4.628-.875-.75-4.502.625-7.629 1a57.03 57.03 0 0 0-18.009 5.253z"/></g></g><g filter="url(#5bh8bm)" transform="rotate(71.541)"><g transform="rotate(-71.541)"><path fill="#fff" d="M101.349 108.68c3.101 0 4.599 7.253 7.807 22.316 3.209 15.063 7.7 16.625 10.695 16.625s-1.497 6.025-6.63 3.57c-5.134-2.454-6.739-7.475-9.412-16.848-2.674-9.372-4.92-25.44-2.46-25.663z"/></g></g><g filter="url(#5bh8bn)" transform="rotate(64.634)"><g transform="rotate(-64.634)"><path fill="#fff" d="M102.925 113.83c1 0 0 6.628 4.253 20.136 3.126 11.13 8.129 15.132 10.755 15.633 2.627.5 1.751 3.126-2.626 0a25.013 25.013 0 0 1-9.005-13.507 63.283 63.283 0 0 1-3.377-22.262z"/></g></g><g filter="url(#5bh8bo)" transform="rotate(-96.453)"><g transform="rotate(96.453)"><path fill="#e6e6e6" d="M99.042 107.33s0-2.251-2.376-6.754a138.948 138.948 0 0 1-10.38-26.263c-1.126-6.254 0-8.88-1.626-9.255s-.75 5.253 0 8.88a76.665 76.665 0 0 0 7.253 18.51 92.174 92.174 0 0 0 7.13 14.882z"/></g></g><g filter="url(#5bh8bp)" transform="rotate(-105.78)"><g transform="rotate(105.78)"><path fill="#e6e6e6" d="M85.34 89.192a142.34 142.34 0 0 1 7.182 16.644 98.397 98.397 0 0 0 3.168 18.128c1.373.636.95-4.24.528-9.011a48.718 48.718 0 0 0-2.429-13.57c-2.43-6.89-7.393-12.933-8.449-12.191z"/></g></g><g filter="url(#5bh8bq)" transform="rotate(-105.78)"><g transform="rotate(105.78)"><path fill="#e6e6e6" d="M86.913 90.694a86.42 86.42 0 0 1 6.378 15.133c1.126 5.878 2.001 16.759 2.627 16.759.448-2.65.448-5.355 0-8.005a51.277 51.277 0 0 0-2.251-12.506c-2.377-6.128-6.004-12.257-6.754-11.381z"/></g></g><g filter="url(#5bh8br)" transform="rotate(66.93)"><g opacity=".5" transform="rotate(-66.93)"><path fill="#fff" d="M90.091 79.782c.73 2.358 13.855-9.862 13.438-10.72-.417-.858-9.271-10.398-13.438-9.434-4.167.965-3.75 8.684 0 20.154z"/></g></g><g filter="url(#5bh8bs)" transform="rotate(66.93)"><g opacity=".85" transform="rotate(-66.93)"><path fill="#fff" d="M89.04 73.563c0 1.376 9.13-6.503 8.88-7.379-.25-.875-6.253-6.253-7.754-5.502a12.507 12.507 0 0 0-1.126 12.881z"/></g></g><g filter="url(#5bh8bt)" transform="rotate(142.903)"><g opacity=".34" transform="rotate(-142.903)"><path fill="#fff" d="M110.298 77.876c1.614.198 13.006 14.969 13.006 17.249 0 2.28-16.804 6.047-19.841 0-3.038-6.047 4.936-17.547 6.835-17.25z"/></g></g><g filter="url(#5bh8bu)" opacity=".76"><path fill="#fff" d="M113.042 80.947a33.875 33.875 0 0 1 9.234 12.047c0 1.577-12.172 4.302-13.99 0-1.82-4.303 3.497-12.333 4.756-12.047z"/></g><g filter="url(#5bh8bv)"><g><path fill="#0e0f25" d="M83.91 162.358a15.133 15.133 0 0 1 4.002-3.252h10.38c3.502 0 5.378-.875 5.628 0a114.187 114.187 0 0 1-12.506 3.002c-3.627 0-7.504.75-7.504.25z"/></g></g><g filter="url(#5bh8bw)" transform="rotate(-96.453)"><g transform="rotate(96.453)"><path fill="#0e0f25" d="M128.808 97.66a45.922 45.922 0 0 1 6.643 14.388c.412 10.146-1.973 20.205-6.88 29.018-5.932 8.901-9.254-18.533-6.407-30.604 2.847-12.07 6.644-12.802 6.644-12.802z"/></g></g><g filter="url(#5bh8bx)" transform="rotate(-96.453)"><g transform="rotate(96.453)"><path fill="#0e0f25" d="M129.498 99.71a35.552 35.552 0 0 1 5.91 11.985 52.709 52.709 0 0 1-5.418 25.528c-4.802 7.67-8.373-16.42-6.034-26.727 2.34-10.307 5.542-10.786 5.542-10.786z"/></g></g><g filter="url(#5bh8by)" transform="rotate(36.741)"><g transform="rotate(-36.741)"><path fill="#0e0f25" d="M53.007 132.98a42.76 42.76 0 0 0 3.725 24.514c4.79 9.674 11.815 9.674 14.157 8.025 2.341-1.65-5.003-1.759-10.644-11.653a80.855 80.855 0 0 1-7.238-20.886z"/></g></g><g filter="url(#5bh8bz)" transform="rotate(36.741)"><g transform="rotate(-36.741)"><path fill="#0e0f25" d="M53.77 144.85a39.896 39.896 0 0 0 5.628 14.633c4.252 6.378 8.755 7.754 10.255 6.753 1.501-1-3.627-1.25-8.504-7.754a68.66 68.66 0 0 1-7.379-13.632z"/></g></g><g filter="url(#5bh8bA)" transform="rotate(-142.672)"><g transform="rotate(142.672)"><path fill="#e6e6e6" d="M75.082 43.014c.781-2.34 5.368-2.153 9.76 1.873 4.392 4.026 4.783 6.086 3.904 6.742-.878.655-16.396-.937-13.664-8.615z"/></g></g><g filter="url(#5bh8bB)" transform="rotate(-142.672)"><g transform="rotate(142.672)"><path fill="#e6e6e6" d="M77.28 42.926c.626-1.751 3.877-1.626 6.629 1.25 2.751 2.877 3.377 4.503 2.751 4.878-.625.375-11.13-.5-9.38-6.128z"/></g></g><g filter="url(#5bh8bC)"><g><path fill="#0e0f25" fill-opacity=".55" d="M64.84 59.248c1.595 1.043 11.485-5.528 19.035-4.59 7.55.94 21.161 15.541 22.012 15.02-6.328-8.373-15.07-14.694-25.096-18.148-6.497-1.357-13.095 1.836-15.951 7.718z"/></g></g><g filter="url(#5bh8bD)"><g><path fill="#0e0f25" fill-opacity=".55" d="M67.656 56.93c1.375.876 6.378-3.376 14.507-2.876A43.898 43.898 0 0 1 103.55 65.56a48.025 48.025 0 0 0-22.887-13.632c-8.88-1.376-13.757 4.502-13.006 5.003z"/></g></g><g filter="url(#5bh8bE)" transform="rotate(133.647)"><g opacity=".5" transform="rotate(-133.647)"><path fill="#fff" d="M109.768 131.202c-1.595-6.821 18.94-6.408 20.436 0-1.312 5.9-4.34 11.239-8.673 15.297-2.99 1.55-9.071-3.721-11.763-15.297z"/></g></g><g filter="url(#5bh8bF)" opacity=".61"><path fill="#fff" d="M111.53 134.337c0-1.848 15.393-1.694 15.393-.77 0 .923-2.001 11.544-4.31 12.16-2.31.616-8.312-3.078-11.083-11.39z"/></g><g opacity=".59"/></g></g></g></svg>