<svg xmlns="http://www.w3.org/2000/svg" width="17" height="13" viewBox="0 0 17 13"><g><g><g><path fill="#6b35df" d="M6.5 1.9a1.6 1.6 0 1 1 0 3.2 1.6 1.6 0 0 1 0-3.2zm0-1.8a3.4 3.4 0 1 0 0 6.8 3.4 3.4 0 0 0 0-6.8z"/></g><g><path fill="#6b35df" d="M6.504 7.6c2.71 0 5.105 1.567 6.016 3.882l.084.227.293.85-1.701.588-.294-.851C10.317 10.599 8.55 9.4 6.504 9.4c-1.97 0-3.684 1.114-4.33 2.713l-.07.186-.292.851-1.702-.585.293-.85C1.242 9.272 3.705 7.6 6.504 7.6z"/></g><g><path fill="#6b35df" d="M14.4 3.1v5.8h-1.8V3.1z"/></g><g transform="rotate(-90 13.5 6)"><path fill="#6b35df" d="M14.4 3.1v5.8h-1.8V3.1z"/></g></g></g></svg>